<svg width="407" height="368" viewBox="0 0 407 368" fill="none" xmlns="http://www.w3.org/2000/svg">
<path d="M382.382 368H40.2555C26.9938 368 16.1943 357.244 16.1943 343.939V207.434C16.1943 99.6985 103.54 12.3525 211.276 12.3525C319.011 12.3525 406.357 99.6985 406.357 207.434V343.939C406.4 357.244 395.644 368 382.382 368Z" fill="#19223F"/>
<path d="M366.831 356.336H24.704C11.4422 356.336 0.642822 345.58 0.642822 332.275V195.77C0.642822 88.0349 87.9887 0.688965 195.724 0.688965C303.459 0.688965 390.805 88.0349 390.805 195.77V332.275C390.848 345.58 380.092 356.336 366.831 356.336Z" fill="#B76FEF"/>
<path d="M93.4 205V188.92L123.28 168.28C124.8 167.16 126.36 165.96 127.96 164.68C129.56 163.32 131.04 161.8 132.4 160.12C133.76 158.44 134.88 156.64 135.76 154.72C136.64 152.72 137.08 150.6 137.08 148.36C137.08 145.96 136.52 143.92 135.4 142.24C134.36 140.56 132.8 139.24 130.72 138.28C128.72 137.32 126.24 136.84 123.28 136.84C120.64 136.84 118.36 137.24 116.44 138.04C114.6 138.84 113.04 140.04 111.76 141.64C110.56 143.16 109.68 145.08 109.12 147.4C108.56 149.72 108.28 152.4 108.28 155.44L93.76 152.56C93.6 146.72 94.64 141.68 96.88 137.44C99.2 133.12 102.6 129.8 107.08 127.48C111.56 125.08 117.04 123.88 123.52 123.88C129.2 123.88 134.16 124.8 138.4 126.64C142.72 128.48 146.08 131.12 148.48 134.56C150.88 138 152.08 142.24 152.08 147.28C152.08 151.2 151.4 154.76 150.04 157.96C148.76 161.08 147.08 163.92 145 166.48C142.92 169.04 140.64 171.32 138.16 173.32C135.68 175.24 133.28 176.96 130.96 178.48L110.8 192.04V193L153.52 192.4V205H93.4ZM200.31 206.68C195.35 206.68 190.83 205.76 186.75 203.92C182.67 202 179.15 199.32 176.19 195.88C173.31 192.36 171.07 188.08 169.47 183.04C167.95 177.92 167.19 172.16 167.19 165.76C167.19 156.8 168.63 149.24 171.51 143.08C174.47 136.92 178.47 132.24 183.51 129.04C188.55 125.84 194.31 124.24 200.79 124.24C207.51 124.24 213.31 125.88 218.19 129.16C223.15 132.44 226.95 137.16 229.59 143.32C232.31 149.48 233.67 156.88 233.67 165.52C233.67 172 232.87 177.8 231.27 182.92C229.75 187.96 227.51 192.28 224.55 195.88C221.59 199.4 218.07 202.08 213.99 203.92C209.91 205.76 205.35 206.68 200.31 206.68ZM200.67 194.44C202.99 194.44 205.23 193.92 207.39 192.88C209.55 191.76 211.47 190.08 213.15 187.84C214.83 185.52 216.15 182.56 217.11 178.96C218.07 175.28 218.55 170.88 218.55 165.76C218.55 159.6 217.79 154.32 216.27 149.92C214.75 145.52 212.63 142.16 209.91 139.84C207.27 137.52 204.15 136.36 200.55 136.36C197.59 136.36 194.71 137.32 191.91 139.24C189.19 141.08 186.91 144.12 185.07 148.36C183.31 152.6 182.43 158.28 182.43 165.4C182.43 170.44 182.91 174.8 183.87 178.48C184.83 182.08 186.11 185.08 187.71 187.48C189.39 189.8 191.31 191.56 193.47 192.76C195.71 193.88 198.11 194.44 200.67 194.44ZM266.122 191.2V142.6H278.602V191.2H266.122ZM248.122 172.84V160.96H296.602V172.84H248.122Z" fill="white"/>
<path d="M108.617 253.276C108.541 252.603 108.229 252.082 107.68 251.713C107.13 251.339 106.439 251.152 105.606 251.152C105.009 251.152 104.493 251.247 104.058 251.436C103.622 251.621 103.283 251.876 103.042 252.203C102.805 252.525 102.687 252.892 102.687 253.304C102.687 253.65 102.767 253.948 102.928 254.199C103.094 254.45 103.309 254.661 103.575 254.831C103.844 254.997 104.133 255.136 104.441 255.25C104.749 255.359 105.045 255.449 105.329 255.52L106.749 255.889C107.213 256.003 107.689 256.157 108.177 256.351C108.665 256.545 109.117 256.801 109.533 257.118C109.95 257.435 110.286 257.828 110.542 258.297C110.802 258.766 110.933 259.327 110.933 259.98C110.933 260.804 110.719 261.536 110.293 262.175C109.872 262.814 109.259 263.318 108.454 263.688C107.654 264.057 106.685 264.241 105.549 264.241C104.46 264.241 103.518 264.069 102.722 263.723C101.927 263.377 101.304 262.887 100.854 262.253C100.405 261.614 100.156 260.856 100.109 259.98H102.31C102.353 260.506 102.523 260.944 102.822 261.294C103.125 261.64 103.511 261.898 103.979 262.068C104.453 262.234 104.971 262.317 105.535 262.317C106.155 262.317 106.707 262.22 107.19 262.026C107.677 261.827 108.061 261.552 108.34 261.202C108.62 260.847 108.759 260.432 108.759 259.959C108.759 259.528 108.636 259.175 108.39 258.901C108.148 258.626 107.819 258.399 107.403 258.219C106.991 258.039 106.524 257.88 106.004 257.743L104.285 257.274C103.12 256.957 102.197 256.491 101.515 255.875C100.838 255.259 100.499 254.445 100.499 253.432C100.499 252.594 100.727 251.862 101.181 251.237C101.636 250.612 102.251 250.127 103.028 249.781C103.804 249.431 104.68 249.256 105.656 249.256C106.64 249.256 107.509 249.429 108.262 249.774C109.02 250.12 109.616 250.596 110.052 251.202C110.487 251.803 110.715 252.494 110.734 253.276H108.617ZM116.559 264.241C115.868 264.241 115.243 264.114 114.684 263.858C114.126 263.598 113.683 263.221 113.356 262.729C113.034 262.236 112.873 261.633 112.873 260.918C112.873 260.302 112.992 259.795 113.228 259.398C113.465 259 113.785 258.685 114.187 258.453C114.59 258.221 115.039 258.046 115.537 257.928C116.034 257.809 116.54 257.719 117.056 257.658C117.71 257.582 118.24 257.52 118.647 257.473C119.055 257.421 119.35 257.338 119.535 257.224C119.72 257.111 119.812 256.926 119.812 256.67V256.621C119.812 256 119.637 255.52 119.287 255.179C118.941 254.838 118.425 254.668 117.738 254.668C117.023 254.668 116.46 254.826 116.048 255.143C115.641 255.456 115.359 255.804 115.203 256.188L113.207 255.733C113.444 255.07 113.789 254.535 114.244 254.128C114.703 253.716 115.231 253.418 115.828 253.233C116.424 253.044 117.052 252.949 117.71 252.949C118.145 252.949 118.607 253.001 119.095 253.105C119.587 253.205 120.047 253.389 120.473 253.659C120.904 253.929 121.256 254.315 121.531 254.817C121.806 255.314 121.943 255.96 121.943 256.756V264H119.869V262.509H119.784C119.646 262.783 119.44 263.053 119.166 263.318C118.891 263.583 118.538 263.804 118.108 263.979C117.677 264.154 117.161 264.241 116.559 264.241ZM117.021 262.537C117.608 262.537 118.11 262.421 118.527 262.189C118.948 261.957 119.268 261.654 119.485 261.28C119.708 260.901 119.819 260.496 119.819 260.065V258.659C119.743 258.735 119.597 258.806 119.379 258.872C119.166 258.934 118.922 258.988 118.647 259.036C118.373 259.078 118.105 259.118 117.845 259.156C117.584 259.189 117.367 259.218 117.191 259.241C116.779 259.294 116.403 259.381 116.062 259.504C115.726 259.627 115.456 259.805 115.252 260.037C115.054 260.264 114.954 260.567 114.954 260.946C114.954 261.472 115.148 261.869 115.537 262.139C115.925 262.404 116.42 262.537 117.021 262.537ZM129.864 253.091V254.795H123.905V253.091H129.864ZM125.503 250.477H127.626V260.797C127.626 261.209 127.688 261.519 127.811 261.727C127.934 261.931 128.093 262.071 128.287 262.146C128.486 262.217 128.701 262.253 128.933 262.253C129.104 262.253 129.253 262.241 129.381 262.217C129.509 262.194 129.608 262.175 129.679 262.161L130.062 263.915C129.939 263.962 129.764 264.009 129.537 264.057C129.31 264.109 129.026 264.137 128.685 264.142C128.126 264.152 127.605 264.052 127.122 263.844C126.639 263.635 126.249 263.313 125.95 262.878C125.652 262.442 125.503 261.895 125.503 261.237V250.477ZM132.213 264V253.091H134.336V264H132.213ZM133.285 251.408C132.916 251.408 132.599 251.285 132.333 251.038C132.073 250.787 131.943 250.489 131.943 250.143C131.943 249.793 132.073 249.495 132.333 249.249C132.599 248.998 132.916 248.872 133.285 248.872C133.654 248.872 133.969 248.998 134.23 249.249C134.495 249.495 134.627 249.793 134.627 250.143C134.627 250.489 134.495 250.787 134.23 251.038C133.969 251.285 133.654 251.408 133.285 251.408ZM145.368 255.754L143.443 256.095C143.363 255.849 143.235 255.615 143.06 255.392C142.889 255.17 142.657 254.987 142.364 254.845C142.07 254.703 141.703 254.632 141.263 254.632C140.661 254.632 140.16 254.767 139.757 255.037C139.355 255.302 139.153 255.645 139.153 256.067C139.153 256.431 139.288 256.725 139.558 256.947C139.828 257.17 140.264 257.352 140.865 257.494L142.598 257.892C143.602 258.124 144.35 258.482 144.842 258.964C145.335 259.447 145.581 260.075 145.581 260.847C145.581 261.5 145.392 262.082 145.013 262.594C144.639 263.1 144.116 263.498 143.443 263.787C142.776 264.076 142.001 264.22 141.121 264.22C139.899 264.22 138.902 263.96 138.131 263.439C137.359 262.913 136.885 262.168 136.71 261.202L138.763 260.889C138.891 261.424 139.153 261.829 139.551 262.104C139.949 262.374 140.467 262.509 141.107 262.509C141.803 262.509 142.359 262.364 142.776 262.075C143.192 261.782 143.401 261.424 143.401 261.003C143.401 260.662 143.273 260.375 143.017 260.143C142.766 259.911 142.38 259.736 141.859 259.618L140.013 259.213C138.995 258.981 138.242 258.612 137.754 258.105C137.271 257.598 137.03 256.957 137.03 256.18C137.03 255.536 137.21 254.973 137.57 254.49C137.929 254.007 138.427 253.631 139.061 253.361C139.696 253.086 140.422 252.949 141.241 252.949C142.42 252.949 143.348 253.205 144.026 253.716C144.703 254.223 145.15 254.902 145.368 255.754ZM153.108 253.091V254.795H146.943V253.091H153.108ZM148.633 264V251.827C148.633 251.145 148.782 250.579 149.081 250.129C149.379 249.675 149.774 249.336 150.267 249.114C150.759 248.886 151.294 248.773 151.872 248.773C152.298 248.773 152.663 248.808 152.966 248.879C153.269 248.946 153.493 249.007 153.64 249.064L153.143 250.783C153.044 250.754 152.916 250.721 152.76 250.683C152.603 250.641 152.414 250.619 152.191 250.619C151.675 250.619 151.306 250.747 151.083 251.003C150.866 251.259 150.757 251.628 150.757 252.111V264H148.633ZM155.299 264V253.091H157.422V264H155.299ZM156.371 251.408C156.002 251.408 155.685 251.285 155.419 251.038C155.159 250.787 155.029 250.489 155.029 250.143C155.029 249.793 155.159 249.495 155.419 249.249C155.685 248.998 156.002 248.872 156.371 248.872C156.74 248.872 157.055 248.998 157.316 249.249C157.581 249.495 157.713 249.793 157.713 250.143C157.713 250.489 157.581 250.787 157.316 251.038C157.055 251.285 156.74 251.408 156.371 251.408ZM164.981 264.22C163.906 264.22 162.98 263.991 162.204 263.531C161.432 263.067 160.835 262.416 160.414 261.578C159.997 260.735 159.789 259.748 159.789 258.616C159.789 257.499 159.997 256.514 160.414 255.662C160.835 254.81 161.423 254.144 162.175 253.666C162.933 253.188 163.818 252.949 164.832 252.949C165.447 252.949 166.044 253.051 166.621 253.254C167.199 253.458 167.718 253.777 168.177 254.213C168.636 254.649 168.998 255.214 169.263 255.911C169.529 256.602 169.661 257.442 169.661 258.432V259.185H160.989V257.594H167.58C167.58 257.035 167.467 256.54 167.239 256.109C167.012 255.674 166.692 255.33 166.281 255.08C165.873 254.829 165.395 254.703 164.846 254.703C164.249 254.703 163.728 254.85 163.283 255.143C162.843 255.432 162.502 255.811 162.261 256.28C162.024 256.744 161.906 257.248 161.906 257.793V259.036C161.906 259.765 162.033 260.385 162.289 260.896C162.549 261.408 162.912 261.798 163.376 262.068C163.84 262.333 164.382 262.466 165.002 262.466C165.405 262.466 165.772 262.409 166.103 262.295C166.434 262.177 166.721 262.002 166.962 261.77C167.204 261.538 167.388 261.251 167.516 260.911L169.526 261.273C169.365 261.865 169.076 262.383 168.66 262.828C168.248 263.268 167.729 263.612 167.104 263.858C166.484 264.099 165.776 264.22 164.981 264.22ZM176.101 264.213C175.221 264.213 174.435 263.988 173.743 263.538C173.057 263.084 172.517 262.437 172.124 261.599C171.736 260.757 171.542 259.746 171.542 258.567C171.542 257.388 171.738 256.379 172.131 255.541C172.529 254.703 173.073 254.062 173.765 253.616C174.456 253.171 175.239 252.949 176.115 252.949C176.792 252.949 177.337 253.062 177.749 253.29C178.166 253.512 178.488 253.773 178.715 254.071C178.947 254.369 179.127 254.632 179.255 254.859H179.382V249.455H181.506V264H179.432V262.303H179.255C179.127 262.535 178.942 262.8 178.701 263.098C178.464 263.396 178.137 263.657 177.721 263.879C177.304 264.102 176.764 264.213 176.101 264.213ZM176.57 262.402C177.181 262.402 177.697 262.241 178.118 261.919C178.544 261.592 178.866 261.14 179.084 260.562C179.307 259.985 179.418 259.312 179.418 258.545C179.418 257.788 179.309 257.125 179.091 256.557C178.873 255.989 178.554 255.546 178.132 255.229C177.711 254.911 177.19 254.753 176.57 254.753C175.931 254.753 175.398 254.919 174.972 255.25C174.546 255.581 174.224 256.034 174.006 256.607C173.793 257.179 173.686 257.826 173.686 258.545C173.686 259.275 173.795 259.93 174.013 260.513C174.231 261.095 174.553 261.557 174.979 261.898C175.41 262.234 175.94 262.402 176.57 262.402ZM202.081 254.185H199.865C199.78 253.711 199.622 253.295 199.39 252.935C199.158 252.575 198.873 252.269 198.537 252.018C198.201 251.768 197.825 251.578 197.408 251.45C196.996 251.322 196.558 251.259 196.094 251.259C195.256 251.259 194.506 251.469 193.843 251.891C193.185 252.312 192.664 252.93 192.28 253.744C191.901 254.559 191.712 255.553 191.712 256.727C191.712 257.911 191.901 258.91 192.28 259.724C192.664 260.539 193.187 261.154 193.85 261.571C194.513 261.988 195.258 262.196 196.087 262.196C196.546 262.196 196.982 262.134 197.394 262.011C197.81 261.884 198.187 261.696 198.523 261.45C198.859 261.204 199.143 260.903 199.375 260.548C199.612 260.188 199.775 259.777 199.865 259.312L202.081 259.32C201.963 260.035 201.733 260.693 201.392 261.294C201.056 261.891 200.623 262.407 200.093 262.842C199.567 263.273 198.966 263.607 198.289 263.844C197.612 264.08 196.873 264.199 196.073 264.199C194.813 264.199 193.691 263.901 192.706 263.304C191.721 262.703 190.945 261.843 190.377 260.726C189.813 259.608 189.532 258.276 189.532 256.727C189.532 255.174 189.816 253.841 190.384 252.729C190.952 251.611 191.729 250.754 192.713 250.158C193.698 249.556 194.818 249.256 196.073 249.256C196.845 249.256 197.564 249.367 198.232 249.589C198.904 249.807 199.508 250.129 200.043 250.555C200.578 250.977 201.021 251.493 201.371 252.104C201.721 252.71 201.958 253.403 202.081 254.185ZM211.447 259.476V253.091H213.578V264H211.49V262.111H211.376C211.125 262.693 210.723 263.179 210.169 263.567C209.62 263.95 208.936 264.142 208.116 264.142C207.416 264.142 206.795 263.988 206.256 263.68C205.721 263.368 205.299 262.906 204.991 262.295C204.688 261.685 204.537 260.929 204.537 260.03V253.091H206.661V259.774C206.661 260.518 206.866 261.109 207.278 261.55C207.69 261.99 208.225 262.21 208.884 262.21C209.281 262.21 209.677 262.111 210.07 261.912C210.467 261.713 210.796 261.412 211.057 261.01C211.322 260.607 211.452 260.096 211.447 259.476ZM224.606 255.754L222.681 256.095C222.601 255.849 222.473 255.615 222.298 255.392C222.127 255.17 221.895 254.987 221.602 254.845C221.308 254.703 220.941 254.632 220.501 254.632C219.9 254.632 219.398 254.767 218.995 255.037C218.593 255.302 218.392 255.645 218.392 256.067C218.392 256.431 218.527 256.725 218.797 256.947C219.066 257.17 219.502 257.352 220.103 257.494L221.836 257.892C222.84 258.124 223.588 258.482 224.081 258.964C224.573 259.447 224.819 260.075 224.819 260.847C224.819 261.5 224.63 262.082 224.251 262.594C223.877 263.1 223.354 263.498 222.681 263.787C222.014 264.076 221.24 264.22 220.359 264.22C219.137 264.22 218.141 263.96 217.369 263.439C216.597 262.913 216.124 262.168 215.949 261.202L218.001 260.889C218.129 261.424 218.392 261.829 218.789 262.104C219.187 262.374 219.706 262.509 220.345 262.509C221.041 262.509 221.597 262.364 222.014 262.075C222.431 261.782 222.639 261.424 222.639 261.003C222.639 260.662 222.511 260.375 222.255 260.143C222.004 259.911 221.618 259.736 221.098 259.618L219.251 259.213C218.233 258.981 217.48 258.612 216.993 258.105C216.51 257.598 216.268 256.957 216.268 256.18C216.268 255.536 216.448 254.973 216.808 254.49C217.168 254.007 217.665 253.631 218.299 253.361C218.934 253.086 219.661 252.949 220.48 252.949C221.659 252.949 222.587 253.205 223.264 253.716C223.941 254.223 224.388 254.902 224.606 255.754ZM232.246 253.091V254.795H226.288V253.091H232.246ZM227.886 250.477H230.009V260.797C230.009 261.209 230.071 261.519 230.194 261.727C230.317 261.931 230.476 262.071 230.67 262.146C230.869 262.217 231.084 262.253 231.316 262.253C231.487 262.253 231.636 262.241 231.763 262.217C231.891 262.194 231.991 262.175 232.062 262.161L232.445 263.915C232.322 263.962 232.147 264.009 231.92 264.057C231.692 264.109 231.408 264.137 231.067 264.142C230.509 264.152 229.988 264.052 229.505 263.844C229.022 263.635 228.631 263.313 228.333 262.878C228.035 262.442 227.886 261.895 227.886 261.237V250.477ZM239.074 264.22C238.051 264.22 237.158 263.986 236.396 263.517C235.634 263.048 235.042 262.393 234.62 261.55C234.199 260.707 233.988 259.722 233.988 258.595C233.988 257.464 234.199 256.474 234.62 255.626C235.042 254.779 235.634 254.121 236.396 253.652C237.158 253.183 238.051 252.949 239.074 252.949C240.096 252.949 240.989 253.183 241.751 253.652C242.513 254.121 243.105 254.779 243.527 255.626C243.948 256.474 244.159 257.464 244.159 258.595C244.159 259.722 243.948 260.707 243.527 261.55C243.105 262.393 242.513 263.048 241.751 263.517C240.989 263.986 240.096 264.22 239.074 264.22ZM239.081 262.438C239.743 262.438 240.293 262.262 240.728 261.912C241.164 261.562 241.486 261.095 241.694 260.513C241.907 259.93 242.014 259.289 242.014 258.588C242.014 257.892 241.907 257.253 241.694 256.67C241.486 256.083 241.164 255.612 240.728 255.257C240.293 254.902 239.743 254.724 239.081 254.724C238.413 254.724 237.859 254.902 237.419 255.257C236.983 255.612 236.659 256.083 236.446 256.67C236.237 257.253 236.133 257.892 236.133 258.588C236.133 259.289 236.237 259.93 236.446 260.513C236.659 261.095 236.983 261.562 237.419 261.912C237.859 262.262 238.413 262.438 239.081 262.438ZM246.529 264V253.091H248.567V254.866H248.702C248.93 254.265 249.301 253.796 249.817 253.46C250.334 253.119 250.951 252.949 251.671 252.949C252.4 252.949 253.011 253.119 253.504 253.46C254.001 253.801 254.368 254.27 254.604 254.866H254.718C254.978 254.284 255.393 253.82 255.961 253.474C256.529 253.124 257.206 252.949 257.992 252.949C258.982 252.949 259.789 253.259 260.414 253.879C261.044 254.5 261.359 255.435 261.359 256.685V264H259.235V256.884C259.235 256.145 259.034 255.61 258.631 255.278C258.229 254.947 257.748 254.781 257.19 254.781C256.498 254.781 255.961 254.994 255.577 255.42C255.194 255.842 255.002 256.384 255.002 257.047V264H252.886V256.749C252.886 256.157 252.701 255.681 252.332 255.321C251.962 254.961 251.482 254.781 250.89 254.781C250.487 254.781 250.116 254.888 249.775 255.101C249.439 255.309 249.166 255.6 248.958 255.974C248.754 256.348 248.653 256.782 248.653 257.274V264H246.529ZM268.907 264.22C267.832 264.22 266.906 263.991 266.13 263.531C265.358 263.067 264.761 262.416 264.34 261.578C263.923 260.735 263.715 259.748 263.715 258.616C263.715 257.499 263.923 256.514 264.34 255.662C264.761 254.81 265.348 254.144 266.101 253.666C266.859 253.188 267.744 252.949 268.757 252.949C269.373 252.949 269.97 253.051 270.547 253.254C271.125 253.458 271.643 253.777 272.103 254.213C272.562 254.649 272.924 255.214 273.189 255.911C273.454 256.602 273.587 257.442 273.587 258.432V259.185H264.915V257.594H271.506C271.506 257.035 271.392 256.54 271.165 256.109C270.938 255.674 270.618 255.33 270.206 255.08C269.799 254.829 269.321 254.703 268.772 254.703C268.175 254.703 267.654 254.85 267.209 255.143C266.769 255.432 266.428 255.811 266.186 256.28C265.95 256.744 265.831 257.248 265.831 257.793V259.036C265.831 259.765 265.959 260.385 266.215 260.896C266.475 261.408 266.837 261.798 267.301 262.068C267.766 262.333 268.308 262.466 268.928 262.466C269.33 262.466 269.697 262.409 270.029 262.295C270.36 262.177 270.647 262.002 270.888 261.77C271.13 261.538 271.314 261.251 271.442 260.911L273.452 261.273C273.291 261.865 273.002 262.383 272.586 262.828C272.174 263.268 271.655 263.612 271.03 263.858C270.41 264.099 269.702 264.22 268.907 264.22ZM275.943 264V253.091H277.996V254.824H278.109C278.308 254.237 278.659 253.775 279.161 253.439C279.667 253.098 280.24 252.928 280.879 252.928C281.012 252.928 281.168 252.932 281.348 252.942C281.533 252.951 281.677 252.963 281.781 252.977V255.009C281.696 254.985 281.545 254.959 281.327 254.93C281.109 254.897 280.891 254.881 280.673 254.881C280.171 254.881 279.724 254.987 279.331 255.2C278.943 255.409 278.635 255.7 278.408 256.074C278.18 256.443 278.067 256.865 278.067 257.338V264H275.943ZM291.794 255.754L289.869 256.095C289.788 255.849 289.661 255.615 289.485 255.392C289.315 255.17 289.083 254.987 288.789 254.845C288.496 254.703 288.129 254.632 287.689 254.632C287.087 254.632 286.585 254.767 286.183 255.037C285.78 255.302 285.579 255.645 285.579 256.067C285.579 256.431 285.714 256.725 285.984 256.947C286.254 257.17 286.69 257.352 287.291 257.494L289.024 257.892C290.028 258.124 290.776 258.482 291.268 258.964C291.761 259.447 292.007 260.075 292.007 260.847C292.007 261.5 291.817 262.082 291.439 262.594C291.065 263.1 290.541 263.498 289.869 263.787C289.201 264.076 288.427 264.22 287.547 264.22C286.325 264.22 285.328 263.96 284.556 263.439C283.785 262.913 283.311 262.168 283.136 261.202L285.189 260.889C285.316 261.424 285.579 261.829 285.977 262.104C286.375 262.374 286.893 262.509 287.532 262.509C288.228 262.509 288.785 262.364 289.201 262.075C289.618 261.782 289.826 261.424 289.826 261.003C289.826 260.662 289.699 260.375 289.443 260.143C289.192 259.911 288.806 259.736 288.285 259.618L286.439 259.213C285.421 258.981 284.668 258.612 284.18 258.105C283.697 257.598 283.456 256.957 283.456 256.18C283.456 255.536 283.636 254.973 283.995 254.49C284.355 254.007 284.852 253.631 285.487 253.361C286.121 253.086 286.848 252.949 287.667 252.949C288.846 252.949 289.774 253.205 290.451 253.716C291.128 254.223 291.576 254.902 291.794 255.754Z" fill="#EDD5FF"/>
</svg>
