<svg width="450" height="259" viewBox="0 0 450 259" fill="none" xmlns="http://www.w3.org/2000/svg">
<path d="M373.707 188.177L365.155 226.324L392.704 244.135C393.33 244.539 394.044 244.787 394.785 244.858C395.527 244.929 396.274 244.82 396.965 244.541C397.656 244.263 398.27 243.822 398.755 243.256C399.239 242.691 399.581 242.017 399.751 241.291L407.235 209.387L374.602 187.837C374.524 187.784 374.435 187.751 374.342 187.739C374.248 187.728 374.153 187.74 374.066 187.773C373.978 187.807 373.899 187.861 373.837 187.931C373.774 188.002 373.73 188.086 373.707 188.177Z" fill="#7B97F8"/>
<path d="M385.475 221.878C384.418 221.879 383.379 221.592 382.472 221.049C381.565 220.505 380.823 219.724 380.326 218.791C379.828 217.857 379.595 216.806 379.649 215.75C379.704 214.693 380.046 213.672 380.637 212.795C381.228 211.918 382.047 211.218 383.006 210.771C383.964 210.324 385.027 210.147 386.078 210.258C387.13 210.369 388.132 210.764 388.977 211.401C389.821 212.038 390.476 212.893 390.871 213.874C391.227 214.757 391.362 215.715 391.262 216.662C391.162 217.61 390.831 218.518 390.298 219.308C389.766 220.098 389.048 220.746 388.207 221.194C387.366 221.642 386.428 221.876 385.475 221.878ZM385.475 211.613C384.909 211.613 384.348 211.724 383.825 211.939C383.284 212.155 382.791 212.477 382.375 212.884C381.958 213.292 381.626 213.778 381.398 214.314C381.17 214.85 381.05 215.426 381.045 216.009C381.04 216.591 381.15 217.169 381.369 217.709C381.587 218.249 381.909 218.741 382.317 219.157C382.725 219.573 383.21 219.904 383.746 220.132C384.282 220.36 384.857 220.48 385.44 220.486C386.022 220.491 386.6 220.382 387.14 220.165C387.68 219.947 388.172 219.625 388.588 219.217C389.003 218.809 389.335 218.324 389.563 217.788C389.791 217.252 389.911 216.676 389.916 216.094C389.922 215.512 389.813 214.934 389.595 214.394C389.263 213.571 388.691 212.866 387.955 212.37C387.218 211.874 386.349 211.61 385.461 211.613H385.475Z" fill="white"/>
<path d="M383.55 211.974C383.411 211.974 383.275 211.932 383.16 211.854C383.045 211.777 382.956 211.666 382.905 211.537L373.673 188.649C373.633 188.563 373.61 188.471 373.606 188.376C373.602 188.281 373.618 188.187 373.652 188.099C373.687 188.011 373.738 187.93 373.805 187.863C373.871 187.795 373.951 187.742 374.038 187.707C374.126 187.671 374.22 187.654 374.315 187.656C374.41 187.658 374.503 187.68 374.589 187.719C374.675 187.759 374.752 187.815 374.815 187.886C374.878 187.956 374.926 188.039 374.957 188.129L384.195 211.017C384.264 211.187 384.262 211.377 384.191 211.546C384.119 211.715 383.983 211.849 383.814 211.918C383.73 211.954 383.641 211.973 383.55 211.974Z" fill="white"/>
<path d="M403.115 227.232L408.663 240.965C408.893 241.531 409.008 242.136 409.003 242.746C408.998 243.357 408.873 243.96 408.635 244.522C408.396 245.083 408.05 245.593 407.614 246.02C407.179 246.448 406.663 246.785 406.097 247.013L392.094 252.638C391.528 252.868 390.923 252.983 390.313 252.978C389.702 252.973 389.099 252.848 388.537 252.61C387.975 252.371 387.466 252.025 387.039 251.589C386.611 251.154 386.274 250.638 386.046 250.072L380.497 236.339C380.497 236.339 395.881 241.867 403.115 227.232Z" fill="#302E2C"/>
<path d="M386.586 238.177C384.401 238.214 382.231 237.8 380.212 236.963C380.049 236.883 379.924 236.742 379.864 236.571C379.804 236.399 379.814 236.211 379.891 236.046C379.968 235.882 380.107 235.754 380.277 235.691C380.448 235.628 380.636 235.634 380.802 235.708C384.86 237.164 389.311 237.08 393.311 235.47C397.31 233.86 400.579 230.837 402.497 226.976C402.523 226.883 402.568 226.796 402.629 226.721C402.69 226.646 402.766 226.585 402.852 226.542C402.939 226.498 403.033 226.473 403.13 226.468C403.226 226.463 403.323 226.478 403.413 226.512C403.503 226.547 403.585 226.6 403.654 226.668C403.722 226.736 403.776 226.818 403.811 226.908C403.847 226.998 403.863 227.094 403.858 227.191C403.854 227.287 403.83 227.382 403.787 227.468C403.697 227.725 401.346 233.711 393.841 236.748C391.537 237.687 389.074 238.173 386.586 238.177Z" fill="white"/>
<path d="M374.325 189.19C374.211 189.189 374.099 189.16 373.999 189.106C373.837 189.02 373.716 188.872 373.663 188.697C373.61 188.521 373.628 188.332 373.714 188.17C374.117 187.428 413.123 114.04 398.052 75.1168C394.133 64.9837 386.816 57.9647 376.308 54.254C345.846 43.4897 313.012 72.5784 281.288 100.724C252.581 126.164 225.462 150.183 203.871 139.46C182.28 128.737 190.693 101.431 198.842 75.0059C205.161 54.4343 211.133 35.0072 203.829 23.3898C200.459 18.0285 194.487 14.7686 185.595 13.4231C156.16 8.9842 127.39 40.1675 99.5915 70.2965C75.2261 96.7149 52.0121 121.878 29.665 121.885C25.74 121.885 21.8559 121.088 18.2487 119.541C9.14204 115.691 3.37147 107.424 1.10348 94.974C-0.692891 85.1321 -0.283681 72.6477 2.24094 57.8745C6.56193 32.7809 15.7796 9.40035 15.8697 9.17147C15.9378 9.0004 16.071 8.86337 16.2401 8.79053C16.4092 8.71769 16.6003 8.715 16.7714 8.78306C16.9425 8.85112 17.0795 8.98435 17.1523 9.15345C17.2252 9.32254 17.2279 9.51364 17.1598 9.68471C17.0696 9.91359 7.90053 33.1762 3.60035 58.1242C-0.332237 80.9637 -0.894028 109.941 18.7897 118.264C22.2198 119.733 25.9129 120.488 29.6442 120.484C51.4225 120.484 74.4216 95.515 98.572 69.3602C126.634 38.9398 155.64 7.48607 185.81 12.029C195.132 13.4162 201.416 16.884 205.015 22.6338C212.645 34.7853 206.604 54.5384 200.16 75.3943C192.212 101.265 183.993 128.016 204.481 138.198C225.233 148.511 252.012 124.784 280.366 99.6695C312.416 71.2675 345.562 41.9083 376.773 52.9362C387.676 56.7856 395.278 64.082 399.349 74.6105C407.353 95.293 400.278 125.276 392.933 146.777C387.959 161.208 381.946 175.26 374.942 188.822C374.882 188.934 374.793 189.027 374.685 189.092C374.576 189.157 374.451 189.191 374.325 189.19Z" fill="#191718"/>
<path d="M30.8695 112.736H16.0547V127.551H30.8695V112.736Z" fill="#7B97F8"/>
<path d="M23.5111 2H8.69629V16.8148H23.5111V2Z" fill="#7B97F8"/>
<path d="M198.488 6.07129H183.673V20.8861H198.488V6.07129Z" fill="#7B97F8"/>
<path d="M441.192 93.4133C441.062 93.4137 440.934 93.3776 440.824 93.3092L325.142 21.5031C325.017 21.3977 324.932 21.2511 324.905 21.0895C324.877 20.9279 324.907 20.7616 324.99 20.6202C325.073 20.4789 325.204 20.3716 325.359 20.3173C325.514 20.2631 325.683 20.2655 325.836 20.324L441.525 92.1301C441.653 92.2097 441.752 92.329 441.806 92.4699C441.861 92.6108 441.868 92.7655 441.826 92.9107C441.784 93.0559 441.697 93.1835 441.576 93.2742C441.455 93.3649 441.308 93.4138 441.157 93.4133H441.192Z" fill="#191718"/>
<path d="M442.065 99.6347C445.586 99.6347 448.439 96.781 448.439 93.2607C448.439 89.7404 445.586 86.8867 442.065 86.8867C438.545 86.8867 435.691 89.7404 435.691 93.2607C435.691 96.781 438.545 99.6347 442.065 99.6347Z" fill="#7B97F8"/>
<path d="M442.031 100.308C440.464 100.306 438.943 99.7854 437.704 98.8261C436.466 97.8669 435.581 96.5238 435.188 95.0074C434.795 93.491 434.917 91.8872 435.534 90.4473C436.15 89.0074 437.228 87.813 438.596 87.0513C439.965 86.2897 441.548 86.0038 443.097 86.2386C444.646 86.4735 446.073 87.2156 447.154 88.3488C448.236 89.482 448.911 90.9421 449.073 92.5001C449.235 94.0581 448.876 95.6259 448.051 96.9577C447.563 97.7486 446.924 98.4348 446.169 98.9765C445.414 99.5182 444.559 99.9047 443.654 100.113C443.122 100.24 442.577 100.305 442.031 100.308ZM442.031 87.5528C441.059 87.5471 440.103 87.791 439.253 88.261C438.403 88.731 437.688 89.4113 437.176 90.2369C436.582 91.1913 436.285 92.3002 436.322 93.4234C436.359 94.5467 436.728 95.6337 437.383 96.547C438.038 97.4603 438.949 98.1588 440.001 98.5542C441.053 98.9495 442.199 99.0239 443.293 98.7679C444.021 98.5986 444.708 98.2871 445.315 97.8515C445.922 97.4159 446.437 96.8646 446.83 96.2294C447.623 94.9488 447.876 93.4057 447.533 91.939C447.19 90.4722 446.278 89.2016 444.999 88.4059C444.119 87.8659 443.106 87.5803 442.072 87.5805L442.031 87.5528Z" fill="#191718"/>
<path d="M325.509 27.288C329.029 27.288 331.883 24.4343 331.883 20.914C331.883 17.3938 329.029 14.54 325.509 14.54C321.988 14.54 319.135 17.3938 319.135 20.914C319.135 24.4343 321.988 27.288 325.509 27.288Z" fill="#7B97F8"/>
<path d="M325.509 27.9813C324.416 27.9792 323.339 27.7236 322.361 27.2348C321.384 26.7459 320.533 26.037 319.876 25.1638C319.218 24.2905 318.773 23.2768 318.574 22.2022C318.374 21.1276 318.427 20.0215 318.727 18.9707C319.028 17.9199 319.568 16.9532 320.305 16.1463C321.042 15.3395 321.957 14.7147 322.976 14.3209C323.996 13.9271 325.093 13.7751 326.181 13.8769C327.269 13.9787 328.319 14.3314 329.247 14.9074C330.835 15.895 331.966 17.4713 332.394 19.2912C332.821 21.111 332.51 23.0262 331.529 24.6174C331.042 25.4083 330.402 26.0945 329.647 26.6362C328.892 27.178 328.037 27.5644 327.132 27.7732C326.601 27.904 326.056 27.9738 325.509 27.9813ZM325.509 15.2333C324.538 15.2277 323.581 15.4715 322.731 15.9415C321.881 16.4115 321.166 17.0919 320.654 17.9175C320.26 18.5514 319.995 19.2566 319.874 19.9929C319.753 20.7292 319.779 21.4821 319.949 22.2086C320.119 22.9351 320.43 23.621 320.865 24.2271C321.301 24.8332 321.851 25.3477 322.485 25.741C323.765 26.5357 325.309 26.7892 326.776 26.4458C328.243 26.1024 329.514 25.1903 330.309 23.91C331.103 22.6297 331.357 21.0862 331.013 19.619C330.67 18.1518 329.758 16.8811 328.477 16.0864C327.588 15.5293 326.559 15.2337 325.509 15.2333Z" fill="#191718"/>
<path d="M393.971 54.7035L381.384 46.8901L373.57 59.477L386.157 67.2904L393.971 54.7035Z" fill="#7B97F8"/>
<path d="M386.169 67.98C386.042 67.9791 385.917 67.9431 385.809 67.8759L373.22 60.0801C373.142 60.0325 373.075 59.97 373.021 59.8962C372.968 59.8224 372.929 59.7388 372.908 59.6501C372.866 59.4725 372.896 59.2856 372.991 59.1299L380.808 46.5415C380.856 46.4639 380.919 46.3967 380.993 46.3435C381.067 46.2904 381.151 46.2524 381.24 46.2318C381.329 46.2112 381.421 46.2083 381.511 46.2234C381.601 46.2384 381.688 46.2711 381.765 46.3195L394.353 54.1292C394.508 54.2268 394.618 54.3813 394.659 54.5592C394.68 54.6482 394.684 54.7406 394.67 54.8311C394.655 54.9216 394.623 55.0083 394.575 55.0863L386.759 67.6748C386.694 67.7709 386.606 67.8492 386.503 67.9025C386.4 67.9558 386.285 67.9824 386.169 67.98ZM374.538 59.2478L385.947 66.3223L393.029 54.9129L381.619 47.8385L374.538 59.2478Z" fill="#191718"/>
<path d="M218.97 133.669H204.155V148.484H218.97V133.669Z" fill="#7B97F8"/>
<path d="M165.965 212.475C190.685 187.755 190.685 147.674 165.965 122.953C141.244 98.2326 101.163 98.2326 76.4426 122.953C51.7218 147.674 51.7218 187.755 76.4426 212.475C101.163 237.196 141.244 237.196 165.965 212.475Z" fill="#FDBA2E"/>
<path d="M142.422 227.756C142.332 227.753 142.246 227.72 142.178 227.661C142.109 227.602 142.064 227.521 142.049 227.433C142.033 227.344 142.049 227.253 142.094 227.174C142.138 227.096 142.208 227.036 142.293 227.003C153.909 222.863 164.051 215.397 171.458 205.537C178.865 195.677 183.209 183.856 183.95 171.546C184.691 159.236 181.796 146.98 175.625 136.302C169.454 125.624 160.281 116.997 149.245 111.493C138.209 105.988 125.798 103.85 113.557 105.345C101.315 106.839 89.7831 111.9 80.3954 119.897C71.0077 127.894 64.1786 138.476 60.7578 150.324C57.337 162.172 57.4754 174.765 61.1558 186.536C61.1864 186.634 61.1769 186.74 61.1296 186.831C61.0822 186.922 61.0007 186.991 60.903 187.022C60.805 187.052 60.6988 187.043 60.6078 186.996C60.5167 186.948 60.448 186.867 60.4167 186.769C56.6955 174.857 56.5585 162.114 60.0226 150.124C63.4868 138.135 70.3993 127.429 79.9003 119.337C89.4013 111.246 101.072 106.126 113.459 104.614C125.847 103.103 138.406 105.267 149.574 110.837C160.742 116.408 170.025 125.138 176.27 135.943C182.515 146.748 185.446 159.15 184.697 171.607C183.949 184.065 179.555 196.027 172.061 206.007C164.568 215.986 154.306 223.543 142.552 227.736L142.422 227.756Z" fill="#3B232F"/>
<path d="M21.6786 158.373C21.6153 158.372 21.5531 158.356 21.4977 158.325C21.4423 158.295 21.3953 158.251 21.3609 158.198C21.3037 158.113 21.2825 158.008 21.302 157.907C21.3214 157.807 21.3799 157.718 21.4647 157.66L85.836 114.612C85.9219 114.561 86.0237 114.546 86.1205 114.569C86.2174 114.591 86.3018 114.65 86.3566 114.733C86.4114 114.816 86.4323 114.917 86.4151 115.015C86.3978 115.113 86.3437 115.201 86.2639 115.26L21.899 158.308C21.8323 158.348 21.7564 158.371 21.6786 158.373Z" fill="#3B232F"/>
<path d="M86.019 115.344C85.9554 115.344 85.8927 115.329 85.8363 115.299C85.7799 115.27 85.7314 115.227 85.6949 115.175C85.6383 115.089 85.6181 114.984 85.6388 114.883C85.6594 114.783 85.7192 114.694 85.8051 114.637L150.17 71.589C150.256 71.5314 150.361 71.5103 150.463 71.5304C150.564 71.5504 150.654 71.61 150.711 71.696C150.769 71.7819 150.79 71.8873 150.77 71.9888C150.75 72.0903 150.69 72.1797 150.604 72.2373L86.233 115.279C86.1699 115.322 86.0953 115.344 86.019 115.344Z" fill="#3B232F"/>
<path d="M149.309 68.2986L143.311 72.3096L147.322 78.3079L153.32 74.2969L149.309 68.2986Z" fill="#5B2F50"/>
<path d="M87.051 109.936L81.0527 113.947L85.0637 119.945L91.062 115.934L87.051 109.936Z" fill="white"/>
<path d="M85.0907 120.323C85.0262 120.324 84.9625 120.309 84.9057 120.278C84.8489 120.247 84.801 120.203 84.7665 120.148L80.7535 114.151C80.6969 114.065 80.6767 113.96 80.6974 113.859C80.718 113.759 80.7778 113.67 80.8637 113.613L86.8606 109.607C86.9022 109.576 86.9497 109.556 87.0001 109.545C87.0504 109.535 87.1024 109.536 87.1523 109.548C87.2523 109.568 87.3405 109.627 87.3987 109.71L91.4118 115.707C91.4669 115.794 91.4855 115.899 91.4636 115.999C91.4543 116.049 91.4351 116.096 91.4073 116.138C91.3795 116.181 91.3435 116.217 91.3016 116.245L85.3046 120.258C85.2415 120.301 85.1669 120.324 85.0907 120.323ZM81.6157 114.048L85.1944 119.396L90.5495 115.817L86.9708 110.462L81.6157 114.048Z" fill="#3B232F"/>
<path d="M24.7541 151.588L18.7559 155.599L22.7668 161.597L28.7651 157.586L24.7541 151.588Z" fill="#5B2F50"/>
<path d="M85.2283 163.734L16.1113 257.286H155.389L85.2283 163.734Z" fill="#E2435F"/>
<path d="M85.225 163.76L63.3379 193.356C64.8129 196.682 66.5675 199.876 68.5828 202.906C75.6438 213.458 85.7145 221.645 97.4873 226.401C109.26 231.157 122.191 232.264 134.601 229.577L85.225 163.76Z" fill="#4CC8B6"/>
<path d="M121.097 231.412C108.782 231.399 96.7352 227.81 86.4201 221.083C76.1049 214.355 67.965 204.777 62.9886 193.511C62.9469 193.418 62.944 193.311 62.9804 193.215C63.0168 193.119 63.0897 193.042 63.1831 192.999C63.2779 192.96 63.3843 192.959 63.4799 192.996C63.5755 193.034 63.6527 193.107 63.6953 193.2C65.1536 196.494 66.8886 199.659 68.8818 202.659C75.7984 213.045 85.6554 221.133 97.1925 225.887C108.73 230.642 121.423 231.848 133.649 229.35C133.744 229.343 133.839 229.37 133.915 229.428C133.991 229.485 134.043 229.569 134.062 229.663C134.08 229.757 134.064 229.854 134.015 229.936C133.966 230.019 133.889 230.08 133.798 230.109C129.618 230.965 125.364 231.402 121.097 231.412Z" fill="white"/>
<path d="M163.96 103.233L182.372 81.3463L155.363 73.7026L151.811 77.9297L163.96 103.233Z" fill="#FFE5AD"/>
<path d="M163.837 76.1014L155.363 73.7026L151.811 77.9297L155.623 85.865L163.837 76.1014Z" fill="#46B8A7"/>
</svg>
