<svg width="430" height="275" viewBox="0 0 430 275" fill="none" xmlns="http://www.w3.org/2000/svg">
<g clip-path="url(#clip0_637_34)">
<path d="M405.708 270.343C409.961 276.821 414.936 282.793 420.536 288.143C423.296 290.28 421.185 297.649 415.822 304.599C410.459 311.55 403.871 315.451 401.111 313.314C385.111 303.389 366.678 298.094 347.85 298.013L392.34 240.372C395.164 251.018 399.677 261.137 405.708 270.343Z" fill="#FFDBAB" fill-opacity="0.4"/>
<mask id="mask0_637_34" style="mask-type:luminance" maskUnits="userSpaceOnUse" x="347" y="240" width="75" height="74">
<path d="M405.708 270.343C409.961 276.821 414.936 282.793 420.536 288.143C423.296 290.28 421.185 297.649 415.822 304.599C410.459 311.55 403.871 315.451 401.111 313.314C385.111 303.389 366.678 298.094 347.85 298.013L392.34 240.372C395.164 251.018 399.677 261.137 405.708 270.343Z" fill="white"/>
</mask>
<g mask="url(#mask0_637_34)">
<g style="mix-blend-mode:overlay">
<path d="M361.779 293.482C361.867 293.436 361.963 293.41 362.062 293.405C362.253 293.38 362.443 293.365 362.631 293.358C362.689 293.345 362.748 293.344 362.806 293.356C362.863 293.368 362.918 293.391 362.966 293.425C363.013 293.46 363.053 293.503 363.083 293.554C363.113 293.605 363.132 293.661 363.138 293.72C363.174 293.814 363.203 293.929 363.136 294.001C363.109 294.026 363.076 294.046 363.04 294.057C362.966 294.094 362.886 294.118 362.803 294.127C362.726 294.129 362.649 294.119 362.575 294.098L361.872 293.936C361.635 293.88 361.538 293.625 361.779 293.482ZM365.616 296.184C365.844 296.129 366.084 296.151 366.297 296.248C366.509 296.345 366.709 296.466 366.894 296.608C366.985 296.666 367.067 296.738 367.137 296.82C367.172 296.861 367.197 296.909 367.211 296.961C367.224 297.013 367.226 297.068 367.216 297.121C367.184 297.202 367.128 297.273 367.056 297.322C366.983 297.371 366.897 297.397 366.809 297.396C366.494 297.397 366.188 297.293 365.937 297.102C365.725 296.963 365.079 296.337 365.616 296.184ZM372.121 294.427C372.132 294.385 372.13 294.337 372.132 294.29C372.144 294.156 372.168 293.997 372.289 293.937C372.346 293.917 372.408 293.914 372.466 293.93C372.524 293.945 372.576 293.979 372.615 294.025C372.647 294.053 372.672 294.088 372.688 294.127C372.704 294.167 372.71 294.21 372.706 294.252C372.69 294.361 372.581 294.426 372.517 294.517C372.453 294.608 372.407 294.772 372.266 294.758C372.126 294.744 372.111 294.542 372.121 294.427ZM375.442 300.135C375.477 300.096 375.517 300.062 375.561 300.033C375.604 300.01 375.652 299.997 375.7 299.996C375.749 299.994 375.798 300.004 375.842 300.024C375.886 300.044 375.925 300.075 375.955 300.113C375.986 300.152 376.007 300.197 376.017 300.244C376.026 300.28 376.025 300.317 376.014 300.352C375.986 300.455 375.872 300.5 375.773 300.537C375.674 300.574 375.44 300.661 375.336 300.559C375.232 300.458 375.353 300.23 375.442 300.135ZM379.514 277.775C379.741 277.912 379.932 278.1 380.073 278.325C380.141 278.438 380.177 278.568 380.176 278.701C380.175 278.834 380.136 278.963 380.066 279.075C380.017 279.147 379.945 279.201 379.861 279.226C379.778 279.252 379.689 279.248 379.608 279.216C379.493 279.139 379.408 279.023 379.37 278.889C379.306 278.725 379.242 278.563 379.181 278.399C379.122 278.269 379.081 278.131 379.06 277.99C379.024 277.652 379.274 277.611 379.514 277.775ZM381.412 287.605C381.545 287.489 381.689 287.386 381.843 287.3C382.196 287.062 382.481 286.721 382.875 286.565C382.978 286.519 383.092 286.5 383.204 286.512C383.26 286.518 383.314 286.539 383.36 286.572C383.405 286.605 383.442 286.649 383.466 286.7C383.483 286.776 383.481 286.854 383.461 286.929C383.441 287.004 383.404 287.073 383.351 287.13C383.079 287.491 382.749 287.804 382.373 288.055C382.205 288.199 382.005 288.301 381.79 288.351C381.696 288.372 381.599 288.361 381.512 288.32C381.426 288.279 381.355 288.211 381.312 288.125C381.269 288.04 381.255 287.942 381.273 287.848C381.291 287.754 381.34 287.668 381.412 287.605ZM374.858 292.789C375.171 293.183 375.371 293.656 375.434 294.156C375.468 294.264 375.474 294.378 375.452 294.489C375.431 294.599 375.381 294.702 375.309 294.789C375.202 294.86 375.071 294.887 374.945 294.865C374.818 294.843 374.704 294.774 374.626 294.672C374.475 294.464 374.36 294.232 374.285 293.985C374.183 293.787 374.102 293.579 374.045 293.363C373.952 292.857 374.418 292.284 374.858 292.789ZM379.817 298.271C379.942 298.328 380.053 298.411 380.144 298.513C380.327 298.699 380.504 298.894 380.673 299.095C380.774 299.194 380.844 299.321 380.875 299.459C380.877 299.638 380.818 299.813 380.708 299.954C380.635 300.069 380.535 300.2 380.401 300.188C380.351 300.178 380.302 300.159 380.259 300.131C380.156 300.08 380.062 300.012 379.982 299.931C379.914 299.849 379.86 299.757 379.821 299.658L379.403 298.757C379.27 298.453 379.466 298.132 379.817 298.271ZM389.972 297.389C390.017 297.413 390.055 297.45 390.082 297.495C390.108 297.54 390.122 297.591 390.121 297.643C390.121 297.695 390.106 297.746 390.079 297.791C390.052 297.835 390.013 297.871 389.967 297.895C389.88 297.93 389.786 297.94 389.694 297.924C389.601 297.908 389.515 297.867 389.445 297.805C389.004 297.463 389.694 297.251 389.972 297.389ZM365.234 299.421C365.367 299.53 365.462 299.678 365.507 299.844C365.599 300.119 365.653 300.406 365.668 300.695C365.68 300.76 365.676 300.826 365.656 300.888C365.636 300.951 365.6 301.007 365.551 301.051C365.481 301.08 365.404 301.084 365.331 301.061C365.259 301.038 365.197 300.991 365.157 300.927C365.054 300.782 364.978 300.619 364.934 300.446C364.868 300.241 364.485 298.907 365.234 299.421ZM365.623 287.856C365.737 287.721 365.87 287.602 366.017 287.504C366.233 287.343 366.459 287.196 366.683 287.048C366.842 286.911 367.049 286.842 367.259 286.858C367.526 286.929 367.654 287.245 367.64 287.523C367.62 287.761 367.562 287.994 367.468 288.214C367.378 288.485 367.243 288.738 367.07 288.965C366.896 289.194 366.639 289.345 366.355 289.387C365.514 289.48 365.157 288.458 365.623 287.856ZM358.472 298.325C358.66 298.24 358.855 298.17 359.054 298.115C359.166 298.056 359.297 298.041 359.42 298.071C359.585 298.142 359.599 298.382 359.492 298.535C359.371 298.67 359.212 298.766 359.036 298.808L358.622 298.96C358.047 299.159 358.039 298.57 358.472 298.325ZM381.664 292.36C381.716 292.378 381.764 292.408 381.803 292.447C381.905 292.525 381.991 292.622 382.055 292.733C382.086 292.788 382.106 292.849 382.113 292.913C382.119 292.976 382.112 293.04 382.093 293.101C382.085 293.124 382.072 293.145 382.055 293.162C382.035 293.176 382.012 293.186 381.988 293.19C381.963 293.195 381.938 293.194 381.915 293.187C381.817 293.169 381.724 293.134 381.638 293.084C381.591 293.06 381.547 293.032 381.506 292.999C381.354 292.869 381.279 292.541 381.465 292.404C381.494 292.383 381.526 292.369 381.56 292.361C381.594 292.353 381.629 292.353 381.664 292.36ZM386.867 291.03C386.959 291.035 387.048 291.059 387.13 291.1C387.231 291.139 387.331 291.183 387.428 291.233C387.44 291.237 387.451 291.246 387.458 291.257C387.471 291.287 387.442 291.316 387.408 291.328C387.304 291.365 387.193 291.374 387.085 291.354C387.01 291.349 386.938 291.324 386.876 291.282C386.807 291.227 386.719 291.046 386.867 291.03ZM389.797 294.571C389.754 294.616 389.701 294.651 389.642 294.671C389.612 294.68 389.579 294.679 389.55 294.668C389.521 294.657 389.496 294.636 389.48 294.609C389.465 294.571 389.465 294.529 389.477 294.49C389.518 294.352 389.582 294.223 389.667 294.107L389.801 293.901C389.913 293.728 390.024 293.558 390.147 293.393C390.199 293.326 390.32 293.2 390.403 293.299C390.487 293.398 390.426 293.539 390.401 293.63C390.341 293.86 390.233 294.075 390.083 294.26C389.996 294.372 389.901 294.475 389.797 294.571ZM393.382 296.744C393.431 296.869 393.45 297.003 393.438 297.136C393.43 297.202 393.405 297.265 393.364 297.318C393.323 297.371 393.268 297.411 393.205 297.434C393.164 297.448 393.119 297.448 393.077 297.434C393.036 297.419 393.001 297.391 392.977 297.354C392.954 297.286 392.957 297.21 392.986 297.144L393.052 296.898C393.071 296.829 393.096 296.762 393.129 296.698C393.225 296.547 393.338 296.606 393.382 296.744ZM391.139 301.257C391.225 301.251 391.312 301.254 391.399 301.266C391.611 301.25 391.825 301.258 392.036 301.289C392.091 301.301 392.142 301.328 392.183 301.368C392.203 301.388 392.218 301.412 392.227 301.439C392.235 301.466 392.236 301.495 392.23 301.523C392.215 301.559 392.191 301.59 392.161 301.615C392.13 301.639 392.095 301.656 392.056 301.663C391.838 301.725 391.61 301.749 391.384 301.733C391.273 301.741 391.162 301.72 391.061 301.673C391.015 301.654 390.977 301.62 390.953 301.576C390.93 301.533 390.922 301.482 390.931 301.433C390.94 301.384 390.965 301.34 391.003 301.308C391.041 301.276 391.089 301.258 391.139 301.257ZM386.943 301.314C386.946 301.568 386.879 301.818 386.749 302.036C386.696 302.135 386.618 302.243 386.506 302.25C386.441 302.245 386.381 302.216 386.337 302.169C386.293 302.121 386.269 302.059 386.269 301.994C386.272 301.865 386.296 301.737 386.342 301.616C386.36 301.505 386.389 301.395 386.429 301.29C386.559 301.072 386.921 300.984 386.943 301.314ZM387.248 305.036C387.281 305.096 387.3 305.164 387.305 305.233C387.32 305.363 387.33 305.502 387.339 305.626C387.35 305.697 387.339 305.769 387.307 305.833C387.254 305.906 387.177 305.958 387.089 305.98C387.027 306.006 386.946 306.026 386.897 305.981C386.88 305.962 386.866 305.94 386.857 305.915C386.833 305.863 386.816 305.807 386.807 305.749C386.806 305.696 386.812 305.643 386.826 305.591C386.869 305.429 386.912 305.269 386.938 305.095C386.964 304.92 387.148 304.869 387.248 305.036ZM391.572 307.792C391.582 307.816 391.586 307.842 391.583 307.868C391.579 307.894 391.569 307.918 391.552 307.939C391.536 307.959 391.515 307.975 391.49 307.984C391.466 307.994 391.439 307.996 391.414 307.991C391.369 307.978 391.328 307.953 391.297 307.919C391.265 307.885 391.244 307.842 391.235 307.796C391.16 307.526 391.5 307.651 391.572 307.792ZM381.075 301.024C381.096 301.109 381.089 301.2 381.054 301.281C381.007 301.42 380.941 301.551 380.857 301.671C380.821 301.727 380.769 301.784 380.703 301.776C380.637 301.769 380.586 301.685 380.583 301.607C380.59 301.518 380.613 301.431 380.652 301.35C380.679 301.238 380.932 300.588 381.075 301.024ZM384.752 296.516C384.839 296.496 384.93 296.489 385.02 296.496C385.153 296.497 385.28 296.505 385.423 296.517C385.476 296.514 385.529 296.521 385.579 296.539C385.629 296.556 385.675 296.583 385.714 296.619C385.75 296.679 385.764 296.75 385.755 296.82C385.745 296.889 385.712 296.954 385.661 297.002C385.581 297.091 385.487 297.166 385.383 297.225C385.264 297.305 385.133 297.365 384.995 297.402C384.855 297.44 384.706 297.423 384.579 297.354C384.221 297.135 384.391 296.617 384.752 296.516ZM375.646 302.361C375.69 302.342 375.739 302.34 375.784 302.356C375.81 302.368 375.833 302.385 375.851 302.406C375.869 302.427 375.883 302.452 375.89 302.479C375.917 302.573 375.911 302.672 375.875 302.762C375.837 302.85 375.79 302.933 375.735 303.011C375.701 303.058 375.67 303.107 375.639 303.154C375.609 303.199 375.577 303.242 375.544 303.284C375.484 303.356 375.41 303.415 375.326 303.457C375.266 303.486 375.183 303.503 375.138 303.454C375.126 303.436 375.118 303.416 375.114 303.395C375.111 303.374 375.111 303.353 375.116 303.332C375.173 303.151 375.253 302.978 375.353 302.817C375.426 302.636 375.431 302.44 375.646 302.361ZM378.702 298.511C378.804 298.537 378.904 298.57 379.002 298.61C379.063 298.622 379.119 298.655 379.161 298.703C379.168 298.724 379.171 298.746 379.17 298.768C379.168 298.791 379.162 298.812 379.151 298.832C379.141 298.852 379.126 298.869 379.109 298.883C379.091 298.897 379.071 298.907 379.049 298.912C378.963 298.927 378.875 298.917 378.794 298.883L378.584 298.827C378.286 298.731 378.467 298.477 378.702 298.511ZM377.932 295.507C377.959 295.49 377.99 295.482 378.022 295.484C378.083 295.501 378.112 295.579 378.083 295.637C378.048 295.692 377.997 295.733 377.936 295.756C377.867 295.787 377.535 295.959 377.488 295.82C377.441 295.681 377.848 295.545 377.932 295.507ZM393.657 281.549C393.795 281.618 393.916 281.716 394.013 281.836C394.261 282.087 394.458 282.383 394.596 282.708C394.663 282.871 394.695 283.047 394.69 283.223C394.685 283.4 394.644 283.573 394.568 283.733C394.54 283.792 394.497 283.844 394.444 283.883C394.384 283.916 394.316 283.936 394.248 283.939C394.179 283.943 394.11 283.932 394.047 283.906C393.789 283.818 393.547 283.688 393.33 283.522C393.209 283.441 393.098 283.345 392.999 283.238C392.631 282.829 392.54 281.905 393.105 281.601C393.187 281.552 393.279 281.521 393.375 281.512C393.47 281.503 393.567 281.516 393.657 281.549ZM408.36 279.793C408.61 279.831 408.848 279.922 409.06 280.06C409.324 280.203 409.58 280.359 409.828 280.529C409.858 280.547 409.883 280.574 409.899 280.606C409.926 280.692 409.824 280.759 409.739 280.781C409.443 280.847 409.135 280.834 408.845 280.744C408.644 280.701 408.456 280.607 408.302 280.47C408.127 280.299 407.95 279.765 408.36 279.793ZM415.112 290.521C414.981 290.63 414.826 290.705 414.659 290.74C414.574 290.755 414.487 290.741 414.41 290.701C414.334 290.66 414.274 290.595 414.239 290.516C414.211 290.406 414.223 290.289 414.272 290.186C414.433 289.824 414.656 289.492 414.931 289.207C415.077 289.036 415.222 288.864 415.371 288.693C415.747 288.268 416.104 287.837 416.5 287.417C416.666 287.248 417.038 286.95 417.234 287.248C417.394 287.493 417.207 287.914 417.114 288.155C416.862 288.772 416.482 289.327 416 289.786C415.724 290.055 415.427 290.301 415.112 290.521ZM404.877 307.962C404.798 308.658 404.53 309.319 404.102 309.873C403.921 310.127 403.671 310.394 403.359 310.374C403.003 310.349 402.784 309.943 402.803 309.588C402.859 309.235 402.973 308.894 403.141 308.578C403.235 308.282 403.361 307.997 403.516 307.729C403.925 307.144 404.939 307.036 404.877 307.962ZM388.937 305.043C388.963 305.28 388.912 305.52 388.791 305.725C388.615 306.087 388.389 306.423 388.12 306.722C387.997 306.857 387.834 306.995 387.655 306.955C387.477 306.915 387.368 306.657 387.39 306.447C387.431 306.204 387.516 305.97 387.64 305.757C387.779 305.486 388.703 303.799 388.937 305.043ZM400.644 294.045C400.889 294.024 401.136 294.037 401.377 294.084C401.745 294.14 402.111 294.217 402.477 294.292C402.621 294.302 402.762 294.341 402.892 294.407C403.021 294.473 403.136 294.564 403.23 294.675C403.439 294.994 403.239 295.443 402.954 295.704C402.702 295.918 402.417 296.09 402.111 296.215C401.757 296.39 401.377 296.508 400.986 296.563C400.589 296.612 400.19 296.505 399.871 296.265C398.932 295.534 399.59 294.176 400.644 294.045ZM383.371 297.325C383.642 297.428 383.903 297.554 384.153 297.701C384.322 297.752 384.466 297.863 384.558 298.014C384.571 298.074 384.571 298.137 384.559 298.197C384.546 298.257 384.521 298.314 384.485 298.364C384.449 298.414 384.403 298.456 384.35 298.487C384.297 298.518 384.238 298.537 384.177 298.544C383.925 298.554 383.676 298.488 383.464 298.353L382.917 298.091C382.144 297.731 382.714 297.133 383.371 297.325ZM382.294 288.81C382.379 288.769 382.474 288.758 382.566 288.777C382.737 288.823 382.775 289.073 382.676 289.22C382.562 289.357 382.405 289.451 382.231 289.488C382.03 289.552 381.069 289.905 380.982 289.503C380.897 289.144 382.069 288.889 382.294 288.81Z" fill="#FFDBAB" fill-opacity="0.4"/>
</g>
</g>
<path d="M341.986 296.708C335.22 291.468 340.396 273.409 353.547 256.372C366.698 239.335 382.844 229.772 389.61 235.011C396.376 240.251 391.2 258.31 378.049 275.347C364.898 292.384 348.752 301.948 341.986 296.708Z" fill="#FFDBAB" fill-opacity="0.4"/>
<path d="M384.139 266.461L378.038 275.353C375.691 278.072 373.341 280.789 370.988 283.504L364.182 274.92C365.84 272.771 367.498 270.623 369.157 268.476L374.141 262.027L384.139 266.461Z" fill="#FFDBAB" fill-opacity="0.4"/>
<path d="M366.606 266.489C363.858 270.051 362.779 273.823 364.193 274.917C365.607 276.012 368.98 274.015 371.728 270.454C374.476 266.893 375.555 263.121 374.141 262.026C372.727 260.932 369.353 262.931 366.606 266.489Z" fill="#FFDBAB" fill-opacity="0.4"/>
<path d="M348.275 251.032L332.161 238.548L330.94 240.129L347.054 252.613L348.275 251.032Z" fill="#FFDBAB" fill-opacity="0.4"/>
<path d="M336.314 267.216L336.76 265.268L319.515 261.32L319.068 263.268L336.314 267.216Z" fill="#FFDBAB" fill-opacity="0.4"/>
<path d="M359.673 236.946L351.514 221.224L349.744 222.147L357.903 237.869L359.673 236.946Z" fill="#FFDBAB" fill-opacity="0.4"/>
<path d="M411.633 294.921L412.317 294.051C408.282 290.885 404.483 287.427 400.951 283.705C396.532 279.044 392.547 273.988 389.047 268.599L388.111 269.209C391.649 274.655 395.677 279.765 400.144 284.476C403.715 288.232 407.555 291.723 411.633 294.921ZM399.536 277.17L400.407 276.475C398.489 274.052 396.849 271.42 395.517 268.63C394.33 266.145 393.395 263.546 392.726 260.874L391.645 261.145C393.101 266.989 395.788 272.452 399.526 277.168L399.536 277.17Z" fill="#FFDBAB" fill-opacity="0.4"/>
</g>
<path d="M400.57 157.151L400.472 157.207C400.341 157.249 400.198 157.237 400.076 157.174C399.954 157.111 399.861 157.002 399.819 156.871C399.327 155.254 399.201 153.548 399.45 151.876C399.698 150.204 400.316 148.608 401.257 147.205C403.103 144.498 405.854 142.539 409.015 141.679C409.041 137.028 411.916 132.459 416.24 130.664C418.701 129.663 421.432 129.544 423.97 130.327C424.65 128.443 425.913 126.825 427.576 125.709C429.847 124.132 432.6 123.449 434.748 123.023C434.879 123.007 435.012 123.04 435.119 123.118C435.226 123.195 435.299 123.31 435.325 123.44C435.35 123.57 435.324 123.704 435.254 123.816C435.184 123.928 435.073 124.008 434.946 124.042C432.771 124.471 430.27 125.1 428.167 126.557C426.686 127.552 425.561 128.995 424.958 130.674C427.218 131.546 429.144 133.111 430.46 135.145C430.793 135.594 430.966 136.142 430.951 136.701C430.927 136.928 430.857 137.148 430.745 137.346C430.632 137.545 430.48 137.717 430.297 137.854C429.683 138.295 428.92 138.477 428.173 138.361C425.548 137.981 423.493 135.284 423.576 132.36C423.59 132.033 423.627 131.707 423.687 131.385C421.382 130.653 418.894 130.739 416.645 131.63C412.848 133.211 410.222 137.308 410.074 141.435C411.653 141.141 413.596 141.134 415.148 142.253C415.643 142.634 416.046 143.12 416.329 143.676C416.612 144.232 416.768 144.845 416.784 145.469C416.813 145.946 416.728 146.423 416.538 146.862C416.347 147.3 416.056 147.688 415.688 147.992C414.522 148.914 412.622 148.84 411.3 147.775C410.265 146.963 409.592 145.67 409.242 143.965C409.16 143.565 409.101 143.161 409.064 142.754C406.239 143.575 403.787 145.352 402.129 147.783C401.282 149.06 400.725 150.507 400.497 152.022C400.269 153.538 400.375 155.085 400.808 156.555C400.847 156.666 400.844 156.788 400.8 156.897C400.756 157.007 400.675 157.097 400.57 157.151ZM410.082 142.478C410.107 142.904 410.163 143.328 410.248 143.746C410.532 145.218 411.116 146.29 411.94 146.952C412.764 147.614 414.139 147.879 415.022 147.171C415.267 146.966 415.46 146.705 415.585 146.41C415.71 146.116 415.763 145.796 415.741 145.477C415.73 145.013 415.617 144.558 415.408 144.144C415.199 143.729 414.901 143.367 414.534 143.083C413.217 142.134 411.475 142.195 410.082 142.478ZM424.676 131.726C424.64 131.944 424.618 132.165 424.61 132.386C424.529 134.765 426.211 137.032 428.291 137.331C428.758 137.402 429.234 137.297 429.627 137.035C429.698 136.985 429.758 136.92 429.802 136.845C429.847 136.769 429.874 136.685 429.884 136.598C429.869 136.273 429.753 135.96 429.553 135.702C428.378 133.904 426.674 132.514 424.676 131.726ZM368.067 123.149C367.959 123.205 367.834 123.221 367.715 123.195C367.597 123.168 367.491 123.101 367.417 123.004C366.399 121.655 365.694 120.097 365.352 118.442C365.01 116.787 365.041 115.077 365.441 113.435C366.243 110.258 368.153 107.471 370.827 105.576C369.244 101.198 370.381 95.9221 373.817 92.7443C375.775 90.9646 378.287 89.9141 380.93 89.7698C380.923 87.7682 381.555 85.8167 382.734 84.1994C384.319 81.9432 386.67 80.3481 388.541 79.2168C388.66 79.1478 388.802 79.1292 388.935 79.1648C389.068 79.2005 389.182 79.2876 389.251 79.407C389.32 79.5263 389.338 79.6681 389.303 79.8013C389.267 79.9344 389.18 80.0479 389.061 80.1168C387.166 81.2671 385.031 82.7262 383.564 84.8128C382.511 86.2527 381.948 87.9924 381.958 89.7761C384.381 89.8158 386.729 90.6221 388.665 92.0793C389.132 92.3874 389.482 92.8425 389.661 93.3724C389.716 93.5939 389.726 93.8244 389.688 94.0496C389.651 94.2748 389.567 94.4898 389.443 94.6813C389.018 95.3053 388.365 95.7373 387.624 95.8842C385.026 96.4333 382.171 94.6061 381.261 91.8143C381.158 91.5026 381.078 91.1837 381.021 90.8602C378.605 90.9607 376.298 91.8928 374.49 93.499C371.468 96.2851 370.41 101.04 371.693 104.969C373.098 104.157 374.9 103.474 376.739 103.992C377.332 104.177 377.876 104.492 378.332 104.914C378.788 105.336 379.145 105.855 379.376 106.432C379.567 106.87 379.652 107.348 379.623 107.825C379.595 108.303 379.455 108.767 379.213 109.18C378.427 110.466 376.629 111.028 375.017 110.471C373.779 110.053 372.689 109.086 371.772 107.606C371.557 107.258 371.361 106.899 371.185 106.53C368.816 108.274 367.127 110.788 366.409 113.64C366.053 115.131 366.027 116.682 366.335 118.184C366.643 119.685 367.275 121.101 368.189 122.332C368.273 122.441 368.311 122.578 368.294 122.715C368.278 122.851 368.209 122.976 368.101 123.062L368.067 123.149ZM372.09 105.979C372.261 106.367 372.459 106.743 372.682 107.103C373.468 108.376 374.376 109.194 375.378 109.538C376.38 109.881 377.757 109.647 378.344 108.674C378.499 108.398 378.587 108.089 378.601 107.772C378.615 107.455 378.554 107.14 378.423 106.851C378.254 106.419 377.991 106.031 377.652 105.714C377.314 105.397 376.909 105.16 376.466 105.02C374.926 104.597 373.301 105.235 372.09 105.979ZM382.073 90.8476C382.119 91.0644 382.176 91.2807 382.241 91.492C382.981 93.7536 385.344 95.2984 387.398 94.8655C387.862 94.7742 388.274 94.5119 388.553 94.1307C388.603 94.0586 388.637 93.9768 388.652 93.8907C388.668 93.8046 388.665 93.7161 388.644 93.6311C388.519 93.3306 388.301 93.0776 388.023 92.9085C386.301 91.6218 384.222 90.9017 382.073 90.8476Z" fill="#FFDBAB" fill-opacity="0.4"/>
<path d="M361.128 146.73L360.578 142.287L363.276 138.714C363.364 138.597 363.416 138.457 363.425 138.311C363.434 138.165 363.4 138.019 363.327 137.892C363.253 137.766 363.144 137.663 363.013 137.598C362.882 137.533 362.735 137.507 362.589 137.525L358.131 138.068L354.571 135.373C354.454 135.285 354.314 135.233 354.168 135.224C354.022 135.215 353.876 135.249 353.749 135.323C353.623 135.396 353.52 135.505 353.455 135.636C353.39 135.767 353.365 135.914 353.383 136.06L353.919 140.499L351.221 144.072C351.133 144.189 351.081 144.329 351.072 144.475C351.063 144.621 351.097 144.767 351.171 144.894C351.244 145.02 351.353 145.123 351.484 145.188C351.615 145.253 351.762 145.279 351.908 145.26L356.351 144.71L359.923 147.408C360.039 147.501 360.181 147.557 360.329 147.569C360.477 147.581 360.625 147.549 360.755 147.476C360.884 147.403 360.989 147.293 361.055 147.16C361.122 147.027 361.147 146.877 361.128 146.73Z" fill="#FFDBAB" fill-opacity="0.4"/>
<path d="M327.749 122.494L327.199 118.052L329.896 114.479C329.985 114.362 330.037 114.222 330.046 114.076C330.055 113.929 330.02 113.784 329.947 113.657C329.874 113.53 329.765 113.428 329.634 113.363C329.503 113.297 329.355 113.272 329.21 113.29L324.767 113.84L321.192 111.138C321.075 111.05 320.935 110.998 320.789 110.989C320.643 110.98 320.497 111.014 320.37 111.087C320.243 111.161 320.141 111.269 320.076 111.401C320.01 111.532 319.985 111.679 320.003 111.824L320.551 116.274L317.866 119.839C317.778 119.956 317.726 120.096 317.717 120.243C317.708 120.389 317.742 120.534 317.816 120.661C317.889 120.788 317.998 120.89 318.129 120.956C318.26 121.021 318.407 121.046 318.553 121.028L322.996 120.478L326.581 123.169C326.697 123.249 326.834 123.295 326.975 123.301C327.116 123.307 327.256 123.272 327.379 123.202C327.501 123.131 327.601 123.027 327.666 122.902C327.732 122.777 327.76 122.635 327.749 122.494Z" fill="#FFDBAB" fill-opacity="0.4"/>
<path d="M327.446 157.147L326.896 152.705L329.594 149.132C329.682 149.015 329.734 148.875 329.743 148.729C329.752 148.582 329.718 148.437 329.645 148.31C329.571 148.183 329.462 148.081 329.331 148.015C329.2 147.95 329.053 147.925 328.908 147.943L324.465 148.493L320.892 145.795C320.775 145.707 320.635 145.655 320.489 145.646C320.342 145.637 320.197 145.671 320.07 145.744C319.943 145.818 319.841 145.927 319.776 146.058C319.71 146.189 319.685 146.336 319.703 146.482L320.253 150.925L317.555 154.497C317.467 154.614 317.415 154.754 317.406 154.9C317.397 155.047 317.431 155.192 317.505 155.319C317.578 155.446 317.687 155.548 317.818 155.614C317.949 155.679 318.096 155.704 318.242 155.686L322.685 155.136L326.257 157.834C326.374 157.922 326.514 157.974 326.661 157.983C326.807 157.992 326.952 157.958 327.079 157.885C327.206 157.811 327.308 157.702 327.374 157.571C327.439 157.44 327.464 157.293 327.446 157.147Z" fill="#FFDBAB" fill-opacity="0.4"/>
<path d="M66.7307 93.14C66.7307 93.14 41.3836 87.8538 37.8019 92.903C34.2202 97.9523 44.7757 103.929 39.0385 107.578C33.3012 111.227 17.995 111.536 19.4081 106.249C20.8213 100.962 23.6938 95.9791 19.9864 94.5766C16.279 93.1741 3.71031 93.6572 -9.98148 99.579C-9.98148 99.579 -19.4248 69.8262 -12.4905 70.3768C-5.55623 70.9274 -2.53569 75.983 1.81843 69.8675C6.17254 63.7521 0.218078 47.9037 -6.33939 50.0475C-12.8969 52.1912 -17.559 56.4617 -18.7377 49.389C-19.9164 42.3164 -15.6575 23.4372 -15.6575 23.4372C-15.6575 23.4372 15.0378 28.2669 14.2192 23.7421C13.4006 19.2172 6.17721 11.9576 12.3894 9.11807C18.6016 6.27851 34.9738 4.74638 33.2502 13.0715C31.5266 21.3967 30.6772 28.3566 60.2454 17.4995C60.2454 17.4995 72.5263 40.9834 65.2603 46.6302C57.9943 52.277 57.1529 42.4471 51.3462 43.3746C45.5394 44.3021 44.3071 67.6909 57.1109 68.7094C62.3116 69.1224 65.0706 61.1399 68.3082 63.7318C71.5458 66.3236 70.2441 88.1027 66.7307 93.14Z" fill="#FFDBAB" fill-opacity="0.4"/>
<path d="M84.7621 82.8915C84.7621 82.8915 111.754 95.6837 113.845 91.2676C115.937 86.8515 109.826 77.9137 116.402 76.9079C122.978 75.9021 139.893 80.3659 135.457 87.4148C131.021 94.4637 124.308 100.243 161.212 96.9357C161.212 96.9357 154.99 68.2391 163.351 66.9673C171.711 65.6954 170.694 74.6636 177.394 70.339C184.094 66.0144 185.071 47.7442 175.273 49.6305C165.475 51.5168 164.982 47.0734 166.252 40.7622C167.523 34.4511 174.315 21.5753 174.315 21.5753C174.315 21.5753 154.559 7.7887 146.165 13.3177C137.77 18.8466 157.689 30.2352 135.761 28.5083C113.832 26.7814 127.698 15.8918 128.395 13.6894C129.092 11.4871 125.779 3.05665 98.0837 8.1506C98.0837 8.1506 103.825 33.4221 95.3881 37.5866C90.2259 40.132 85.3635 29.2978 81.824 30.1324C73.3902 32.0759 70.0574 58.4857 81.926 57.6501C91.7082 56.9578 93.3164 59.6755 93.2216 62.5752C93.1269 65.4749 84.7621 82.8915 84.7621 82.8915Z" fill="#FFDBAB" fill-opacity="0.4"/>
<path d="M48.2109 194L42.2513 234.295L30.4126 228.05L19.4079 255.569L21.8793 213.525L36.3092 218.954L48.2109 194Z" fill="#FFDBAB" fill-opacity="0.4"/>
<path d="M123.5 227.376L98.972 259.895L91.5717 248.746L68.7304 267.648L91.0282 231.916L101.093 243.585L123.5 227.376Z" fill="#FFDBAB" fill-opacity="0.4"/>
<defs>
<clipPath id="clip0_637_34">
<rect width="137.458" height="135.172" fill="white" transform="matrix(-0.965926 -0.258819 -0.258819 0.965926 463.76 250.577)"/>
</clipPath>
</defs>
</svg>
