<svg width="1575" height="195" viewBox="0 0 1575 195" fill="none" xmlns="http://www.w3.org/2000/svg">
<g clip-path="url(#clip0_442_1695)">
<path d="M1587.86 175.604C1594.31 180.597 1589.41 197.825 1576.84 214.065C1564.28 230.304 1548.91 239.425 1542.46 234.427L1504.75 205.238L1550.15 146.409L1587.86 175.604Z" fill="#FFDBAB" fill-opacity="0.4"/>
<path d="M1516.04 166.982C1503.5 183.229 1498.57 200.419 1505.02 205.443C1511.47 210.467 1526.86 201.322 1539.4 185.076C1551.94 168.829 1556.86 151.637 1550.42 146.615C1543.98 141.592 1528.57 150.741 1516.04 166.982Z" fill="#FFDBAB" fill-opacity="0.4"/>
<path d="M1515.8 112.894C1524.47 126.109 1534.62 138.291 1546.04 149.206C1551.67 153.565 1547.37 168.597 1536.43 182.776C1525.49 196.954 1512.05 204.911 1506.42 200.552C1473.78 180.306 1436.18 169.504 1397.77 169.34L1488.53 51.7568C1494.29 73.4721 1503.49 94.1146 1515.8 112.894Z" fill="#FFDBAB" fill-opacity="0.4"/>
<mask id="mask0_442_1695" style="mask-type:luminance" maskUnits="userSpaceOnUse" x="1397" y="51" width="152" height="151">
<path d="M1515.8 112.894C1524.47 126.109 1534.62 138.291 1546.04 149.206C1551.67 153.565 1547.37 168.597 1536.43 182.776C1525.49 196.954 1512.05 204.911 1506.42 200.552C1473.78 180.306 1436.18 169.504 1397.77 169.34L1488.53 51.7568C1494.29 73.4721 1503.49 94.1146 1515.8 112.894Z" fill="white"/>
</mask>
<g mask="url(#mask0_442_1695)">
<g style="mix-blend-mode:overlay">
<path d="M1426.18 160.097C1426.36 160.003 1426.56 159.95 1426.76 159.94C1427.15 159.888 1427.54 159.858 1427.92 159.843C1428.04 159.817 1428.16 159.816 1428.28 159.839C1428.4 159.863 1428.51 159.912 1428.61 159.981C1428.7 160.051 1428.78 160.14 1428.85 160.244C1428.91 160.347 1428.94 160.463 1428.96 160.582C1429.03 160.773 1429.09 161.009 1428.95 161.155C1428.9 161.207 1428.83 161.246 1428.76 161.269C1428.61 161.345 1428.44 161.393 1428.27 161.413C1428.12 161.417 1427.96 161.396 1427.81 161.353L1426.38 161.023C1425.89 160.909 1425.69 160.389 1426.18 160.097ZM1434.01 165.608C1434.48 165.496 1434.97 165.542 1435.4 165.739C1435.83 165.937 1436.24 166.184 1436.62 166.473C1436.8 166.593 1436.97 166.739 1437.11 166.907C1437.18 166.99 1437.24 167.088 1437.26 167.194C1437.29 167.3 1437.3 167.411 1437.28 167.519C1437.21 167.686 1437.1 167.829 1436.95 167.93C1436.8 168.03 1436.62 168.083 1436.45 168.08C1435.8 168.082 1435.18 167.871 1434.67 167.48C1434.23 167.198 1432.92 165.921 1434.01 165.608ZM1447.28 162.024C1447.3 161.939 1447.3 161.841 1447.3 161.745C1447.33 161.473 1447.38 161.148 1447.62 161.026C1447.74 160.984 1447.87 160.978 1447.98 161.01C1448.1 161.042 1448.21 161.11 1448.29 161.204C1448.35 161.261 1448.41 161.333 1448.44 161.413C1448.47 161.494 1448.48 161.581 1448.48 161.667C1448.44 161.889 1448.22 162.023 1448.09 162.208C1447.96 162.393 1447.86 162.728 1447.58 162.699C1447.29 162.671 1447.26 162.26 1447.28 162.024ZM1454.06 173.669C1454.13 173.59 1454.21 173.52 1454.3 173.46C1454.39 173.414 1454.48 173.388 1454.58 173.385C1454.68 173.381 1454.78 173.401 1454.87 173.442C1454.96 173.484 1455.04 173.546 1455.1 173.624C1455.17 173.702 1455.21 173.794 1455.23 173.892C1455.25 173.964 1455.25 174.039 1455.22 174.11C1455.17 174.321 1454.93 174.414 1454.73 174.488C1454.53 174.563 1454.05 174.742 1453.84 174.534C1453.63 174.327 1453.88 173.862 1454.06 173.669ZM1462.36 128.055C1462.82 128.334 1463.22 128.718 1463.5 129.177C1463.64 129.408 1463.72 129.674 1463.71 129.944C1463.71 130.215 1463.63 130.479 1463.49 130.708C1463.39 130.855 1463.24 130.964 1463.07 131.016C1462.9 131.068 1462.72 131.061 1462.55 130.995C1462.32 130.837 1462.15 130.601 1462.07 130.328C1461.94 129.993 1461.81 129.662 1461.68 129.328C1461.56 129.063 1461.48 128.782 1461.44 128.494C1461.36 127.804 1461.87 127.72 1462.36 128.055ZM1466.23 148.108C1466.51 147.871 1466.8 147.662 1467.11 147.485C1467.83 147.001 1468.42 146.304 1469.22 145.987C1469.43 145.892 1469.66 145.854 1469.89 145.878C1470.01 145.891 1470.11 145.934 1470.21 146.001C1470.3 146.068 1470.38 146.158 1470.43 146.262C1470.46 146.417 1470.46 146.577 1470.42 146.729C1470.37 146.882 1470.3 147.023 1470.19 147.139C1469.64 147.875 1468.96 148.513 1468.2 149.026C1467.85 149.32 1467.44 149.527 1467.01 149.63C1466.81 149.672 1466.62 149.65 1466.44 149.567C1466.26 149.483 1466.12 149.343 1466.03 149.169C1465.94 148.995 1465.91 148.796 1465.95 148.604C1465.99 148.412 1466.09 148.238 1466.23 148.108ZM1452.86 158.683C1453.5 159.487 1453.91 160.452 1454.04 161.473C1454.11 161.692 1454.12 161.925 1454.08 162.15C1454.03 162.375 1453.93 162.586 1453.79 162.763C1453.57 162.907 1453.3 162.963 1453.04 162.918C1452.78 162.874 1452.55 162.733 1452.39 162.524C1452.08 162.1 1451.85 161.626 1451.7 161.124C1451.49 160.719 1451.32 160.294 1451.21 159.854C1451.02 158.821 1451.97 157.653 1452.86 158.683ZM1462.98 169.865C1463.24 169.982 1463.46 170.151 1463.65 170.36C1464.02 170.74 1464.38 171.137 1464.73 171.546C1464.93 171.749 1465.08 172.007 1465.14 172.29C1465.14 172.655 1465.02 173.011 1464.8 173.299C1464.65 173.533 1464.44 173.8 1464.17 173.776C1464.07 173.757 1463.97 173.718 1463.88 173.66C1463.67 173.556 1463.48 173.418 1463.32 173.251C1463.18 173.085 1463.07 172.898 1462.99 172.696L1462.14 170.857C1461.86 170.237 1462.26 169.582 1462.98 169.865ZM1483.7 168.066C1483.79 168.117 1483.87 168.192 1483.92 168.283C1483.97 168.375 1484 168.479 1484 168.585C1484 168.691 1483.97 168.795 1483.91 168.886C1483.86 168.976 1483.78 169.05 1483.69 169.1C1483.51 169.17 1483.32 169.191 1483.13 169.158C1482.94 169.126 1482.76 169.042 1482.62 168.916C1481.72 168.219 1483.13 167.785 1483.7 168.066ZM1433.23 172.212C1433.5 172.435 1433.7 172.737 1433.79 173.075C1433.98 173.636 1434.09 174.22 1434.12 174.811C1434.14 174.943 1434.13 175.078 1434.09 175.205C1434.05 175.332 1433.98 175.447 1433.88 175.537C1433.74 175.596 1433.58 175.603 1433.43 175.557C1433.28 175.511 1433.16 175.414 1433.07 175.284C1432.86 174.987 1432.71 174.655 1432.62 174.303C1432.48 173.886 1431.7 171.164 1433.23 172.212ZM1434.03 148.621C1434.26 148.344 1434.53 148.102 1434.83 147.902C1435.27 147.575 1435.73 147.274 1436.19 146.972C1436.51 146.692 1436.94 146.552 1437.36 146.584C1437.91 146.73 1438.17 147.374 1438.14 147.941C1438.1 148.426 1437.98 148.902 1437.79 149.35C1437.61 149.902 1437.33 150.42 1436.98 150.882C1436.62 151.349 1436.1 151.658 1435.52 151.743C1433.8 151.932 1433.08 149.848 1434.03 148.621ZM1419.44 169.976C1419.82 169.804 1420.22 169.66 1420.62 169.548C1420.85 169.428 1421.12 169.396 1421.37 169.458C1421.71 169.602 1421.74 170.093 1421.52 170.405C1421.27 170.681 1420.95 170.875 1420.59 170.961L1419.75 171.272C1418.57 171.677 1418.56 170.475 1419.44 169.976ZM1466.75 157.807C1466.85 157.845 1466.95 157.906 1467.03 157.985C1467.24 158.144 1467.41 158.342 1467.55 158.569C1467.61 158.681 1467.65 158.806 1467.66 158.936C1467.68 159.065 1467.66 159.196 1467.62 159.319C1467.61 159.366 1467.58 159.409 1467.55 159.444C1467.51 159.473 1467.46 159.493 1467.41 159.502C1467.36 159.511 1467.31 159.509 1467.26 159.496C1467.06 159.458 1466.87 159.387 1466.69 159.285C1466.6 159.236 1466.51 159.178 1466.43 159.111C1466.12 158.846 1465.96 158.177 1466.34 157.897C1466.4 157.855 1466.47 157.826 1466.54 157.81C1466.61 157.795 1466.68 157.794 1466.75 157.807ZM1477.36 155.095C1477.55 155.105 1477.73 155.154 1477.9 155.238C1478.11 155.316 1478.31 155.407 1478.51 155.509C1478.53 155.518 1478.55 155.535 1478.57 155.557C1478.59 155.618 1478.54 155.678 1478.46 155.702C1478.25 155.778 1478.03 155.797 1477.81 155.756C1477.65 155.745 1477.51 155.695 1477.38 155.61C1477.24 155.497 1477.06 155.127 1477.36 155.095ZM1483.34 162.317C1483.25 162.411 1483.14 162.481 1483.02 162.522C1482.96 162.541 1482.9 162.538 1482.84 162.516C1482.78 162.493 1482.73 162.451 1482.69 162.396C1482.66 162.318 1482.66 162.232 1482.69 162.153C1482.77 161.872 1482.9 161.608 1483.07 161.371L1483.35 160.95C1483.58 160.598 1483.8 160.251 1484.05 159.916C1484.16 159.778 1484.41 159.521 1484.58 159.723C1484.75 159.924 1484.62 160.213 1484.57 160.398C1484.45 160.869 1484.23 161.307 1483.92 161.684C1483.75 161.911 1483.55 162.123 1483.34 162.317ZM1490.65 166.752C1490.75 167.005 1490.79 167.279 1490.77 167.55C1490.75 167.685 1490.7 167.814 1490.62 167.922C1490.53 168.029 1490.42 168.111 1490.29 168.158C1490.21 168.188 1490.12 168.187 1490.03 168.158C1489.95 168.129 1489.87 168.072 1489.83 167.996C1489.78 167.856 1489.79 167.702 1489.85 167.566L1489.98 167.065C1490.02 166.924 1490.07 166.787 1490.14 166.657C1490.33 166.349 1490.56 166.47 1490.65 166.752ZM1486.08 175.957C1486.25 175.945 1486.43 175.951 1486.61 175.975C1487.04 175.943 1487.48 175.959 1487.91 176.023C1488.02 176.047 1488.12 176.103 1488.21 176.184C1488.25 176.224 1488.28 176.274 1488.3 176.329C1488.31 176.384 1488.32 176.443 1488.3 176.5C1488.27 176.573 1488.22 176.637 1488.16 176.687C1488.1 176.737 1488.03 176.771 1487.95 176.786C1487.5 176.912 1487.04 176.96 1486.58 176.928C1486.35 176.944 1486.12 176.901 1485.92 176.805C1485.82 176.767 1485.75 176.698 1485.7 176.609C1485.65 176.52 1485.63 176.417 1485.65 176.317C1485.67 176.217 1485.72 176.127 1485.8 176.061C1485.88 175.996 1485.97 175.959 1486.08 175.957ZM1477.52 176.074C1477.52 176.591 1477.39 177.101 1477.12 177.546C1477.01 177.748 1476.85 177.968 1476.62 177.982C1476.49 177.973 1476.37 177.914 1476.28 177.817C1476.19 177.721 1476.14 177.593 1476.14 177.461C1476.15 177.198 1476.2 176.937 1476.29 176.69C1476.33 176.462 1476.39 176.239 1476.47 176.024C1476.73 175.579 1477.47 175.401 1477.52 176.074ZM1478.14 183.665C1478.21 183.789 1478.25 183.926 1478.26 184.067C1478.29 184.333 1478.31 184.618 1478.33 184.869C1478.35 185.014 1478.33 185.161 1478.26 185.292C1478.15 185.441 1477.99 185.547 1477.82 185.592C1477.69 185.644 1477.52 185.685 1477.42 185.594C1477.39 185.556 1477.36 185.51 1477.34 185.46C1477.29 185.352 1477.26 185.238 1477.24 185.121C1477.24 185.012 1477.25 184.903 1477.28 184.798C1477.37 184.468 1477.45 184.142 1477.51 183.786C1477.56 183.429 1477.94 183.326 1478.14 183.665ZM1486.96 189.288C1486.98 189.337 1486.99 189.39 1486.98 189.443C1486.97 189.496 1486.95 189.546 1486.92 189.588C1486.89 189.629 1486.84 189.661 1486.79 189.68C1486.74 189.699 1486.69 189.704 1486.64 189.695C1486.55 189.669 1486.46 189.617 1486.4 189.547C1486.33 189.477 1486.29 189.39 1486.27 189.296C1486.12 188.746 1486.81 189.001 1486.96 189.288ZM1465.55 175.481C1465.59 175.656 1465.58 175.841 1465.5 176.006C1465.41 176.289 1465.27 176.556 1465.1 176.801C1465.03 176.915 1464.92 177.032 1464.79 177.017C1464.65 177.002 1464.55 176.829 1464.54 176.672C1464.56 176.49 1464.6 176.311 1464.68 176.146C1464.74 175.919 1465.26 174.592 1465.55 175.481ZM1473.05 166.286C1473.23 166.244 1473.41 166.23 1473.59 166.245C1473.87 166.248 1474.12 166.264 1474.42 166.288C1474.53 166.282 1474.63 166.297 1474.73 166.332C1474.84 166.368 1474.93 166.423 1475.01 166.496C1475.08 166.619 1475.11 166.763 1475.09 166.905C1475.07 167.047 1475.01 167.178 1474.9 167.277C1474.74 167.458 1474.55 167.612 1474.34 167.732C1474.09 167.896 1473.83 168.018 1473.54 168.094C1473.26 168.171 1472.95 168.136 1472.7 167.996C1471.96 167.548 1472.31 166.492 1473.05 166.286ZM1454.47 178.21C1454.56 178.171 1454.66 178.167 1454.75 178.199C1454.81 178.223 1454.85 178.257 1454.89 178.301C1454.93 178.344 1454.96 178.395 1454.97 178.45C1455.02 178.641 1455.01 178.844 1454.94 179.027C1454.86 179.206 1454.77 179.377 1454.65 179.536C1454.58 179.63 1454.52 179.731 1454.46 179.827C1454.4 179.918 1454.33 180.007 1454.26 180.091C1454.14 180.24 1453.99 180.36 1453.82 180.445C1453.7 180.504 1453.53 180.539 1453.44 180.439C1453.41 180.403 1453.4 180.362 1453.39 180.319C1453.38 180.277 1453.38 180.233 1453.39 180.19C1453.51 179.821 1453.67 179.468 1453.88 179.139C1454.02 178.771 1454.03 178.371 1454.47 178.21ZM1460.71 170.356C1460.92 170.409 1461.12 170.476 1461.32 170.557C1461.44 170.582 1461.56 170.649 1461.64 170.746C1461.66 170.789 1461.66 170.835 1461.66 170.88C1461.66 170.926 1461.64 170.97 1461.62 171.01C1461.6 171.051 1461.57 171.086 1461.54 171.114C1461.5 171.142 1461.46 171.163 1461.41 171.174C1461.24 171.205 1461.06 171.185 1460.89 171.115L1460.46 171C1459.86 170.805 1460.23 170.287 1460.71 170.356ZM1459.14 164.228C1459.19 164.194 1459.25 164.177 1459.32 164.181C1459.44 164.214 1459.5 164.375 1459.44 164.494C1459.37 164.604 1459.27 164.689 1459.14 164.735C1459 164.8 1458.33 165.149 1458.23 164.866C1458.13 164.583 1458.96 164.306 1459.14 164.228ZM1491.21 135.754C1491.49 135.895 1491.74 136.095 1491.94 136.34C1492.44 136.852 1492.85 137.456 1493.13 138.119C1493.26 138.452 1493.33 138.81 1493.32 139.169C1493.31 139.529 1493.23 139.883 1493.07 140.208C1493.01 140.33 1492.93 140.436 1492.82 140.516C1492.7 140.584 1492.56 140.623 1492.42 140.631C1492.28 140.639 1492.14 140.615 1492.01 140.562C1491.48 140.382 1490.99 140.117 1490.55 139.779C1490.3 139.613 1490.07 139.419 1489.87 139.2C1489.12 138.366 1488.93 136.48 1490.09 135.86C1490.25 135.759 1490.44 135.698 1490.64 135.68C1490.83 135.661 1491.03 135.686 1491.21 135.754ZM1521.21 132.173C1521.72 132.25 1522.2 132.435 1522.64 132.717C1523.17 133.008 1523.7 133.327 1524.2 133.673C1524.26 133.71 1524.31 133.765 1524.35 133.83C1524.4 134.006 1524.19 134.143 1524.02 134.188C1523.42 134.322 1522.79 134.296 1522.2 134.113C1521.78 134.025 1521.4 133.832 1521.09 133.553C1520.73 133.205 1520.37 132.115 1521.21 132.173ZM1534.98 154.057C1534.71 154.278 1534.4 154.431 1534.06 154.503C1533.88 154.534 1533.7 154.506 1533.55 154.424C1533.39 154.341 1533.27 154.208 1533.2 154.047C1533.14 153.821 1533.17 153.583 1533.27 153.373C1533.6 152.634 1534.05 151.958 1534.61 151.376C1534.91 151.026 1535.21 150.676 1535.51 150.328C1536.28 149.46 1537 148.582 1537.81 147.724C1538.15 147.38 1538.91 146.773 1539.31 147.379C1539.63 147.88 1539.25 148.739 1539.06 149.23C1538.55 150.488 1537.78 151.622 1536.79 152.556C1536.23 153.106 1535.62 153.608 1534.98 154.057ZM1514.1 189.634C1513.94 191.054 1513.39 192.402 1512.52 193.533C1512.15 194.051 1511.64 194.596 1511 194.554C1510.28 194.505 1509.83 193.676 1509.87 192.951C1509.98 192.231 1510.22 191.535 1510.56 190.892C1510.75 190.288 1511.01 189.707 1511.33 189.159C1512.16 187.965 1514.23 187.746 1514.1 189.634ZM1481.58 183.681C1481.64 184.165 1481.53 184.653 1481.29 185.072C1480.93 185.811 1480.47 186.495 1479.92 187.105C1479.67 187.381 1479.33 187.663 1478.97 187.581C1478.61 187.5 1478.38 186.973 1478.43 186.545C1478.51 186.048 1478.69 185.571 1478.94 185.136C1479.22 184.583 1481.11 181.143 1481.58 183.681ZM1505.47 161.246C1505.97 161.203 1506.47 161.229 1506.96 161.324C1507.71 161.439 1508.46 161.596 1509.2 161.748C1509.5 161.77 1509.79 161.85 1510.05 161.984C1510.32 162.119 1510.55 162.304 1510.74 162.53C1511.17 163.181 1510.76 164.098 1510.18 164.629C1509.66 165.065 1509.08 165.417 1508.46 165.671C1507.74 166.03 1506.96 166.27 1506.16 166.382C1505.35 166.482 1504.54 166.264 1503.89 165.773C1501.97 164.283 1503.32 161.512 1505.47 161.246ZM1470.23 167.937C1470.78 168.147 1471.32 168.403 1471.83 168.702C1472.17 168.806 1472.46 169.034 1472.65 169.342C1472.68 169.465 1472.68 169.592 1472.65 169.715C1472.63 169.838 1472.58 169.954 1472.5 170.056C1472.43 170.158 1472.34 170.244 1472.23 170.307C1472.12 170.37 1472 170.409 1471.87 170.423C1471.36 170.444 1470.85 170.308 1470.42 170.033L1469.3 169.498C1467.73 168.764 1468.89 167.545 1470.23 167.937ZM1468.03 150.566C1468.21 150.483 1468.4 150.46 1468.59 150.5C1468.94 150.594 1469.02 151.103 1468.81 151.403C1468.58 151.682 1468.26 151.874 1467.91 151.949C1467.49 152.081 1465.53 152.801 1465.36 151.98C1465.18 151.247 1467.57 150.727 1468.03 150.566Z" fill="#FFDBAB" fill-opacity="0.4"/>
</g>
</g>
<path d="M1385.81 166.678C1372.01 155.989 1382.56 119.15 1409.39 84.3958C1436.22 49.6414 1469.16 30.1325 1482.96 40.8213C1496.76 51.5102 1486.2 88.3493 1459.37 123.104C1432.55 157.858 1399.61 177.367 1385.81 166.678Z" fill="#FFDBAB" fill-opacity="0.4"/>
<path d="M1471.8 104.976L1459.35 123.115C1454.56 128.661 1449.77 134.203 1444.97 139.743L1431.09 122.231C1434.47 117.847 1437.85 113.465 1441.23 109.086L1451.4 95.9298L1471.8 104.976Z" fill="#FFDBAB" fill-opacity="0.4"/>
<path d="M1436.03 105.034C1430.43 112.299 1428.23 119.993 1431.11 122.226C1433.99 124.459 1440.87 120.387 1446.48 113.122C1452.08 105.857 1454.29 98.1627 1451.4 95.9298C1448.52 93.6969 1441.64 97.7741 1436.03 105.034Z" fill="#FFDBAB" fill-opacity="0.4"/>
<path d="M1580.71 187.351C1581.42 187.541 1582.17 187.518 1582.87 187.283C1583.56 187.048 1584.17 186.613 1584.62 186.032C1584.92 185.645 1585.14 185.203 1585.27 184.731C1585.4 184.259 1585.43 183.766 1585.37 183.281C1585.31 182.796 1585.15 182.329 1584.91 181.905C1584.67 181.481 1584.34 181.109 1583.96 180.811L1568.37 168.742C1567.59 168.139 1566.6 167.871 1565.62 167.997C1564.64 168.123 1563.76 168.633 1563.15 169.415C1562.55 170.197 1562.28 171.186 1562.41 172.165C1562.53 173.145 1563.04 174.034 1563.82 174.637L1579.4 186.731C1579.79 187.021 1580.24 187.232 1580.71 187.351ZM1566.57 169.925C1566.8 169.986 1567.02 170.093 1567.21 170.241L1582.8 182.31C1582.99 182.458 1583.15 182.642 1583.27 182.852C1583.38 183.061 1583.46 183.292 1583.49 183.532C1583.52 183.769 1583.51 184.011 1583.44 184.242C1583.38 184.474 1583.27 184.69 1583.13 184.879C1582.98 185.069 1582.8 185.228 1582.59 185.348C1582.38 185.467 1582.15 185.544 1581.92 185.575C1581.68 185.606 1581.44 185.589 1581.21 185.526C1580.98 185.463 1580.76 185.355 1580.57 185.208L1564.96 173.123C1564.63 172.864 1564.4 172.498 1564.3 172.088C1564.21 171.678 1564.26 171.248 1564.45 170.872C1564.64 170.495 1564.95 170.195 1565.33 170.021C1565.71 169.848 1566.14 169.812 1566.55 169.92L1566.57 169.925ZM1576.29 198.524C1577.12 198.748 1578 198.677 1578.79 198.323C1579.57 197.968 1580.21 197.352 1580.59 196.58C1580.97 195.808 1581.07 194.927 1580.88 194.088C1580.69 193.248 1580.21 192.503 1579.53 191.978L1563.94 179.904C1563.16 179.301 1562.17 179.034 1561.19 179.16C1560.21 179.286 1559.33 179.797 1558.72 180.579C1558.12 181.36 1557.85 182.348 1557.98 183.327C1558.1 184.305 1558.61 185.194 1559.39 185.798L1574.97 197.893C1575.37 198.188 1575.81 198.403 1576.29 198.524ZM1562.13 181.084C1562.37 181.149 1562.58 181.259 1562.78 181.407L1578.37 193.482C1578.75 193.778 1579 194.213 1579.06 194.693C1579.12 195.173 1578.99 195.657 1578.69 196.039C1578.39 196.421 1577.96 196.671 1577.48 196.734C1577.24 196.767 1577 196.753 1576.77 196.691C1576.54 196.629 1576.33 196.521 1576.14 196.374L1560.54 184.298C1560.16 184.001 1559.92 183.566 1559.86 183.088C1559.8 182.609 1559.92 182.125 1560.22 181.741C1560.51 181.358 1560.95 181.108 1561.43 181.047C1561.67 181.012 1561.9 181.025 1562.13 181.084ZM1570.31 208.491C1571.14 208.715 1572.02 208.644 1572.8 208.289C1573.59 207.935 1574.23 207.319 1574.61 206.546C1574.99 205.774 1575.09 204.893 1574.9 204.054C1574.71 203.215 1574.23 202.47 1573.55 201.945L1557.96 189.871C1557.57 189.572 1557.13 189.352 1556.66 189.224C1556.19 189.097 1555.7 189.063 1555.21 189.125C1554.73 189.188 1554.26 189.345 1553.84 189.589C1553.42 189.832 1553.04 190.156 1552.75 190.543C1552.45 190.93 1552.23 191.373 1552.1 191.844C1551.97 192.316 1551.94 192.809 1552 193.294C1552.06 193.779 1552.22 194.247 1552.46 194.671C1552.7 195.095 1553.02 195.467 1553.41 195.765L1569 207.84C1569.39 208.141 1569.83 208.363 1570.31 208.491ZM1556.16 191.052C1556.39 191.117 1556.61 191.227 1556.8 191.375L1572.37 203.443C1572.56 203.587 1572.73 203.769 1572.86 203.978C1572.98 204.187 1573.06 204.42 1573.1 204.661C1573.13 204.903 1573.12 205.149 1573.06 205.385C1572.99 205.621 1572.88 205.843 1572.74 206.036C1572.59 206.229 1572.4 206.39 1572.19 206.51C1571.97 206.63 1571.74 206.706 1571.5 206.733C1571.26 206.761 1571.01 206.739 1570.78 206.67C1570.54 206.601 1570.33 206.485 1570.14 206.33L1554.55 194.261C1554.17 193.964 1553.92 193.528 1553.86 193.048C1553.8 192.568 1553.93 192.083 1554.22 191.699C1554.44 191.414 1554.74 191.2 1555.08 191.084C1555.42 190.968 1555.79 190.955 1556.14 191.047L1556.16 191.052Z" fill="#FFDBAB" fill-opacity="0.4"/>
<path d="M1398.64 73.502L1365.76 48.0353L1363.27 51.2603L1396.15 76.7269L1398.64 73.502Z" fill="#FFDBAB" fill-opacity="0.4"/>
<path d="M1374.24 106.516L1375.15 102.543L1339.97 94.4889L1339.06 98.4618L1374.24 106.516Z" fill="#FFDBAB" fill-opacity="0.4"/>
<path d="M1421.89 44.7671L1405.24 12.6951L1401.63 14.5782L1418.28 46.6502L1421.89 44.7671Z" fill="#FFDBAB" fill-opacity="0.4"/>
<path d="M1527.88 163.033L1529.28 161.259C1521.05 154.8 1513.3 147.746 1506.09 140.154C1497.08 130.646 1488.95 120.331 1481.81 109.338L1479.9 110.583C1487.12 121.692 1495.33 132.116 1504.45 141.726C1511.73 149.388 1519.56 156.509 1527.88 163.033ZM1503.2 126.823L1504.98 125.405C1501.07 120.462 1497.72 115.094 1495.01 109.401C1492.59 104.332 1490.68 99.0316 1489.31 93.5797L1487.11 94.1324C1490.08 106.054 1495.56 117.199 1503.18 126.818L1503.2 126.823Z" fill="#FFDBAB" fill-opacity="0.4"/>
</g>
<path d="M64.3467 82L52.1895 164.198L28.0394 151.46L5.59044 207.595L10.632 121.829L40.0679 132.905L64.3467 82Z" fill="#FFDBAB" fill-opacity="0.4"/>
<path d="M217.931 150.085L167.896 216.421L152.799 193.677L106.205 232.237L151.691 159.347L172.222 183.149L217.931 150.085Z" fill="#FFDBAB" fill-opacity="0.4"/>
<path d="M493.22 247.692C493.22 247.692 441.514 236.908 434.208 247.208C426.901 257.508 448.434 269.7 436.73 277.143C425.027 284.587 393.803 285.218 396.686 274.433C399.569 263.648 405.428 253.483 397.865 250.622C390.303 247.761 364.663 248.747 336.733 260.827C336.733 260.827 317.469 200.133 331.615 201.256C345.76 202.38 351.922 212.693 360.804 200.218C369.686 187.742 357.539 155.413 344.163 159.786C330.786 164.159 321.275 172.871 318.871 158.443C316.466 144.015 325.154 105.503 325.154 105.503C325.154 105.503 387.771 115.355 386.101 106.125C384.431 96.8945 369.696 82.0855 382.368 76.293C395.04 70.5005 428.439 67.375 424.923 84.3578C421.407 101.34 419.674 115.538 479.991 93.3905C479.991 93.3905 505.043 141.296 490.221 152.815C475.399 164.334 473.683 144.282 461.837 146.174C449.992 148.066 447.478 195.777 473.597 197.855C484.206 198.698 489.834 182.414 496.438 187.701C503.043 192.988 500.388 237.416 493.22 247.692Z" fill="#FFDBAB" fill-opacity="0.4"/>
<path d="M530.004 226.785C530.004 226.785 585.065 252.88 589.332 243.872C593.598 234.863 581.133 216.631 594.547 214.579C607.962 212.527 642.466 221.633 633.417 236.012C624.369 250.392 610.675 262.182 685.956 255.435C685.956 255.435 673.265 196.895 690.319 194.301C707.374 191.707 705.3 210.001 718.967 201.179C732.633 192.357 734.627 155.087 714.64 158.935C694.653 162.783 693.647 153.719 696.238 140.845C698.829 127.97 712.686 101.705 712.686 101.705C712.686 101.705 672.384 73.5809 655.26 84.8596C638.136 96.1383 678.77 119.37 634.037 115.847C589.305 112.325 617.589 90.1106 619.012 85.618C620.434 81.1254 613.676 63.9279 557.179 74.3192C557.179 74.3192 568.891 125.871 551.68 134.367C541.15 139.559 531.23 117.458 524.01 119.161C506.806 123.125 500.007 176.999 524.218 175.295C544.173 173.882 547.454 179.426 547.261 185.341C547.067 191.257 530.004 226.785 530.004 226.785Z" fill="#FFDBAB" fill-opacity="0.4"/>
<path d="M1089.39 207.988L1089.19 208.103C1088.92 208.188 1088.63 208.164 1088.38 208.035C1088.13 207.907 1087.94 207.684 1087.86 207.417C1086.85 204.118 1086.6 200.637 1087.1 197.227C1087.61 193.817 1088.87 190.562 1090.79 187.698C1094.56 182.177 1100.17 178.18 1106.61 176.426C1106.67 166.938 1112.53 157.617 1121.35 153.956C1126.37 151.915 1131.94 151.672 1137.12 153.269C1138.51 149.425 1141.09 146.125 1144.48 143.849C1149.11 140.632 1154.73 139.238 1159.11 138.37C1159.38 138.336 1159.65 138.404 1159.87 138.562C1160.08 138.72 1160.23 138.955 1160.28 139.22C1160.34 139.484 1160.28 139.758 1160.14 139.986C1160 140.214 1159.77 140.379 1159.51 140.447C1155.08 141.323 1149.97 142.605 1145.68 145.578C1142.66 147.608 1140.37 150.551 1139.14 153.977C1143.75 155.756 1147.68 158.948 1150.36 163.097C1151.04 164.013 1151.39 165.131 1151.36 166.272C1151.31 166.734 1151.17 167.182 1150.94 167.587C1150.71 167.992 1150.4 168.345 1150.03 168.623C1148.78 169.523 1147.22 169.895 1145.7 169.658C1140.34 168.882 1136.15 163.381 1136.32 157.417C1136.35 156.749 1136.42 156.084 1136.54 155.427C1131.84 153.933 1126.77 154.11 1122.18 155.927C1114.43 159.151 1109.08 167.51 1108.78 175.929C1112 175.328 1115.96 175.314 1119.13 177.597C1120.14 178.373 1120.96 179.365 1121.54 180.5C1122.11 181.635 1122.43 182.884 1122.46 184.157C1122.52 185.131 1122.35 186.104 1121.96 186.998C1121.57 187.893 1120.98 188.683 1120.23 189.305C1117.85 191.186 1113.97 191.033 1111.28 188.861C1109.17 187.204 1107.79 184.567 1107.08 181.089C1106.91 180.273 1106.79 179.449 1106.71 178.62C1100.95 180.293 1095.95 183.92 1092.57 188.877C1090.84 191.483 1089.7 194.435 1089.24 197.526C1088.77 200.617 1088.99 203.773 1089.87 206.771C1089.95 206.999 1089.95 207.247 1089.86 207.471C1089.77 207.694 1089.6 207.878 1089.39 207.988ZM1108.79 178.056C1108.84 178.925 1108.96 179.79 1109.13 180.643C1109.71 183.646 1110.9 185.832 1112.58 187.183C1114.26 188.534 1117.07 189.073 1118.87 187.63C1119.37 187.21 1119.76 186.678 1120.02 186.078C1120.27 185.477 1120.38 184.824 1120.34 184.173C1120.31 183.227 1120.08 182.298 1119.66 181.454C1119.23 180.609 1118.62 179.87 1117.87 179.289C1115.19 177.354 1111.63 177.478 1108.79 178.056ZM1138.56 156.122C1138.49 156.568 1138.44 157.018 1138.43 157.469C1138.26 162.322 1141.69 166.946 1145.94 167.556C1146.89 167.702 1147.86 167.487 1148.66 166.953C1148.81 166.851 1148.93 166.718 1149.02 166.564C1149.11 166.411 1149.17 166.239 1149.19 166.062C1149.16 165.397 1148.92 164.759 1148.51 164.234C1146.11 160.565 1142.64 157.731 1138.56 156.122ZM1023.08 138.627C1022.86 138.741 1022.61 138.773 1022.37 138.719C1022.12 138.665 1021.91 138.527 1021.76 138.33C1019.68 135.579 1018.24 132.4 1017.55 129.024C1016.85 125.648 1016.91 122.159 1017.73 118.81C1019.36 112.329 1023.26 106.644 1028.71 102.779C1025.49 93.8468 1027.81 83.085 1034.81 76.6027C1038.81 72.9722 1043.93 70.8292 1049.32 70.5348C1049.31 66.4517 1050.6 62.4709 1053 59.1716C1056.24 54.5691 1061.03 51.3153 1064.85 49.0074C1065.09 48.8668 1065.38 48.8287 1065.65 48.9015C1065.93 48.9743 1066.16 49.1519 1066.3 49.3954C1066.44 49.6389 1066.48 49.9282 1066.4 50.1997C1066.33 50.4713 1066.15 50.7028 1065.91 50.8434C1062.05 53.19 1057.69 56.1664 1054.7 60.423C1052.55 63.3603 1051.4 66.9091 1051.42 70.5477C1056.36 70.6287 1061.15 72.2735 1065.1 75.2461C1066.05 75.8746 1066.77 76.803 1067.13 77.884C1067.25 78.3357 1067.27 78.8059 1067.19 79.2653C1067.11 79.7247 1066.94 80.1633 1066.69 80.554C1065.82 81.827 1064.49 82.7082 1062.98 83.0078C1057.68 84.1278 1051.86 80.4005 1050 74.7056C1049.79 74.0697 1049.63 73.4191 1049.51 72.7591C1044.58 72.9641 1039.87 74.8657 1036.19 78.1421C1030.02 83.8256 1027.86 93.5249 1030.48 101.54C1033.35 99.8846 1037.02 98.4902 1040.77 99.5464C1041.98 99.9248 1043.09 100.568 1044.02 101.429C1044.95 102.29 1045.68 103.347 1046.15 104.524C1046.54 105.418 1046.72 106.392 1046.66 107.367C1046.6 108.341 1046.31 109.288 1045.82 110.13C1044.22 112.753 1040.55 113.901 1037.26 112.763C1034.74 111.911 1032.51 109.939 1030.64 106.92C1030.2 106.21 1029.8 105.477 1029.44 104.724C1024.61 108.281 1021.17 113.41 1019.7 119.229C1018.98 122.27 1018.92 125.434 1019.55 128.497C1020.18 131.56 1021.47 134.448 1023.33 136.959C1023.5 137.181 1023.58 137.462 1023.55 137.74C1023.51 138.019 1023.37 138.273 1023.15 138.448L1023.08 138.627ZM1031.29 103.601C1031.64 104.393 1032.04 105.159 1032.5 105.894C1034.1 108.491 1035.95 110.158 1038 110.86C1040.04 111.561 1042.85 111.084 1044.05 109.099C1044.36 108.535 1044.54 107.904 1044.57 107.258C1044.6 106.612 1044.48 105.969 1044.21 105.379C1043.87 104.499 1043.33 103.706 1042.64 103.06C1041.95 102.414 1041.12 101.93 1040.22 101.645C1037.08 100.781 1033.76 102.082 1031.29 103.601ZM1051.65 72.7335C1051.75 73.1759 1051.86 73.6169 1052 74.0479C1053.51 78.6616 1058.33 81.8129 1062.52 80.9297C1063.46 80.7435 1064.31 80.2085 1064.87 79.4309C1064.98 79.2838 1065.04 79.1169 1065.08 78.9412C1065.11 78.7655 1065.1 78.585 1065.06 78.4117C1064.8 77.7987 1064.36 77.2826 1063.79 76.9376C1060.28 74.3128 1056.04 72.8438 1051.65 72.7335Z" fill="#FFDBAB" fill-opacity="0.4"/>
<path d="M1008.93 186.73L1007.81 177.666L1013.31 170.378C1013.49 170.14 1013.6 169.854 1013.61 169.556C1013.63 169.257 1013.56 168.96 1013.41 168.702C1013.26 168.443 1013.04 168.234 1012.77 168.101C1012.51 167.968 1012.21 167.917 1011.91 167.953L1002.81 169.059L995.554 163.563C995.315 163.383 995.029 163.277 994.731 163.259C994.433 163.24 994.136 163.31 993.877 163.46C993.619 163.609 993.41 163.831 993.277 164.099C993.143 164.366 993.092 164.667 993.129 164.963L994.224 174.019L988.72 181.307C988.54 181.546 988.434 181.832 988.416 182.13C988.397 182.428 988.467 182.725 988.617 182.984C988.766 183.243 988.988 183.451 989.256 183.585C989.523 183.718 989.824 183.769 990.12 183.732L999.184 182.61L1006.47 188.114C1006.71 188.303 1007 188.417 1007.3 188.442C1007.6 188.467 1007.9 188.4 1008.17 188.251C1008.43 188.103 1008.65 187.878 1008.78 187.607C1008.92 187.336 1008.97 187.03 1008.93 186.73Z" fill="#FFDBAB" fill-opacity="0.4"/>
<path d="M940.837 137.292L939.715 128.228L945.218 120.94C945.398 120.702 945.504 120.416 945.523 120.118C945.541 119.819 945.471 119.522 945.322 119.264C945.173 119.005 944.95 118.796 944.683 118.663C944.416 118.53 944.115 118.479 943.818 118.515L934.755 119.637L927.462 114.125C927.224 113.945 926.938 113.839 926.639 113.821C926.341 113.802 926.044 113.872 925.786 114.022C925.527 114.171 925.318 114.393 925.185 114.661C925.052 114.928 925 115.229 925.037 115.525L926.155 124.602L920.678 131.875C920.498 132.114 920.392 132.4 920.374 132.698C920.355 132.996 920.425 133.293 920.574 133.552C920.724 133.81 920.946 134.019 921.214 134.153C921.481 134.286 921.782 134.337 922.078 134.3L931.141 133.178L938.455 138.667C938.692 138.831 938.971 138.925 939.259 138.937C939.547 138.949 939.833 138.878 940.082 138.734C940.332 138.59 940.536 138.378 940.669 138.122C940.803 137.867 940.861 137.579 940.837 137.292Z" fill="#FFDBAB" fill-opacity="0.4"/>
<path d="M940.219 207.981L939.098 198.918L944.601 191.63C944.781 191.392 944.887 191.106 944.905 190.807C944.924 190.509 944.854 190.212 944.705 189.954C944.555 189.695 944.333 189.486 944.065 189.353C943.798 189.22 943.497 189.168 943.201 189.205L934.138 190.327L926.849 184.824C926.611 184.644 926.325 184.538 926.027 184.519C925.729 184.501 925.432 184.571 925.173 184.72C924.914 184.869 924.705 185.092 924.572 185.359C924.439 185.627 924.388 185.927 924.425 186.224L925.547 195.287L920.043 202.575C919.863 202.813 919.757 203.1 919.739 203.398C919.72 203.696 919.79 203.993 919.94 204.252C920.089 204.51 920.311 204.719 920.579 204.852C920.846 204.985 921.147 205.037 921.443 205L930.507 203.878L937.795 209.381C938.033 209.561 938.319 209.667 938.617 209.686C938.915 209.704 939.212 209.634 939.471 209.485C939.73 209.336 939.939 209.113 940.072 208.846C940.205 208.579 940.256 208.278 940.219 207.981Z" fill="#FFDBAB" fill-opacity="0.4"/>
<defs>
<clipPath id="clip0_442_1695">
<rect width="280.406" height="275.741" fill="white" transform="matrix(-0.965926 -0.258819 -0.258819 0.965926 1634.22 72.5742)"/>
</clipPath>
</defs>
</svg>
