<svg width="898" height="714" viewBox="0 0 898 714" fill="none" xmlns="http://www.w3.org/2000/svg">
<path d="M86.3406 479.917H83.2383V483.019H86.3406V479.917Z" fill="#5412A0"/>
<path d="M98.6062 479.917H95.5039V483.019H98.6062V479.917Z" fill="#5412A0"/>
<path d="M110.87 479.917H107.768V483.019H110.87V479.917Z" fill="#5412A0"/>
<path d="M123.136 479.917H120.033V483.019H123.136V479.917Z" fill="#5412A0"/>
<path d="M135.403 479.917H132.301V483.019H135.403V479.917Z" fill="#5412A0"/>
<path d="M147.669 479.917H144.566V483.019H147.669V479.917Z" fill="#5412A0"/>
<path d="M159.934 479.917H156.832V483.019H159.934V479.917Z" fill="#5412A0"/>
<path d="M172.202 479.917H169.1V483.019H172.202V479.917Z" fill="#5412A0"/>
<path d="M184.468 479.917H181.365V483.019H184.468V479.917Z" fill="#5412A0"/>
<path d="M196.731 479.917H193.629V483.019H196.731V479.917Z" fill="#5412A0"/>
<path d="M209.001 479.917H205.898V483.019H209.001V479.917Z" fill="#5412A0"/>
<path d="M221.264 479.917H218.162V483.019H221.264V479.917Z" fill="#5412A0"/>
<path d="M233.53 479.917H230.428V483.019H233.53V479.917Z" fill="#5412A0"/>
<path d="M245.798 479.917H242.695V483.019H245.798V479.917Z" fill="#5412A0"/>
<path d="M86.3406 492.387H83.2383V495.489H86.3406V492.387Z" fill="#5412A0"/>
<path d="M98.6062 492.387H95.5039V495.489H98.6062V492.387Z" fill="#5412A0"/>
<path d="M110.87 492.387H107.768V495.489H110.87V492.387Z" fill="#5412A0"/>
<path d="M123.136 492.387H120.033V495.489H123.136V492.387Z" fill="#5412A0"/>
<path d="M135.403 492.387H132.301V495.489H135.403V492.387Z" fill="#5412A0"/>
<path d="M147.669 492.387H144.566V495.489H147.669V492.387Z" fill="#5412A0"/>
<path d="M159.934 492.387H156.832V495.489H159.934V492.387Z" fill="#5412A0"/>
<path d="M172.202 492.387H169.1V495.489H172.202V492.387Z" fill="#5412A0"/>
<path d="M184.468 492.387H181.365V495.489H184.468V492.387Z" fill="#5412A0"/>
<path d="M196.731 492.387H193.629V495.489H196.731V492.387Z" fill="#5412A0"/>
<path d="M209.001 492.387H205.898V495.489H209.001V492.387Z" fill="#5412A0"/>
<path d="M221.264 492.387H218.162V495.489H221.264V492.387Z" fill="#5412A0"/>
<path d="M233.53 492.387H230.428V495.489H233.53V492.387Z" fill="#5412A0"/>
<path d="M245.798 492.387H242.695V495.489H245.798V492.387Z" fill="#5412A0"/>
<path d="M86.3406 504.859H83.2383V507.961H86.3406V504.859Z" fill="#5412A0"/>
<path d="M98.6062 504.859H95.5039V507.961H98.6062V504.859Z" fill="#5412A0"/>
<path d="M110.87 504.859H107.768V507.961H110.87V504.859Z" fill="#5412A0"/>
<path d="M123.139 504.859H120.037V507.961H123.139V504.859Z" fill="#5412A0"/>
<path d="M135.403 504.859H132.301V507.961H135.403V504.859Z" fill="#5412A0"/>
<path d="M147.669 504.859H144.566V507.961H147.669V504.859Z" fill="#5412A0"/>
<path d="M159.936 504.859H156.834V507.961H159.936V504.859Z" fill="#5412A0"/>
<path d="M172.202 504.859H169.1V507.961H172.202V504.859Z" fill="#5412A0"/>
<path d="M184.468 504.859H181.365V507.961H184.468V504.859Z" fill="#5412A0"/>
<path d="M196.735 504.859H193.633V507.961H196.735V504.859Z" fill="#5412A0"/>
<path d="M209.001 504.859H205.898V507.961H209.001V504.859Z" fill="#5412A0"/>
<path d="M221.268 504.859H218.166V507.961H221.268V504.859Z" fill="#5412A0"/>
<path d="M233.534 504.859H230.432V507.961H233.534V504.859Z" fill="#5412A0"/>
<path d="M245.798 504.859H242.695V507.961H245.798V504.859Z" fill="#5412A0"/>
<path d="M86.3406 517.329H83.2383V520.431H86.3406V517.329Z" fill="#5412A0"/>
<path d="M98.6062 517.329H95.5039V520.431H98.6062V517.329Z" fill="#5412A0"/>
<path d="M110.87 517.329H107.768V520.431H110.87V517.329Z" fill="#5412A0"/>
<path d="M123.139 517.329H120.037V520.431H123.139V517.329Z" fill="#5412A0"/>
<path d="M135.403 517.329H132.301V520.431H135.403V517.329Z" fill="#5412A0"/>
<path d="M147.669 517.329H144.566V520.431H147.669V517.329Z" fill="#5412A0"/>
<path d="M159.936 517.329H156.834V520.431H159.936V517.329Z" fill="#5412A0"/>
<path d="M172.202 517.329H169.1V520.431H172.202V517.329Z" fill="#5412A0"/>
<path d="M184.468 517.329H181.365V520.431H184.468V517.329Z" fill="#5412A0"/>
<path d="M196.735 517.329H193.633V520.431H196.735V517.329Z" fill="#5412A0"/>
<path d="M209.001 517.329H205.898V520.431H209.001V517.329Z" fill="#5412A0"/>
<path d="M221.268 517.329H218.166V520.431H221.268V517.329Z" fill="#5412A0"/>
<path d="M233.534 517.329H230.432V520.431H233.534V517.329Z" fill="#5412A0"/>
<path d="M245.798 517.329H242.695V520.431H245.798V517.329Z" fill="#5412A0"/>
<path d="M86.3406 529.801H83.2383V532.903H86.3406V529.801Z" fill="#5412A0"/>
<path d="M98.6062 529.801H95.5039V532.903H98.6062V529.801Z" fill="#5412A0"/>
<path d="M110.87 529.801H107.768V532.903H110.87V529.801Z" fill="#5412A0"/>
<path d="M123.139 529.801H120.037V532.903H123.139V529.801Z" fill="#5412A0"/>
<path d="M135.403 529.801H132.301V532.903H135.403V529.801Z" fill="#5412A0"/>
<path d="M147.669 529.801H144.566V532.903H147.669V529.801Z" fill="#5412A0"/>
<path d="M159.936 529.801H156.834V532.903H159.936V529.801Z" fill="#5412A0"/>
<path d="M172.202 529.801H169.1V532.903H172.202V529.801Z" fill="#5412A0"/>
<path d="M184.468 529.801H181.365V532.903H184.468V529.801Z" fill="#5412A0"/>
<path d="M196.735 529.801H193.633V532.903H196.735V529.801Z" fill="#5412A0"/>
<path d="M209.001 529.801H205.898V532.903H209.001V529.801Z" fill="#5412A0"/>
<path d="M221.268 529.801H218.166V532.903H221.268V529.801Z" fill="#5412A0"/>
<path d="M233.534 529.801H230.432V532.903H233.534V529.801Z" fill="#5412A0"/>
<path d="M245.798 529.801H242.695V532.903H245.798V529.801Z" fill="#5412A0"/>
<path d="M86.3406 542.271H83.2383V545.373H86.3406V542.271Z" fill="#5412A0"/>
<path d="M98.6062 542.271H95.5039V545.373H98.6062V542.271Z" fill="#5412A0"/>
<path d="M110.87 542.271H107.768V545.373H110.87V542.271Z" fill="#5412A0"/>
<path d="M123.139 542.271H120.037V545.373H123.139V542.271Z" fill="#5412A0"/>
<path d="M135.403 542.271H132.301V545.373H135.403V542.271Z" fill="#5412A0"/>
<path d="M147.669 542.271H144.566V545.373H147.669V542.271Z" fill="#5412A0"/>
<path d="M159.936 542.271H156.834V545.373H159.936V542.271Z" fill="#5412A0"/>
<path d="M172.202 542.271H169.1V545.373H172.202V542.271Z" fill="#5412A0"/>
<path d="M184.468 542.271H181.365V545.373H184.468V542.271Z" fill="#5412A0"/>
<path d="M196.735 542.271H193.633V545.373H196.735V542.271Z" fill="#5412A0"/>
<path d="M209.001 542.271H205.898V545.373H209.001V542.271Z" fill="#5412A0"/>
<path d="M221.268 542.271H218.166V545.373H221.268V542.271Z" fill="#5412A0"/>
<path d="M233.534 542.271H230.432V545.373H233.534V542.271Z" fill="#5412A0"/>
<path d="M245.798 542.271H242.695V545.373H245.798V542.271Z" fill="#5412A0"/>
<path d="M86.3406 554.742H83.2383V557.845H86.3406V554.742Z" fill="#5412A0"/>
<path d="M98.6062 554.742H95.5039V557.845H98.6062V554.742Z" fill="#5412A0"/>
<path d="M110.87 554.742H107.768V557.845H110.87V554.742Z" fill="#5412A0"/>
<path d="M123.139 554.742H120.037V557.845H123.139V554.742Z" fill="#5412A0"/>
<path d="M135.403 554.742H132.301V557.845H135.403V554.742Z" fill="#5412A0"/>
<path d="M147.669 554.742H144.566V557.845H147.669V554.742Z" fill="#5412A0"/>
<path d="M159.936 554.742H156.834V557.845H159.936V554.742Z" fill="#5412A0"/>
<path d="M172.202 554.742H169.1V557.845H172.202V554.742Z" fill="#5412A0"/>
<path d="M184.468 554.742H181.365V557.845H184.468V554.742Z" fill="#5412A0"/>
<path d="M196.735 554.742H193.633V557.845H196.735V554.742Z" fill="#5412A0"/>
<path d="M209.001 554.742H205.898V557.845H209.001V554.742Z" fill="#5412A0"/>
<path d="M221.268 554.742H218.166V557.845H221.268V554.742Z" fill="#5412A0"/>
<path d="M233.534 554.742H230.432V557.845H233.534V554.742Z" fill="#5412A0"/>
<path d="M245.798 554.742H242.695V557.845H245.798V554.742Z" fill="#5412A0"/>
<path d="M158.73 229.337C158.396 229.337 158.062 229.199 157.821 228.935C157.366 228.432 157.405 227.655 157.907 227.2L168.447 217.659C168.94 217.213 169.701 217.24 170.159 217.724L178.385 226.361L187.172 217.695C187.642 217.235 188.391 217.227 188.871 217.674L198.303 226.475L208.921 217.627C209.386 217.24 210.059 217.249 210.513 217.643L221.144 226.913C221.655 227.359 221.707 228.132 221.262 228.642C220.816 229.158 220.043 229.208 219.531 228.762L209.688 220.18L199.044 229.049C198.566 229.447 197.873 229.426 197.422 229.005L188.059 220.267L179.222 228.983C178.986 229.212 178.615 229.333 178.342 229.335C178.011 229.33 177.699 229.194 177.472 228.955L169.211 220.282L159.558 229.019C159.319 229.232 159.024 229.337 158.73 229.337ZM158.73 212.079C158.396 212.079 158.062 211.942 157.821 211.678C157.366 211.174 157.405 210.398 157.907 209.943L168.447 200.402C168.94 199.956 169.701 199.983 170.159 200.466L178.385 209.104L187.172 200.438C187.642 199.977 188.391 199.97 188.871 200.416L198.303 209.218L208.921 200.37C209.386 199.983 210.059 199.991 210.513 200.386L221.144 209.655C221.655 210.102 221.707 210.875 221.262 211.385C220.816 211.901 220.043 211.951 219.531 211.505L209.688 202.922L199.044 211.792C198.566 212.19 197.873 212.169 197.422 211.746L188.059 203.008L179.222 211.724C178.986 211.953 178.615 212.074 178.342 212.076C178.011 212.071 177.699 211.935 177.472 211.696L169.211 203.022L159.558 211.76C159.319 211.974 159.024 212.079 158.73 212.079ZM158.73 194.822C158.396 194.822 158.062 194.685 157.821 194.42C157.366 193.917 157.405 193.141 157.907 192.685L168.447 183.145C168.94 182.698 169.701 182.725 170.159 183.209L178.385 191.846L187.172 183.18C187.642 182.72 188.391 182.713 188.871 183.159L198.303 191.961L208.921 183.112C209.386 182.725 210.059 182.734 210.513 183.129L221.144 192.398C221.655 192.844 221.707 193.617 221.262 194.128C220.816 194.644 220.043 194.694 219.531 194.247L209.688 185.665L199.044 194.535C198.566 194.933 197.873 194.911 197.422 194.488L188.059 185.751L179.222 194.467C178.986 194.695 178.615 194.817 178.342 194.818C178.011 194.813 177.699 194.677 177.472 194.438L169.211 185.765L159.558 194.503C159.319 194.717 159.024 194.822 158.73 194.822Z" fill="#BB4FED"/>
<path d="M357.089 537.085C356.755 537.085 356.422 536.948 356.181 536.683C355.726 536.18 355.765 535.404 356.266 534.948L366.807 525.408C367.301 524.961 368.06 524.988 368.519 525.472L376.744 534.109L385.532 525.443C386.001 524.983 386.751 524.976 387.231 525.422L396.663 534.224L407.28 525.375C407.746 524.988 408.419 524.997 408.872 525.392L419.504 534.661C420.014 535.107 420.066 535.88 419.621 536.391C419.175 536.907 418.402 536.957 417.89 536.51L408.047 527.928L397.404 536.798C396.925 537.196 396.233 537.174 395.781 536.753L386.419 528.015L377.581 536.732C377.345 536.96 376.974 537.081 376.701 537.083C376.371 537.078 376.058 536.942 375.832 536.703L367.571 528.03L357.918 536.767C357.678 536.98 357.384 537.085 357.089 537.085ZM357.089 519.829C356.755 519.829 356.422 519.692 356.181 519.428C355.726 518.924 355.765 518.148 356.266 517.693L366.807 508.152C367.301 507.706 368.06 507.733 368.519 508.216L376.744 516.854L385.532 508.188C386.001 507.727 386.751 507.72 387.231 508.166L396.663 516.968L407.28 508.12C407.746 507.733 408.419 507.741 408.872 508.136L419.504 517.405C420.014 517.852 420.066 518.625 419.621 519.135C419.175 519.651 418.402 519.701 417.89 519.255L408.047 510.672L397.404 519.542C396.925 519.94 396.233 519.919 395.781 519.496L386.419 510.758L377.581 519.474C377.345 519.703 376.974 519.824 376.701 519.826C376.371 519.821 376.058 519.685 375.832 519.446L367.571 510.772L357.918 519.51C357.678 519.724 357.384 519.829 357.089 519.829ZM357.089 502.572C356.755 502.572 356.422 502.435 356.181 502.17C355.726 501.667 355.765 500.891 356.266 500.435L366.807 490.895C367.301 490.448 368.06 490.475 368.519 490.959L376.744 499.596L385.532 490.93C386.001 490.47 386.751 490.463 387.231 490.909L396.663 499.711L407.28 490.863C407.746 490.475 408.419 490.484 408.872 490.879L419.504 500.148C420.014 500.594 420.066 501.367 419.621 501.878C419.175 502.394 418.402 502.444 417.89 501.997L408.047 493.415L397.404 502.285C396.925 502.683 396.233 502.661 395.781 502.238L386.419 493.501L377.581 502.217C377.345 502.445 376.974 502.567 376.701 502.569C376.371 502.563 376.058 502.428 375.832 502.188L367.571 493.515L357.918 502.253C357.678 502.467 357.384 502.572 357.089 502.572Z" fill="#BB4FED"/>
<path d="M311.478 512.441H297.735V498.699H290.559V512.441H276.816V519.617H290.559V533.36H297.735V519.617H311.478V512.441Z" fill="#D3F992"/>
<path d="M281.15 162.928H267.409V149.187H260.231V162.928H246.49V170.105H260.231V183.846H267.409V170.105H281.15V162.928Z" fill="#D3F992"/>
<path d="M441.642 339.761H427.901V326.018H420.723V339.761H406.982V346.936H420.723V360.679H427.901V346.936H441.642V339.761Z" fill="#D3F992"/>
<path d="M604.86 387.27H596.567V378.977H592.235V387.27H583.941V391.6H592.235V399.895H596.567V391.6H604.86V387.27Z" fill="#D3F992"/>
<path d="M675.431 418.6H659.259V402.428H650.814V418.6H634.641V427.047H650.814V443.219H659.259V427.047H675.431V418.6Z" fill="#D3F992"/>
<path d="M557.925 517.893C538.612 517.893 522.896 502.177 522.896 482.864C522.896 463.55 538.612 447.835 557.925 447.835C558.418 447.835 558.818 448.235 558.818 448.727V465.676C558.818 466.169 558.418 466.569 557.925 466.569C548.94 466.569 541.63 473.878 541.63 482.864C541.63 491.849 548.94 499.159 557.925 499.159C558.418 499.159 558.818 499.559 558.818 500.052V517C558.818 517.493 558.42 517.893 557.925 517.893ZM557.033 449.631C539.113 450.105 524.681 464.832 524.681 482.862C524.681 500.892 539.113 515.62 557.033 516.093V500.921C547.476 500.453 539.845 492.531 539.845 482.862C539.845 473.193 547.476 465.271 557.033 464.803V449.631Z" fill="black"/>
<path d="M315.619 233.535H313.232V235.922H315.619V233.535Z" fill="#5412A0"/>
<path d="M325.053 233.535H322.666V235.922H325.053V233.535Z" fill="#5412A0"/>
<path d="M334.49 233.535H332.104V235.922H334.49V233.535Z" fill="#5412A0"/>
<path d="M343.924 233.535H341.537V235.922H343.924V233.535Z" fill="#5412A0"/>
<path d="M353.361 233.535H350.975V235.922H353.361V233.535Z" fill="#5412A0"/>
<path d="M362.797 233.535H360.41V235.922H362.797V233.535Z" fill="#5412A0"/>
<path d="M372.234 233.535H369.848V235.922H372.234V233.535Z" fill="#5412A0"/>
<path d="M381.668 233.535H379.281V235.922H381.668V233.535Z" fill="#5412A0"/>
<path d="M391.101 233.535H388.715V235.922H391.101V233.535Z" fill="#5412A0"/>
<path d="M400.539 233.535H398.152V235.922H400.539V233.535Z" fill="#5412A0"/>
<path d="M409.972 233.535H407.586V235.922H409.972V233.535Z" fill="#5412A0"/>
<path d="M419.41 233.535H417.023V235.922H419.41V233.535Z" fill="#5412A0"/>
<path d="M428.844 233.535H426.457V235.922H428.844V233.535Z" fill="#5412A0"/>
<path d="M438.281 233.535H435.895V235.922H438.281V233.535Z" fill="#5412A0"/>
<path d="M315.619 243.128H313.232V245.514H315.619V243.128Z" fill="#5412A0"/>
<path d="M325.053 243.128H322.666V245.514H325.053V243.128Z" fill="#5412A0"/>
<path d="M334.49 243.128H332.104V245.514H334.49V243.128Z" fill="#5412A0"/>
<path d="M343.924 243.128H341.537V245.514H343.924V243.128Z" fill="#5412A0"/>
<path d="M353.361 243.128H350.975V245.514H353.361V243.128Z" fill="#5412A0"/>
<path d="M362.797 243.128H360.41V245.514H362.797V243.128Z" fill="#5412A0"/>
<path d="M372.234 243.128H369.848V245.514H372.234V243.128Z" fill="#5412A0"/>
<path d="M381.668 243.128H379.281V245.514H381.668V243.128Z" fill="#5412A0"/>
<path d="M391.101 243.128H388.715V245.514H391.101V243.128Z" fill="#5412A0"/>
<path d="M400.539 243.128H398.152V245.514H400.539V243.128Z" fill="#5412A0"/>
<path d="M409.972 243.128H407.586V245.514H409.972V243.128Z" fill="#5412A0"/>
<path d="M419.41 243.128H417.023V245.514H419.41V243.128Z" fill="#5412A0"/>
<path d="M428.844 243.128H426.457V245.514H428.844V243.128Z" fill="#5412A0"/>
<path d="M438.281 243.128H435.895V245.514H438.281V243.128Z" fill="#5412A0"/>
<path d="M315.619 252.722H313.232V255.109H315.619V252.722Z" fill="#5412A0"/>
<path d="M325.053 252.722H322.666V255.109H325.053V252.722Z" fill="#5412A0"/>
<path d="M334.49 252.722H332.104V255.109H334.49V252.722Z" fill="#5412A0"/>
<path d="M343.924 252.722H341.537V255.109H343.924V252.722Z" fill="#5412A0"/>
<path d="M353.361 252.722H350.975V255.109H353.361V252.722Z" fill="#5412A0"/>
<path d="M362.797 252.722H360.41V255.109H362.797V252.722Z" fill="#5412A0"/>
<path d="M372.234 252.722H369.848V255.109H372.234V252.722Z" fill="#5412A0"/>
<path d="M381.668 252.722H379.281V255.109H381.668V252.722Z" fill="#5412A0"/>
<path d="M391.101 252.722H388.715V255.109H391.101V252.722Z" fill="#5412A0"/>
<path d="M400.539 252.722H398.152V255.109H400.539V252.722Z" fill="#5412A0"/>
<path d="M409.972 252.722H407.586V255.109H409.972V252.722Z" fill="#5412A0"/>
<path d="M419.41 252.722H417.023V255.109H419.41V252.722Z" fill="#5412A0"/>
<path d="M428.844 252.722H426.457V255.109H428.844V252.722Z" fill="#5412A0"/>
<path d="M438.281 252.722H435.895V255.109H438.281V252.722Z" fill="#5412A0"/>
<path d="M315.619 262.315H313.232V264.701H315.619V262.315Z" fill="#5412A0"/>
<path d="M325.053 262.315H322.666V264.701H325.053V262.315Z" fill="#5412A0"/>
<path d="M334.49 262.315H332.104V264.701H334.49V262.315Z" fill="#5412A0"/>
<path d="M343.924 262.315H341.537V264.701H343.924V262.315Z" fill="#5412A0"/>
<path d="M353.361 262.315H350.975V264.701H353.361V262.315Z" fill="#5412A0"/>
<path d="M362.797 262.315H360.41V264.701H362.797V262.315Z" fill="#5412A0"/>
<path d="M372.234 262.315H369.848V264.701H372.234V262.315Z" fill="#5412A0"/>
<path d="M381.668 262.315H379.281V264.701H381.668V262.315Z" fill="#5412A0"/>
<path d="M391.101 262.315H388.715V264.701H391.101V262.315Z" fill="#5412A0"/>
<path d="M400.539 262.315H398.152V264.701H400.539V262.315Z" fill="#5412A0"/>
<path d="M409.972 262.315H407.586V264.701H409.972V262.315Z" fill="#5412A0"/>
<path d="M419.41 262.315H417.023V264.701H419.41V262.315Z" fill="#5412A0"/>
<path d="M428.844 262.315H426.457V264.701H428.844V262.315Z" fill="#5412A0"/>
<path d="M438.281 262.315H435.895V264.701H438.281V262.315Z" fill="#5412A0"/>
<path d="M315.619 271.908H313.232V274.294H315.619V271.908Z" fill="#5412A0"/>
<path d="M325.053 271.908H322.666V274.294H325.053V271.908Z" fill="#5412A0"/>
<path d="M334.49 271.908H332.104V274.294H334.49V271.908Z" fill="#5412A0"/>
<path d="M343.924 271.908H341.537V274.294H343.924V271.908Z" fill="#5412A0"/>
<path d="M353.361 271.908H350.975V274.294H353.361V271.908Z" fill="#5412A0"/>
<path d="M362.797 271.908H360.41V274.294H362.797V271.908Z" fill="#5412A0"/>
<path d="M372.234 271.908H369.848V274.294H372.234V271.908Z" fill="#5412A0"/>
<path d="M381.668 271.908H379.281V274.294H381.668V271.908Z" fill="#5412A0"/>
<path d="M391.101 271.908H388.715V274.294H391.101V271.908Z" fill="#5412A0"/>
<path d="M400.539 271.908H398.152V274.294H400.539V271.908Z" fill="#5412A0"/>
<path d="M409.972 271.908H407.586V274.294H409.972V271.908Z" fill="#5412A0"/>
<path d="M419.41 271.908H417.023V274.294H419.41V271.908Z" fill="#5412A0"/>
<path d="M428.844 271.908H426.457V274.294H428.844V271.908Z" fill="#5412A0"/>
<path d="M438.281 271.908H435.895V274.294H438.281V271.908Z" fill="#5412A0"/>
<path d="M315.619 281.5H313.232V283.887H315.619V281.5Z" fill="#5412A0"/>
<path d="M325.053 281.5H322.666V283.887H325.053V281.5Z" fill="#5412A0"/>
<path d="M334.49 281.5H332.104V283.887H334.49V281.5Z" fill="#5412A0"/>
<path d="M343.924 281.5H341.537V283.887H343.924V281.5Z" fill="#5412A0"/>
<path d="M353.361 281.5H350.975V283.887H353.361V281.5Z" fill="#5412A0"/>
<path d="M362.797 281.5H360.41V283.887H362.797V281.5Z" fill="#5412A0"/>
<path d="M372.234 281.5H369.848V283.887H372.234V281.5Z" fill="#5412A0"/>
<path d="M381.668 281.5H379.281V283.887H381.668V281.5Z" fill="#5412A0"/>
<path d="M391.101 281.5H388.715V283.887H391.101V281.5Z" fill="#5412A0"/>
<path d="M400.539 281.5H398.152V283.887H400.539V281.5Z" fill="#5412A0"/>
<path d="M409.972 281.5H407.586V283.887H409.972V281.5Z" fill="#5412A0"/>
<path d="M419.41 281.5H417.023V283.887H419.41V281.5Z" fill="#5412A0"/>
<path d="M428.844 281.5H426.457V283.887H428.844V281.5Z" fill="#5412A0"/>
<path d="M438.281 281.5H435.895V283.887H438.281V281.5Z" fill="#5412A0"/>
<path d="M315.619 291.094H313.232V293.481H315.619V291.094Z" fill="#5412A0"/>
<path d="M325.053 291.094H322.666V293.481H325.053V291.094Z" fill="#5412A0"/>
<path d="M334.49 291.094H332.104V293.481H334.49V291.094Z" fill="#5412A0"/>
<path d="M343.924 291.094H341.537V293.481H343.924V291.094Z" fill="#5412A0"/>
<path d="M353.361 291.094H350.975V293.481H353.361V291.094Z" fill="#5412A0"/>
<path d="M362.797 291.094H360.41V293.481H362.797V291.094Z" fill="#5412A0"/>
<path d="M372.234 291.094H369.848V293.481H372.234V291.094Z" fill="#5412A0"/>
<path d="M381.668 291.094H379.281V293.481H381.668V291.094Z" fill="#5412A0"/>
<path d="M391.101 291.094H388.715V293.481H391.101V291.094Z" fill="#5412A0"/>
<path d="M400.539 291.094H398.152V293.481H400.539V291.094Z" fill="#5412A0"/>
<path d="M409.972 291.094H407.586V293.481H409.972V291.094Z" fill="#5412A0"/>
<path d="M419.41 291.094H417.023V293.481H419.41V291.094Z" fill="#5412A0"/>
<path d="M428.844 291.094H426.457V293.481H428.844V291.094Z" fill="#5412A0"/>
<path d="M438.281 291.094H435.895V293.481H438.281V291.094Z" fill="#5412A0"/>
<path d="M315.619 165.323H313.232V167.71H315.619V165.323Z" fill="#5412A0"/>
<path d="M325.053 165.323H322.666V167.71H325.053V165.323Z" fill="#5412A0"/>
<path d="M334.49 165.323H332.104V167.71H334.49V165.323Z" fill="#5412A0"/>
<path d="M343.924 165.323H341.537V167.71H343.924V165.323Z" fill="#5412A0"/>
<path d="M353.361 165.323H350.975V167.71H353.361V165.323Z" fill="#5412A0"/>
<path d="M362.797 165.323H360.41V167.71H362.797V165.323Z" fill="#5412A0"/>
<path d="M372.234 165.323H369.848V167.71H372.234V165.323Z" fill="#5412A0"/>
<path d="M381.668 165.323H379.281V167.71H381.668V165.323Z" fill="#5412A0"/>
<path d="M391.101 165.323H388.715V167.71H391.101V165.323Z" fill="#5412A0"/>
<path d="M400.539 165.323H398.152V167.71H400.539V165.323Z" fill="#5412A0"/>
<path d="M409.972 165.323H407.586V167.71H409.972V165.323Z" fill="#5412A0"/>
<path d="M419.41 165.323H417.023V167.71H419.41V165.323Z" fill="#5412A0"/>
<path d="M428.844 165.323H426.457V167.71H428.844V165.323Z" fill="#5412A0"/>
<path d="M438.281 165.323H435.895V167.71H438.281V165.323Z" fill="#5412A0"/>
<path d="M315.619 174.916H313.232V177.302H315.619V174.916Z" fill="#5412A0"/>
<path d="M325.053 174.916H322.666V177.302H325.053V174.916Z" fill="#5412A0"/>
<path d="M334.49 174.916H332.104V177.302H334.49V174.916Z" fill="#5412A0"/>
<path d="M343.924 174.916H341.537V177.302H343.924V174.916Z" fill="#5412A0"/>
<path d="M353.361 174.916H350.975V177.302H353.361V174.916Z" fill="#5412A0"/>
<path d="M362.797 174.916H360.41V177.302H362.797V174.916Z" fill="#5412A0"/>
<path d="M372.234 174.916H369.848V177.302H372.234V174.916Z" fill="#5412A0"/>
<path d="M381.668 174.916H379.281V177.302H381.668V174.916Z" fill="#5412A0"/>
<path d="M391.101 174.916H388.715V177.302H391.101V174.916Z" fill="#5412A0"/>
<path d="M400.539 174.916H398.152V177.302H400.539V174.916Z" fill="#5412A0"/>
<path d="M409.972 174.916H407.586V177.302H409.972V174.916Z" fill="#5412A0"/>
<path d="M419.41 174.916H417.023V177.302H419.41V174.916Z" fill="#5412A0"/>
<path d="M428.844 174.916H426.457V177.302H428.844V174.916Z" fill="#5412A0"/>
<path d="M438.281 174.916H435.895V177.302H438.281V174.916Z" fill="#5412A0"/>
<path d="M315.619 184.509H313.232V186.895H315.619V184.509Z" fill="#5412A0"/>
<path d="M325.053 184.509H322.666V186.895H325.053V184.509Z" fill="#5412A0"/>
<path d="M334.49 184.509H332.104V186.895H334.49V184.509Z" fill="#5412A0"/>
<path d="M343.924 184.509H341.537V186.895H343.924V184.509Z" fill="#5412A0"/>
<path d="M353.361 184.509H350.975V186.895H353.361V184.509Z" fill="#5412A0"/>
<path d="M362.797 184.509H360.41V186.895H362.797V184.509Z" fill="#5412A0"/>
<path d="M372.234 184.509H369.848V186.895H372.234V184.509Z" fill="#5412A0"/>
<path d="M381.668 184.509H379.281V186.895H381.668V184.509Z" fill="#5412A0"/>
<path d="M391.101 184.509H388.715V186.895H391.101V184.509Z" fill="#5412A0"/>
<path d="M400.539 184.509H398.152V186.895H400.539V184.509Z" fill="#5412A0"/>
<path d="M409.972 184.509H407.586V186.895H409.972V184.509Z" fill="#5412A0"/>
<path d="M419.41 184.509H417.023V186.895H419.41V184.509Z" fill="#5412A0"/>
<path d="M428.844 184.509H426.457V186.895H428.844V184.509Z" fill="#5412A0"/>
<path d="M438.281 184.509H435.895V186.895H438.281V184.509Z" fill="#5412A0"/>
<path d="M315.619 194.103H313.232V196.49H315.619V194.103Z" fill="#5412A0"/>
<path d="M325.053 194.103H322.666V196.49H325.053V194.103Z" fill="#5412A0"/>
<path d="M334.49 194.103H332.104V196.49H334.49V194.103Z" fill="#5412A0"/>
<path d="M343.924 194.103H341.537V196.49H343.924V194.103Z" fill="#5412A0"/>
<path d="M353.361 194.103H350.975V196.49H353.361V194.103Z" fill="#5412A0"/>
<path d="M362.797 194.103H360.41V196.49H362.797V194.103Z" fill="#5412A0"/>
<path d="M372.234 194.103H369.848V196.49H372.234V194.103Z" fill="#5412A0"/>
<path d="M381.668 194.103H379.281V196.49H381.668V194.103Z" fill="#5412A0"/>
<path d="M391.101 194.103H388.715V196.49H391.101V194.103Z" fill="#5412A0"/>
<path d="M400.539 194.103H398.152V196.49H400.539V194.103Z" fill="#5412A0"/>
<path d="M409.972 194.103H407.586V196.49H409.972V194.103Z" fill="#5412A0"/>
<path d="M419.41 194.103H417.023V196.49H419.41V194.103Z" fill="#5412A0"/>
<path d="M428.844 194.103H426.457V196.49H428.844V194.103Z" fill="#5412A0"/>
<path d="M438.281 194.103H435.895V196.49H438.281V194.103Z" fill="#5412A0"/>
<path d="M315.619 203.695H313.232V206.082H315.619V203.695Z" fill="#5412A0"/>
<path d="M325.053 203.695H322.666V206.082H325.053V203.695Z" fill="#5412A0"/>
<path d="M334.49 203.695H332.104V206.082H334.49V203.695Z" fill="#5412A0"/>
<path d="M343.924 203.695H341.537V206.082H343.924V203.695Z" fill="#5412A0"/>
<path d="M353.361 203.695H350.975V206.082H353.361V203.695Z" fill="#5412A0"/>
<path d="M362.797 203.695H360.41V206.082H362.797V203.695Z" fill="#5412A0"/>
<path d="M372.234 203.695H369.848V206.082H372.234V203.695Z" fill="#5412A0"/>
<path d="M381.668 203.695H379.281V206.082H381.668V203.695Z" fill="#5412A0"/>
<path d="M391.101 203.695H388.715V206.082H391.101V203.695Z" fill="#5412A0"/>
<path d="M400.539 203.695H398.152V206.082H400.539V203.695Z" fill="#5412A0"/>
<path d="M409.972 203.695H407.586V206.082H409.972V203.695Z" fill="#5412A0"/>
<path d="M419.41 203.695H417.023V206.082H419.41V203.695Z" fill="#5412A0"/>
<path d="M428.844 203.695H426.457V206.082H428.844V203.695Z" fill="#5412A0"/>
<path d="M438.281 203.695H435.895V206.082H438.281V203.695Z" fill="#5412A0"/>
<path d="M315.619 213.288H313.232V215.675H315.619V213.288Z" fill="#5412A0"/>
<path d="M325.053 213.288H322.666V215.675H325.053V213.288Z" fill="#5412A0"/>
<path d="M334.49 213.288H332.104V215.675H334.49V213.288Z" fill="#5412A0"/>
<path d="M343.924 213.288H341.537V215.675H343.924V213.288Z" fill="#5412A0"/>
<path d="M353.361 213.288H350.975V215.675H353.361V213.288Z" fill="#5412A0"/>
<path d="M362.797 213.288H360.41V215.675H362.797V213.288Z" fill="#5412A0"/>
<path d="M372.234 213.288H369.848V215.675H372.234V213.288Z" fill="#5412A0"/>
<path d="M381.668 213.288H379.281V215.675H381.668V213.288Z" fill="#5412A0"/>
<path d="M391.101 213.288H388.715V215.675H391.101V213.288Z" fill="#5412A0"/>
<path d="M400.539 213.288H398.152V215.675H400.539V213.288Z" fill="#5412A0"/>
<path d="M409.972 213.288H407.586V215.675H409.972V213.288Z" fill="#5412A0"/>
<path d="M419.41 213.288H417.023V215.675H419.41V213.288Z" fill="#5412A0"/>
<path d="M428.844 213.288H426.457V215.675H428.844V213.288Z" fill="#5412A0"/>
<path d="M438.281 213.288H435.895V215.675H438.281V213.288Z" fill="#5412A0"/>
<path d="M315.619 222.882H313.232V225.269H315.619V222.882Z" fill="#5412A0"/>
<path d="M325.053 222.882H322.666V225.269H325.053V222.882Z" fill="#5412A0"/>
<path d="M334.49 222.882H332.104V225.269H334.49V222.882Z" fill="#5412A0"/>
<path d="M343.924 222.882H341.537V225.269H343.924V222.882Z" fill="#5412A0"/>
<path d="M353.361 222.882H350.975V225.269H353.361V222.882Z" fill="#5412A0"/>
<path d="M362.797 222.882H360.41V225.269H362.797V222.882Z" fill="#5412A0"/>
<path d="M372.234 222.882H369.848V225.269H372.234V222.882Z" fill="#5412A0"/>
<path d="M381.668 222.882H379.281V225.269H381.668V222.882Z" fill="#5412A0"/>
<path d="M391.101 222.882H388.715V225.269H391.101V222.882Z" fill="#5412A0"/>
<path d="M400.539 222.882H398.152V225.269H400.539V222.882Z" fill="#5412A0"/>
<path d="M409.972 222.882H407.586V225.269H409.972V222.882Z" fill="#5412A0"/>
<path d="M419.41 222.882H417.023V225.269H419.41V222.882Z" fill="#5412A0"/>
<path d="M428.844 222.882H426.457V225.269H428.844V222.882Z" fill="#5412A0"/>
<path d="M438.281 222.882H435.895V225.269H438.281V222.882Z" fill="#5412A0"/>
<path d="M376.025 395.958C375.598 395.958 375.17 395.929 374.746 395.872C374.259 395.804 373.917 395.354 373.983 394.867C374.05 394.378 374.493 394.046 374.987 394.103C375.516 394.176 376.053 394.19 376.585 394.153C377.087 394.114 377.504 394.488 377.538 394.979C377.574 395.47 377.203 395.899 376.712 395.933C376.482 395.949 376.253 395.958 376.025 395.958ZM457.344 395.877C456.851 395.877 456.421 395.477 456.421 394.985C456.421 394.492 456.79 394.092 457.283 394.092H457.344C457.861 394.092 458.377 394.04 458.879 393.939C459.37 393.844 459.834 394.155 459.93 394.637C460.027 395.119 459.714 395.592 459.232 395.688C458.615 395.815 457.979 395.877 457.344 395.877ZM416.203 395.736C416.2 395.736 416.026 395.734 416.021 395.734C415.528 395.727 415.134 395.32 415.143 394.828C415.15 394.335 415.566 393.983 416.05 393.949L416.035 394.842L416.203 393.951C416.685 393.951 417.171 393.907 417.645 393.816C418.133 393.728 418.597 394.042 418.688 394.526C418.779 395.01 418.461 395.477 417.977 395.568C417.394 395.681 416.796 395.736 416.203 395.736ZM333.576 395.727C333.09 395.727 332.69 395.336 332.683 394.849C332.676 394.356 333.069 393.949 333.561 393.942C334.093 393.933 334.629 393.869 335.152 393.753C335.634 393.646 336.11 393.949 336.217 394.428C336.326 394.91 336.023 395.386 335.543 395.493C334.902 395.638 334.245 395.717 333.592 395.726C333.586 395.727 333.581 395.727 333.576 395.727ZM498.941 395.606L498.561 395.599C498.069 395.581 497.683 395.167 497.703 394.674C497.721 394.181 498.124 393.757 498.627 393.816L498.934 393.821C499.372 393.821 499.8 393.785 500.225 393.714C500.709 393.626 501.171 393.96 501.253 394.447C501.333 394.933 501.007 395.393 500.519 395.476C499.998 395.561 499.466 395.606 498.941 395.606ZM453.818 395.126C453.697 395.126 453.574 395.101 453.454 395.049C452.86 394.783 452.287 394.453 451.755 394.069C451.355 393.78 451.266 393.223 451.553 392.823C451.841 392.423 452.398 392.33 452.797 392.621C453.233 392.934 453.697 393.203 454.183 393.419C454.632 393.621 454.834 394.149 454.632 394.599C454.486 394.929 454.159 395.126 453.818 395.126ZM330.097 395.056C329.981 395.056 329.865 395.035 329.752 394.987C329.149 394.733 328.569 394.417 328.028 394.044C327.621 393.764 327.519 393.209 327.799 392.803C328.078 392.398 328.635 392.293 329.04 392.575C329.481 392.878 329.952 393.135 330.441 393.343C330.896 393.534 331.11 394.057 330.919 394.51C330.777 394.851 330.445 395.056 330.097 395.056ZM380.055 394.962C379.734 394.962 379.423 394.788 379.264 394.485C379.034 394.049 379.202 393.51 379.637 393.28C380.109 393.032 380.555 392.734 380.965 392.393C381.344 392.077 381.906 392.13 382.222 392.511C382.536 392.891 382.483 393.453 382.104 393.767C381.599 394.185 381.049 394.553 380.469 394.858C380.339 394.929 380.196 394.962 380.055 394.962ZM412.581 394.942C412.456 394.942 412.33 394.915 412.21 394.862C411.616 394.588 411.048 394.251 410.518 393.858C410.122 393.564 410.04 393.005 410.334 392.609C410.629 392.214 411.187 392.132 411.584 392.425C412.014 392.745 412.476 393.019 412.956 393.239C413.404 393.444 413.601 393.974 413.395 394.422C413.242 394.749 412.919 394.942 412.581 394.942ZM495.155 394.733C495.023 394.733 494.891 394.704 494.765 394.642C494.318 394.424 493.883 394.169 493.465 393.876L493.124 393.637C492.721 393.355 492.623 392.798 492.906 392.395C493.188 391.991 493.745 391.891 494.149 392.177L494.49 392.416C494.829 392.655 495.182 392.862 495.546 393.039C495.989 393.255 496.173 393.789 495.957 394.231C495.805 394.549 495.486 394.733 495.155 394.733ZM371.525 394.696C371.367 394.696 371.207 394.654 371.062 394.565C370.921 394.481 370.784 394.39 370.646 394.297L369.541 393.542C369.134 393.264 369.029 392.709 369.308 392.302C369.584 391.893 370.143 391.791 370.548 392.068L371.655 392.823C371.766 392.898 371.878 392.971 371.99 393.041C372.412 393.296 372.547 393.846 372.29 394.267C372.121 394.542 371.826 394.696 371.525 394.696ZM462.313 394.308C462.033 394.308 461.756 394.176 461.581 393.928C461.298 393.525 461.396 392.968 461.799 392.686C461.974 392.562 462.145 392.432 462.311 392.293L463.129 391.611C463.507 391.295 464.07 391.349 464.386 391.724C464.702 392.102 464.65 392.664 464.273 392.98L463.457 393.66C463.254 393.832 463.043 393.994 462.826 394.146C462.67 394.256 462.492 394.308 462.313 394.308ZM421.087 394.228C420.801 394.228 420.523 394.092 420.35 393.841C420.071 393.434 420.175 392.878 420.582 392.6C420.796 392.454 421.005 392.295 421.206 392.125L421.903 391.538C422.279 391.22 422.843 391.27 423.161 391.645C423.479 392.022 423.431 392.584 423.054 392.903L422.356 393.492C422.108 393.701 421.853 393.896 421.59 394.074C421.437 394.176 421.26 394.228 421.087 394.228ZM503.674 394.198C503.383 394.198 503.097 394.055 502.926 393.792C502.656 393.38 502.772 392.827 503.184 392.557C503.615 392.275 504.02 391.948 504.391 391.582C504.739 391.238 505.323 391.222 505.669 391.57C506.015 391.918 506.033 392.463 505.685 392.811C505.189 393.301 504.689 393.705 504.161 394.051C504.011 394.151 503.841 394.198 503.674 394.198ZM338.57 394.044C338.295 394.044 338.024 393.917 337.851 393.68C337.558 393.282 337.643 392.723 338.042 392.432C338.152 392.35 338.263 392.264 338.37 392.177L339.389 391.338C339.769 391.024 340.334 391.079 340.646 391.459C340.96 391.84 340.906 392.402 340.524 392.716L339.507 393.555C339.375 393.666 339.239 393.771 339.1 393.873C338.938 393.987 338.752 394.044 338.57 394.044ZM449.383 392.143C449.201 392.143 449.019 392.088 448.862 391.973L447.416 390.927C447.016 390.638 446.927 390.08 447.216 389.681C447.505 389.28 448.064 389.191 448.462 389.482L449.908 390.528C450.307 390.817 450.397 391.375 450.107 391.774C449.931 392.014 449.659 392.143 449.383 392.143ZM325.714 392.009C325.522 392.009 325.327 391.947 325.165 391.818L323.76 390.715C323.372 390.412 323.305 389.849 323.61 389.462C323.913 389.073 324.476 389.005 324.863 389.312L326.268 390.415C326.655 390.719 326.723 391.281 326.418 391.668C326.241 391.893 325.979 392.009 325.714 392.009ZM408.212 391.865C408.022 391.865 407.833 391.804 407.671 391.681L406.254 390.597C405.863 390.297 405.788 389.739 406.086 389.346C406.386 388.955 406.946 388.882 407.337 389.178L408.754 390.262C409.145 390.561 409.22 391.12 408.922 391.513C408.745 391.745 408.479 391.865 408.212 391.865ZM490.714 391.748C490.538 391.748 490.359 391.697 490.202 391.588L488.74 390.563C488.337 390.279 488.239 389.724 488.521 389.319C488.804 388.916 489.36 388.818 489.765 389.1L491.227 390.124C491.63 390.408 491.728 390.963 491.446 391.368C491.271 391.616 490.995 391.748 490.714 391.748ZM367.096 391.684C366.923 391.684 366.748 391.634 366.594 391.529L365.12 390.524C364.713 390.246 364.608 389.69 364.886 389.283C365.165 388.875 365.72 388.773 366.127 389.05L367.601 390.055C368.008 390.333 368.113 390.888 367.835 391.295C367.662 391.549 367.38 391.684 367.096 391.684ZM384.253 391.657C384.002 391.657 383.75 391.55 383.573 391.343C383.254 390.968 383.298 390.404 383.675 390.085L385.033 388.928C385.408 388.609 385.972 388.653 386.292 389.03C386.611 389.405 386.567 389.969 386.19 390.288L384.832 391.445C384.664 391.588 384.459 391.657 384.253 391.657ZM466.442 390.899C466.187 390.899 465.933 390.79 465.757 390.578C465.441 390.199 465.492 389.637 465.869 389.321L467.24 388.177C467.618 387.861 468.181 387.914 468.497 388.289C468.812 388.668 468.761 389.23 468.384 389.546L467.013 390.69C466.847 390.831 466.644 390.899 466.442 390.899ZM425.207 390.81C424.951 390.81 424.7 390.701 424.523 390.492C424.205 390.115 424.253 389.553 424.63 389.233L425.996 388.082C426.372 387.764 426.936 387.814 427.254 388.189C427.572 388.566 427.524 389.128 427.147 389.448L425.781 390.599C425.614 390.74 425.41 390.81 425.207 390.81ZM342.711 390.649C342.452 390.649 342.197 390.538 342.022 390.324C341.708 389.944 341.762 389.382 342.143 389.067L343.522 387.932C343.904 387.62 344.466 387.673 344.778 388.054C345.092 388.434 345.039 388.996 344.657 389.31L343.279 390.445C343.111 390.581 342.909 390.649 342.711 390.649ZM507.595 390.565C507.365 390.565 507.135 390.476 506.96 390.301C506.613 389.949 506.617 389.385 506.967 389.037L508.236 387.782C508.588 387.438 509.152 387.441 509.5 387.789C509.846 388.141 509.842 388.705 509.493 389.053L508.223 390.308C508.049 390.479 507.822 390.565 507.595 390.565ZM445.043 389.005C444.861 389.005 444.679 388.95 444.522 388.835L443.075 387.789C442.675 387.5 442.585 386.941 442.875 386.543C443.164 386.144 443.723 386.054 444.121 386.344L445.568 387.39C445.968 387.679 446.057 388.237 445.768 388.635C445.593 388.878 445.32 389.005 445.043 389.005ZM321.502 388.703C321.309 388.703 321.114 388.641 320.952 388.512L319.547 387.409C319.16 387.106 319.092 386.543 319.397 386.156C319.701 385.769 320.261 385.699 320.65 386.006L322.055 387.109C322.442 387.413 322.51 387.975 322.205 388.362C322.028 388.586 321.766 388.703 321.502 388.703ZM486.329 388.677C486.152 388.677 485.973 388.625 485.816 388.516L484.354 387.491C483.951 387.207 483.853 386.652 484.135 386.247C484.419 385.844 484.974 385.747 485.379 386.028L486.841 387.052C487.244 387.336 487.343 387.891 487.061 388.296C486.886 388.544 486.609 388.677 486.329 388.677ZM362.673 388.666C362.5 388.666 362.325 388.616 362.171 388.511L360.697 387.504C360.29 387.225 360.184 386.67 360.463 386.263C360.741 385.854 361.297 385.751 361.704 386.029L363.178 387.036C363.585 387.315 363.69 387.87 363.412 388.277C363.239 388.53 362.958 388.666 362.673 388.666ZM403.956 388.614C403.767 388.614 403.578 388.553 403.415 388.43L401.998 387.347C401.607 387.049 401.532 386.488 401.832 386.095C402.132 385.705 402.691 385.63 403.083 385.929L404.501 387.013C404.892 387.311 404.967 387.871 404.667 388.264C404.49 388.494 404.226 388.614 403.956 388.614ZM388.329 388.184C388.077 388.184 387.825 388.077 387.65 387.87C387.331 387.495 387.375 386.933 387.75 386.611L389.109 385.453C389.482 385.133 390.046 385.178 390.367 385.553C390.687 385.928 390.642 386.49 390.267 386.811L388.909 387.97C388.739 388.114 388.532 388.184 388.329 388.184ZM470.553 387.468C470.298 387.468 470.044 387.359 469.867 387.149C469.551 386.77 469.601 386.208 469.98 385.89L471.31 384.78C471.686 384.467 472.265 384.496 472.582 384.869C472.9 385.242 472.879 385.785 472.507 386.104L471.126 387.259C470.958 387.398 470.755 387.468 470.553 387.468ZM429.3 387.356C429.044 387.356 428.793 387.247 428.616 387.038C428.298 386.661 428.346 386.099 428.723 385.779L429.771 384.894C429.887 384.796 430.007 384.701 430.128 384.607C430.522 384.307 431.079 384.385 431.379 384.776C431.677 385.169 431.602 385.729 431.21 386.028C431.111 386.103 431.015 386.179 430.92 386.258L429.873 387.143C429.707 387.286 429.503 387.356 429.3 387.356ZM346.843 387.245C346.585 387.245 346.329 387.134 346.153 386.92C345.84 386.54 345.894 385.978 346.274 385.663L347.493 384.66L347.634 384.546C348.018 384.237 348.591 384.287 348.902 384.669C349.21 385.053 349.164 385.605 348.78 385.913L348.059 385.349L348.627 386.038L347.407 387.041C347.243 387.177 347.043 387.245 346.843 387.245ZM511.406 386.802C511.176 386.802 510.946 386.713 510.771 386.536C510.424 386.186 510.428 385.621 510.78 385.274L512.001 384.069C512.35 383.725 512.939 383.702 513.286 384.052C513.632 384.4 513.657 384.939 513.309 385.287L512.034 386.545C511.86 386.717 511.633 386.802 511.406 386.802ZM440.7 385.872C440.531 385.872 440.36 385.824 440.208 385.724C439.763 385.428 439.287 385.18 438.792 384.982C438.335 384.798 438.112 384.278 438.294 383.821C438.476 383.364 438.998 383.141 439.455 383.323C440.061 383.566 440.647 383.873 441.195 384.235C441.605 384.509 441.718 385.062 441.447 385.472C441.273 385.733 440.99 385.872 440.7 385.872ZM358.248 385.649C358.082 385.649 357.914 385.603 357.764 385.506C357.314 385.215 356.834 384.973 356.34 384.782C355.879 384.605 355.651 384.087 355.827 383.629C356.006 383.17 356.52 382.941 356.98 383.116C357.589 383.35 358.178 383.65 358.731 384.007C359.146 384.275 359.265 384.826 358.997 385.24C358.828 385.505 358.541 385.649 358.248 385.649ZM481.934 385.615C481.775 385.615 481.614 385.574 481.47 385.483C481.015 385.205 480.529 384.973 480.028 384.794C479.564 384.628 479.321 384.118 479.489 383.654C479.653 383.191 480.163 382.947 480.629 383.114C481.245 383.334 481.841 383.62 482.4 383.962C482.821 384.219 482.953 384.769 482.696 385.189C482.527 385.464 482.234 385.615 481.934 385.615ZM317.212 385.506C317.071 385.506 316.929 385.472 316.795 385.403C316.322 385.151 315.824 384.949 315.313 384.801C314.84 384.664 314.567 384.169 314.704 383.696C314.84 383.223 315.336 382.95 315.809 383.088C316.438 383.27 317.05 383.518 317.632 383.827C318.067 384.057 318.233 384.598 318.003 385.033C317.843 385.335 317.534 385.506 317.212 385.506ZM399.615 385.49C399.481 385.49 399.344 385.46 399.215 385.396C398.739 385.157 398.235 384.967 397.723 384.832C397.246 384.707 396.961 384.219 397.088 383.743C397.213 383.266 397.7 382.982 398.176 383.107C398.81 383.273 399.429 383.507 400.017 383.802C400.458 384.023 400.636 384.559 400.415 384.999C400.258 385.31 399.944 385.49 399.615 385.49ZM392.688 385.133C392.327 385.133 391.988 384.914 391.852 384.557C391.677 384.096 391.911 383.582 392.372 383.405C392.986 383.173 393.625 383.004 394.273 382.904C394.765 382.834 395.217 383.164 395.292 383.648C395.367 384.135 395.033 384.591 394.548 384.667C394.021 384.748 393.502 384.885 393.004 385.074C392.9 385.115 392.793 385.133 392.688 385.133ZM433.866 384.682C433.464 384.682 433.1 384.409 433 384.002C432.884 383.523 433.177 383.039 433.655 382.922C434.291 382.766 434.947 382.675 435.603 382.654C436.099 382.613 436.509 383.023 436.525 383.514C436.543 384.007 436.156 384.419 435.665 384.437C435.131 384.455 434.599 384.528 434.082 384.657C434.009 384.675 433.937 384.682 433.866 384.682ZM475.062 384.675C474.673 384.675 474.316 384.418 474.203 384.027C474.067 383.552 474.344 383.059 474.817 382.923C475.449 382.743 476.101 382.631 476.754 382.584C477.234 382.543 477.671 382.92 477.707 383.411C477.743 383.902 477.372 384.33 476.881 384.364C476.349 384.401 475.819 384.494 475.306 384.641C475.222 384.664 475.142 384.675 475.062 384.675ZM351.399 384.541C351.001 384.541 350.64 384.275 350.535 383.871C350.412 383.393 350.699 382.907 351.176 382.784C351.811 382.62 352.466 382.524 353.121 382.493C353.632 382.486 354.032 382.854 354.051 383.347C354.073 383.839 353.691 384.255 353.198 384.277C352.666 384.3 352.136 384.38 351.62 384.512C351.549 384.532 351.474 384.541 351.399 384.541ZM312.025 384.492H310.24C309.747 384.492 309.348 384.093 309.348 383.6C309.348 383.107 309.747 382.707 310.24 382.707H312.025C312.518 382.707 312.918 383.107 312.918 383.6C312.918 384.093 312.52 384.492 312.025 384.492ZM515.67 383.652C515.308 383.652 514.969 383.43 514.835 383.072C514.662 382.611 514.896 382.095 515.358 381.922C515.97 381.694 516.611 381.526 517.259 381.426C517.746 381.347 518.2 381.686 518.277 382.172C518.352 382.658 518.016 383.114 517.53 383.189C517.002 383.27 516.483 383.407 515.985 383.593C515.881 383.634 515.776 383.652 515.67 383.652Z" fill="#E87F31"/>
</svg>
