<svg width="450" height="259" viewBox="0 0 450 259" fill="none" xmlns="http://www.w3.org/2000/svg">
<g clip-path="url(#clip0_342_2300)">
<g clip-path="url(#clip1_342_2300)">
<path d="M318.761 146.187C325.925 149.189 325.659 166.245 318.106 184.277C310.553 202.31 298.665 214.487 291.501 211.48L249.622 193.926L276.883 128.628L318.761 146.187Z" fill="#254336"/>
<path d="M250.574 155.959C243.046 173.992 242.75 191.017 249.919 194.049C257.088 197.081 268.996 184.875 276.524 166.842C284.053 148.809 284.343 131.783 277.18 128.752C270.016 125.72 258.103 137.931 250.574 155.959Z" fill="#2A46B2"/>
<path d="M237.025 106.27C248.261 116.287 260.596 124.99 273.795 132.213C280.047 134.835 279.791 149.723 273.223 165.46C266.655 181.196 256.255 191.827 250.003 189.205C214.992 178.628 177.745 177.96 142.379 187.275L196.876 56.7588C207.525 75.3122 221.081 92.0292 237.025 106.27Z" fill="url(#paint0_linear_342_2300)"/>
<mask id="mask0_342_2300" style="mask-type:luminance" maskUnits="userSpaceOnUse" x="142" y="56" width="137" height="134">
<path d="M237.026 106.27C248.262 116.287 260.597 124.99 273.796 132.213C280.048 134.835 279.792 149.723 273.224 165.46C266.656 181.196 256.256 191.827 250.003 189.205C214.993 178.628 177.746 177.96 142.38 187.275L196.877 56.7588C207.526 75.3122 221.082 92.0292 237.026 106.27Z" fill="white"/>
</mask>
<g mask="url(#mask0_342_2300)">
<g style="mix-blend-mode:overlay">
<path d="M166.24 171.77C166.382 171.64 166.55 171.542 166.733 171.483C167.078 171.34 167.428 171.217 167.777 171.108C167.879 171.055 167.99 171.024 168.104 171.017C168.218 171.01 168.332 171.027 168.439 171.067C168.545 171.107 168.643 171.169 168.724 171.25C168.805 171.33 168.869 171.426 168.911 171.533C169.024 171.691 169.137 171.893 169.049 172.061C169.01 172.123 168.957 172.175 168.896 172.214C168.775 172.321 168.637 172.406 168.487 172.466C168.343 172.508 168.193 172.528 168.044 172.525L166.644 172.575C166.171 172.589 165.861 172.16 166.24 171.77ZM174.798 174.91C175.198 174.692 175.66 174.614 176.109 174.688C176.555 174.764 176.991 174.89 177.41 175.063C177.609 175.127 177.799 175.22 177.971 175.34C178.057 175.399 178.129 175.476 178.181 175.567C178.233 175.658 178.264 175.759 178.272 175.863C178.253 176.033 178.183 176.193 178.071 176.322C177.959 176.45 177.811 176.542 177.646 176.584C177.055 176.744 176.428 176.704 175.863 176.471C175.394 176.317 173.867 175.468 174.798 174.91ZM186.12 168.343C186.12 168.259 186.091 168.17 186.071 168.081C186.027 167.824 185.992 167.513 186.189 167.341C186.285 167.273 186.4 167.237 186.517 167.237C186.634 167.237 186.749 167.273 186.845 167.341C186.919 167.377 186.983 167.43 187.033 167.496C187.083 167.562 187.116 167.639 187.13 167.721C187.155 167.933 186.983 168.111 186.909 168.313C186.835 168.516 186.83 168.847 186.559 168.891C186.288 168.935 186.16 168.565 186.12 168.343ZM195.22 177.384C195.268 177.293 195.325 177.209 195.393 177.132C195.462 177.068 195.545 177.02 195.636 176.993C195.726 176.965 195.822 176.959 195.915 176.974C196.009 176.99 196.097 177.028 196.173 177.085C196.249 177.141 196.311 177.215 196.354 177.3C196.389 177.362 196.406 177.432 196.403 177.503C196.403 177.71 196.211 177.853 196.043 177.972C195.876 178.09 195.482 178.372 195.235 178.233C194.989 178.095 195.102 177.606 195.22 177.384ZM191.619 133.383C192.113 133.526 192.567 133.783 192.944 134.134C193.13 134.312 193.262 134.539 193.327 134.788C193.391 135.037 193.385 135.3 193.309 135.546C193.253 135.706 193.144 135.842 193.001 135.932C192.858 136.021 192.688 136.059 192.52 136.04C192.265 135.953 192.049 135.778 191.91 135.546C191.708 135.27 191.506 134.998 191.308 134.721C191.132 134.507 190.986 134.27 190.875 134.015C190.638 133.398 191.087 133.196 191.619 133.383ZM200.123 150.873C200.313 150.588 200.533 150.323 200.778 150.083C201.32 149.461 201.685 148.676 202.345 148.187C202.515 148.047 202.719 147.955 202.936 147.92C203.044 147.905 203.155 147.917 203.258 147.956C203.36 147.995 203.451 148.059 203.522 148.142C203.592 148.276 203.628 148.424 203.628 148.574C203.628 148.725 203.592 148.873 203.522 149.006C203.194 149.821 202.731 150.573 202.153 151.233C201.91 151.588 201.585 151.88 201.207 152.083C201.042 152.169 200.853 152.197 200.67 152.164C200.487 152.131 200.321 152.038 200.197 151.899C200.073 151.76 199.998 151.584 199.985 151.399C199.971 151.213 200.02 151.028 200.123 150.873ZM190.431 163.894C191.218 164.476 191.83 165.264 192.2 166.17C192.318 166.355 192.387 166.566 192.402 166.784C192.416 167.002 192.376 167.221 192.284 167.42C192.118 167.607 191.887 167.723 191.638 167.746C191.389 167.769 191.141 167.696 190.944 167.543C190.555 167.229 190.222 166.852 189.958 166.427C189.667 166.107 189.411 165.756 189.195 165.38C188.766 164.477 189.352 163.168 190.431 163.894ZM202.493 171.686C202.755 171.731 203.005 171.83 203.227 171.977C203.665 172.234 204.094 172.51 204.513 172.802C204.752 172.937 204.948 173.14 205.074 173.384C205.168 173.719 205.146 174.076 205.01 174.397C204.931 174.648 204.808 174.945 204.552 174.989C204.452 174.997 204.352 174.985 204.256 174.955C204.038 174.91 203.828 174.83 203.636 174.718C203.467 174.599 203.319 174.454 203.197 174.288L201.96 172.807C201.556 172.303 201.763 171.602 202.493 171.686ZM221.102 164.926C221.2 164.95 221.289 165 221.361 165.071C221.433 165.141 221.485 165.231 221.51 165.328C221.535 165.426 221.533 165.529 221.505 165.626C221.476 165.723 221.422 165.81 221.348 165.879C221.202 165.988 221.029 166.054 220.849 166.071C220.668 166.087 220.486 166.053 220.323 165.973C219.323 165.553 220.51 164.807 221.102 164.926ZM175.71 181.176C176.013 181.314 176.267 181.544 176.434 181.833C176.745 182.302 176.991 182.812 177.163 183.349C177.219 183.463 177.245 183.59 177.239 183.717C177.232 183.844 177.192 183.967 177.124 184.075C177.007 184.164 176.863 184.21 176.716 184.204C176.569 184.197 176.429 184.14 176.321 184.04C176.055 183.819 175.831 183.551 175.661 183.25C175.434 182.9 174.045 180.589 175.71 181.176ZM170.625 159.282C170.771 158.97 170.96 158.681 171.187 158.423C171.512 158.013 171.862 157.623 172.207 157.233C172.437 156.895 172.791 156.662 173.192 156.586C173.729 156.586 174.128 157.114 174.242 157.643C174.324 158.099 174.332 158.566 174.266 159.025C174.233 159.579 174.108 160.123 173.897 160.635C173.685 161.152 173.28 161.565 172.768 161.785C171.236 162.383 170.054 160.645 170.625 159.282ZM162.471 182.519C162.782 182.266 163.111 182.036 163.457 181.833C163.638 181.666 163.875 181.571 164.122 181.566C164.467 181.616 164.614 182.06 164.491 182.401C164.332 182.715 164.081 182.973 163.772 183.141L163.072 183.635C162.092 184.297 161.781 183.196 162.471 182.519ZM202.985 159.667C203.093 159.676 203.197 159.708 203.291 159.761C203.521 159.855 203.73 159.995 203.907 160.171C203.994 160.259 204.061 160.364 204.105 160.479C204.15 160.595 204.169 160.719 204.163 160.842C204.16 160.889 204.147 160.935 204.123 160.976C204.093 161.013 204.054 161.042 204.011 161.063C203.967 161.083 203.92 161.094 203.872 161.094C203.68 161.108 203.487 161.09 203.301 161.04C203.201 161.018 203.103 160.987 203.01 160.946C202.66 160.778 202.355 160.2 202.635 159.85C202.678 159.797 202.731 159.753 202.791 159.722C202.851 159.69 202.918 159.672 202.985 159.667ZM212.08 154.557C212.254 154.519 212.434 154.519 212.607 154.557C212.818 154.577 213.027 154.61 213.233 154.655C213.259 154.658 213.283 154.668 213.302 154.685C213.342 154.734 213.302 154.803 213.243 154.843C213.068 154.965 212.864 155.039 212.652 155.055C212.509 155.083 212.361 155.072 212.223 155.026C212.066 154.957 211.809 154.66 212.08 154.557ZM219.357 159.726C219.3 159.834 219.217 159.925 219.116 159.993C219.064 160.025 219.003 160.039 218.943 160.033C218.882 160.027 218.825 160.001 218.781 159.959C218.735 159.894 218.712 159.816 218.717 159.736C218.724 159.457 218.779 159.182 218.879 158.922L219.027 158.467C219.15 158.087 219.274 157.712 219.421 157.341C219.485 157.188 219.648 156.892 219.855 157.035C220.062 157.179 220.018 157.475 220.018 157.657C220.021 158.12 219.925 158.578 219.737 159.001C219.631 159.253 219.504 159.496 219.357 159.726ZM227.176 162.003C227.33 162.211 227.433 162.453 227.477 162.709C227.497 162.837 227.481 162.968 227.43 163.088C227.38 163.207 227.297 163.31 227.191 163.385C227.121 163.433 227.036 163.456 226.951 163.449C226.866 163.443 226.786 163.408 226.723 163.351C226.644 163.233 226.613 163.091 226.634 162.951V162.457C226.634 162.318 226.649 162.178 226.679 162.042C226.782 161.711 227.024 161.766 227.176 162.003ZM225.235 171.597C225.395 171.542 225.56 171.504 225.728 171.483C226.119 171.346 226.524 171.254 226.935 171.207C227.045 171.201 227.154 171.227 227.25 171.281C227.298 171.308 227.339 171.346 227.368 171.393C227.398 171.439 227.415 171.493 227.418 171.548C227.407 171.622 227.378 171.694 227.333 171.755C227.289 171.816 227.23 171.865 227.162 171.898C226.783 172.124 226.368 172.283 225.935 172.367C225.731 172.437 225.512 172.454 225.299 172.417C225.204 172.405 225.115 172.36 225.048 172.29C224.982 172.22 224.941 172.129 224.934 172.033C224.926 171.937 224.952 171.841 225.007 171.761C225.062 171.682 225.143 171.624 225.235 171.597ZM217.392 173.814C217.525 174.289 217.525 174.791 217.392 175.266C217.342 175.478 217.249 175.72 217.042 175.789C216.919 175.813 216.791 175.789 216.685 175.722C216.578 175.655 216.502 175.55 216.47 175.429C216.41 175.185 216.392 174.933 216.416 174.683C216.394 174.465 216.394 174.245 216.416 174.026C216.549 173.552 217.185 173.207 217.392 173.814ZM219.835 180.643C219.927 180.741 219.998 180.857 220.042 180.984C220.136 181.221 220.225 181.477 220.303 181.705C220.359 181.832 220.375 181.973 220.348 182.109C220.284 182.273 220.166 182.409 220.013 182.495C219.909 182.574 219.766 182.653 219.653 182.593C219.61 182.567 219.573 182.531 219.545 182.49C219.472 182.403 219.412 182.307 219.367 182.203C219.338 182.104 219.323 182.001 219.323 181.897C219.323 181.571 219.323 181.25 219.283 180.91C219.244 180.569 219.564 180.381 219.835 180.643ZM229.334 183.64C229.366 183.68 229.386 183.728 229.392 183.778C229.399 183.829 229.391 183.88 229.371 183.926C229.351 183.973 229.318 184.013 229.277 184.043C229.236 184.072 229.188 184.09 229.137 184.094C229.047 184.093 228.958 184.066 228.882 184.017C228.805 183.969 228.744 183.9 228.704 183.818C228.428 183.349 229.127 183.413 229.334 183.64ZM206.237 176.219C206.32 176.369 206.351 176.543 206.326 176.712C206.308 176.996 206.25 177.275 206.153 177.542C206.114 177.665 206.045 177.799 205.917 177.819C205.789 177.838 205.651 177.705 205.606 177.562C205.574 177.39 205.574 177.215 205.606 177.043C205.601 176.821 205.749 175.473 206.237 176.219ZM210.868 165.913C211.023 165.831 211.189 165.772 211.361 165.741C211.612 165.676 211.854 165.627 212.13 165.578C212.227 165.545 212.33 165.532 212.432 165.54C212.534 165.548 212.634 165.575 212.726 165.622C212.823 165.717 212.886 165.843 212.903 165.979C212.92 166.114 212.89 166.251 212.819 166.368C212.714 166.574 212.576 166.763 212.41 166.926C212.227 167.136 212.011 167.315 211.77 167.454C211.527 167.595 211.24 167.638 210.967 167.573C210.183 167.341 210.243 166.284 210.868 165.913ZM196.723 181.458C196.796 181.4 196.887 181.372 196.979 181.379C197.033 181.387 197.084 181.408 197.129 181.439C197.175 181.469 197.212 181.51 197.24 181.556C197.337 181.718 197.377 181.908 197.354 182.095C197.327 182.278 197.281 182.459 197.216 182.633C197.176 182.737 197.142 182.845 197.107 182.949C197.075 183.048 197.037 183.145 196.994 183.24C196.919 183.406 196.81 183.554 196.674 183.675C196.575 183.759 196.427 183.833 196.319 183.764C196.288 183.736 196.263 183.703 196.245 183.666C196.227 183.628 196.217 183.588 196.216 183.546C196.232 183.178 196.294 182.813 196.403 182.46C196.447 182.085 196.359 181.714 196.723 181.458ZM200.522 172.698C200.726 172.695 200.93 172.706 201.133 172.733C201.255 172.725 201.376 172.758 201.478 172.826C201.502 172.862 201.519 172.903 201.528 172.945C201.536 172.988 201.535 173.032 201.525 173.074C201.516 173.116 201.497 173.156 201.471 173.191C201.445 173.226 201.412 173.255 201.374 173.276C201.22 173.348 201.049 173.373 200.881 173.35H200.458C199.852 173.32 200.064 172.752 200.522 172.698ZM197.566 167.449C197.608 167.404 197.663 167.373 197.723 167.36C197.846 167.36 197.94 167.494 197.915 167.617C197.877 167.737 197.801 167.841 197.699 167.913C197.585 168.007 197.048 168.496 196.891 168.259C196.733 168.022 197.428 167.563 197.566 167.449ZM220.052 133.354C220.345 133.415 220.623 133.538 220.865 133.714C221.456 134.061 221.976 134.517 222.397 135.057C222.604 135.33 222.752 135.643 222.832 135.976C222.912 136.309 222.921 136.656 222.86 136.993C222.837 137.119 222.783 137.238 222.703 137.338C222.606 137.431 222.49 137.5 222.363 137.542C222.236 137.584 222.101 137.597 221.969 137.58C221.44 137.544 220.921 137.423 220.431 137.22C220.164 137.128 219.907 137.006 219.668 136.855C218.771 136.272 218.135 134.583 219.042 133.729C219.172 133.595 219.33 133.492 219.505 133.427C219.68 133.362 219.866 133.337 220.052 133.354ZM246.756 122.668C247.244 122.614 247.738 122.664 248.204 122.816C248.771 122.952 249.33 123.116 249.88 123.31C249.946 123.329 250.006 123.367 250.052 123.419C250.146 123.567 249.988 123.745 249.84 123.829C249.318 124.1 248.734 124.231 248.145 124.209C247.745 124.23 247.346 124.146 246.988 123.967C246.574 123.735 245.973 122.821 246.756 122.668ZM264.818 139.402C264.627 139.671 264.373 139.89 264.079 140.039C263.927 140.111 263.756 140.13 263.592 140.092C263.429 140.054 263.283 139.963 263.177 139.832C263.069 139.639 263.033 139.413 263.074 139.195C263.194 138.435 263.446 137.701 263.818 137.027C264.005 136.632 264.192 136.237 264.384 135.842C264.877 134.855 265.33 133.867 265.863 132.88C266.089 132.48 266.636 131.734 267.153 132.193C267.577 132.573 267.439 133.457 267.385 133.956C267.223 135.239 266.789 136.473 266.114 137.575C265.733 138.219 265.299 138.83 264.818 139.402ZM254.383 177.27C254.584 178.616 254.414 179.99 253.89 181.245C253.678 181.813 253.343 182.44 252.747 182.559C252.067 182.692 251.451 182.04 251.308 181.364C251.236 180.674 251.279 179.976 251.437 179.3C251.463 178.697 251.556 178.1 251.712 177.517C252.185 176.214 254.033 175.503 254.383 177.27ZM223.008 179.808C223.177 180.24 223.201 180.715 223.077 181.161C222.929 181.929 222.673 182.672 222.318 183.369C222.156 183.685 221.919 184.025 221.565 184.04C221.21 184.055 220.875 183.625 220.811 183.22C220.765 182.743 220.807 182.261 220.934 181.798C221.057 181.221 221.944 177.591 223.008 179.808ZM239.444 153.288C239.893 153.125 240.363 153.025 240.839 152.991C241.558 152.912 242.282 152.873 243.007 152.828C243.283 152.775 243.568 152.778 243.844 152.837C244.12 152.895 244.381 153.008 244.613 153.169C245.165 153.663 245.017 154.606 244.613 155.238C244.247 155.766 243.799 156.233 243.287 156.621C242.711 157.128 242.058 157.54 241.351 157.84C240.632 158.131 239.828 158.131 239.109 157.84C236.981 156.942 237.533 154.063 239.444 153.288ZM208.686 168.126C209.245 168.183 209.799 168.287 210.341 168.437C210.684 168.447 211.01 168.585 211.258 168.822C211.313 168.928 211.345 169.045 211.352 169.164C211.359 169.284 211.341 169.403 211.298 169.515C211.256 169.627 211.19 169.729 211.106 169.813C211.022 169.898 210.921 169.964 210.809 170.007C210.342 170.153 209.842 170.153 209.375 170.007L208.218 169.79C206.587 169.503 207.355 168.096 208.686 168.126ZM202.384 152.69C202.522 152.572 202.695 152.502 202.877 152.493C203.222 152.493 203.419 152.942 203.305 153.268C203.161 153.582 202.914 153.838 202.606 153.994C202.261 154.216 200.635 155.361 200.27 154.65C199.931 154.018 202 152.952 202.384 152.69Z" fill="white"/>
</g>
</g>
<path d="M130.722 187.774C115.393 181.344 116.026 144.859 132.136 106.281C148.245 67.7037 173.731 41.6428 189.06 48.0725C204.39 54.5021 203.757 90.9875 187.647 129.565C171.538 168.142 146.052 194.203 130.722 187.774Z" fill="#93FE9A"/>
<path d="M194.604 109.83L187.628 129.581C184.59 135.862 181.547 142.141 178.498 148.419L161.412 135.734C163.442 130.868 165.473 126.005 167.506 121.143L173.616 106.537L194.604 109.83Z" fill="#2A46B2"/>
<path d="M161.721 118.698C158.356 126.762 158.228 134.381 161.43 135.724C164.633 137.067 169.959 131.625 173.324 123.562C176.689 115.499 176.817 107.88 173.615 106.537C170.412 105.193 165.086 110.64 161.721 118.698Z" fill="#F83C17"/>
<path d="M135.703 191.466C143.128 191.466 151.819 186.662 160.83 177.453C171.812 166.219 182.223 149.584 190.145 130.618C207.084 90.049 207.064 52.6945 190.101 45.5792C173.138 38.4638 146.577 64.6884 129.638 105.243C121.72 124.209 117.207 143.318 116.936 159.065C116.651 175.641 121.178 186.716 129.682 190.301C131.591 191.09 133.638 191.486 135.703 191.466ZM184.125 49.8355C185.457 49.8213 186.779 50.0748 188.012 50.5811C200.211 55.6967 201.975 88.2368 185.154 128.524C177.493 146.873 167.482 162.901 156.963 173.656C147.183 183.66 138.004 187.891 131.771 185.279C125.539 182.667 122.105 173.142 122.346 159.139C122.602 144.083 126.968 125.685 134.629 107.336C149.814 70.9644 171.142 49.8355 184.125 49.8355ZM220.525 292.119L225.728 294.849C229.963 297.075 234.907 297.524 239.472 296.097C244.037 294.67 247.85 291.484 250.071 287.24L296.739 198.034L272.371 185.23L219.002 287.235C218.56 288.085 218.472 289.077 218.757 289.992C219.042 290.907 219.678 291.672 220.525 292.119Z" fill="#254336"/>
<path d="M315.084 158.754C315.783 158.754 316.466 158.548 317.048 158.16C317.63 157.773 318.085 157.222 318.356 156.576C318.535 156.147 318.628 155.686 318.63 155.22C318.631 154.755 318.541 154.293 318.365 153.863C318.188 153.432 317.928 153.04 317.6 152.71C317.272 152.38 316.883 152.119 316.454 151.94L299.141 144.681C298.275 144.318 297.301 144.315 296.433 144.672C295.565 145.029 294.874 145.717 294.512 146.585C294.15 147.452 294.147 148.428 294.503 149.298C294.859 150.168 295.545 150.861 296.411 151.224L313.724 158.507C314.157 158.677 314.619 158.761 315.084 158.754ZM297.781 146.212C298.009 146.21 298.236 146.256 298.446 146.345L315.759 153.604C315.97 153.693 316.162 153.823 316.323 153.986C316.483 154.15 316.61 154.344 316.695 154.557C316.784 154.767 316.83 154.993 316.83 155.221C316.83 155.449 316.784 155.675 316.695 155.885C316.607 156.096 316.479 156.287 316.317 156.448C316.156 156.609 315.964 156.737 315.753 156.824C315.542 156.91 315.316 156.955 315.088 156.954C314.86 156.953 314.634 156.907 314.424 156.818L297.086 149.55C296.718 149.393 296.416 149.114 296.229 148.76C296.043 148.405 295.985 147.997 296.064 147.605C296.144 147.212 296.356 146.859 296.665 146.605C296.974 146.352 297.361 146.213 297.761 146.212H297.781ZM313.769 170.121C314.587 170.122 315.381 169.839 316.015 169.32C316.649 168.801 317.083 168.077 317.244 167.273C317.405 166.468 317.283 165.633 316.898 164.909C316.513 164.184 315.889 163.617 315.133 163.302L297.82 156.038C296.954 155.676 295.979 155.673 295.111 156.031C294.243 156.388 293.551 157.076 293.189 157.944C292.828 158.811 292.824 159.786 293.18 160.656C293.536 161.525 294.221 162.218 295.086 162.581L312.404 169.864C312.838 170.039 313.301 170.126 313.769 170.121ZM296.451 157.569C296.681 157.571 296.908 157.618 297.121 157.707L314.439 164.971C314.863 165.148 315.2 165.487 315.375 165.914C315.546 166.341 315.542 166.818 315.364 167.243C315.186 167.667 314.848 168.004 314.424 168.18C314.214 168.269 313.989 168.315 313.761 168.315C313.534 168.315 313.308 168.269 313.099 168.18L295.781 160.917C295.359 160.737 295.024 160.398 294.85 159.972C294.676 159.547 294.675 159.071 294.849 158.645C295.029 158.22 295.369 157.882 295.795 157.707C296.002 157.618 296.225 157.571 296.451 157.569ZM310.724 180.762C311.543 180.763 312.336 180.48 312.97 179.961C313.604 179.442 314.038 178.718 314.199 177.914C314.36 177.109 314.238 176.274 313.853 175.55C313.468 174.825 312.845 174.257 312.089 173.943L294.775 166.679C294.347 166.499 293.887 166.406 293.422 166.405C292.958 166.403 292.497 166.493 292.068 166.67C291.638 166.847 291.247 167.107 290.917 167.435C290.588 167.763 290.326 168.153 290.147 168.583C289.967 169.012 289.874 169.473 289.873 169.939C289.871 170.404 289.961 170.866 290.138 171.296C290.314 171.727 290.573 172.119 290.901 172.449C291.228 172.78 291.617 173.042 292.046 173.222L309.359 180.485C309.791 180.667 310.255 180.761 310.724 180.762ZM293.411 168.21C293.641 168.212 293.868 168.259 294.081 168.348L311.374 175.612C311.591 175.695 311.788 175.821 311.955 175.983C312.122 176.144 312.255 176.338 312.346 176.552C312.438 176.765 312.485 176.996 312.486 177.228C312.486 177.461 312.441 177.691 312.351 177.906C312.261 178.12 312.129 178.314 311.963 178.477C311.797 178.639 311.601 178.767 311.385 178.852C311.169 178.937 310.938 178.977 310.706 178.971C310.474 178.965 310.245 178.912 310.034 178.816L292.721 171.558C292.297 171.379 291.961 171.039 291.786 170.612C291.612 170.186 291.613 169.707 291.79 169.281C291.922 168.965 292.145 168.695 292.429 168.504C292.714 168.313 293.049 168.211 293.391 168.21H293.411Z" fill="#F59F4D"/>
<path d="M119.556 98.9121L83.0443 83.5903L81.5486 87.1703L118.06 102.492L119.556 98.9121Z" fill="#5E3041"/>
<path d="M105.25 135.291L105.108 131.412L70.7659 132.674L70.9078 136.553L105.25 135.291Z" fill="#5E3041"/>
<path d="M133.861 66.7529L110.649 41.3562L107.793 43.9777L131.006 69.3745L133.861 66.7529Z" fill="#5E3041"/>
<path d="M260.496 149.406L261.344 147.431C252.181 143.518 243.315 138.94 234.817 133.734C224.182 127.21 214.163 119.726 204.886 111.375L203.438 112.99C212.814 121.429 222.94 128.992 233.689 135.585C242.279 140.837 251.238 145.456 260.496 149.406ZM228.875 122.184L230.161 120.441C225.344 116.859 220.943 112.746 217.041 108.181C213.565 104.115 210.505 99.7094 207.906 95.0312L206.014 96.083C211.684 106.317 219.472 115.216 228.856 122.184H228.875Z" fill="#2A46B2"/>
<path d="M322.522 252.049C326.015 254.36 329.538 256.611 333.051 258.843C333.557 259.088 333.962 259.504 334.194 260.018C334.282 260.443 334.252 260.884 334.105 261.292C330.059 276.66 321.309 290.371 309.086 300.498C308.729 300.852 308.28 301.098 307.79 301.209C307.135 301.213 306.5 300.98 306.002 300.553C298.321 295.393 291.187 289.452 283.954 283.675C283.121 283.009 281.683 281.873 279.82 280.505C276.405 280.41 273.003 280.055 269.641 279.444C265.036 278.606 260.529 277.295 256.191 275.533L275.105 239.383C273.978 236.485 273.09 233.499 272.45 230.456C271.376 225.317 271.011 220.055 271.366 214.818C268.375 216.456 265.05 217.389 261.645 217.543C262.454 218.668 263.186 219.846 263.837 221.069C264.415 222.101 264.91 223.177 265.315 224.288C266.325 227.335 266.104 231.498 263.414 233.636C262.584 234.273 261.613 234.699 260.583 234.876C259.553 235.053 258.495 234.977 257.501 234.653C257.757 237.438 257.137 240.465 254.939 242.405C254.202 243.063 253.328 243.549 252.38 243.828C251.433 244.107 250.436 244.172 249.461 244.02C250.609 246.622 249.461 249.916 247.332 251.713C246.608 252.317 245.769 252.767 244.866 253.035C243.963 253.303 243.015 253.384 242.08 253.273C241.533 255.703 238.961 257.322 236.478 257.283C231.674 257.204 227.748 252.626 225.87 248.602C224.072 244.741 223.515 239.22 227.349 236.406C227.568 236.271 227.757 236.093 227.905 235.882C228.042 235.572 228.088 235.23 228.038 234.895C227.933 232.542 228.519 230.211 229.723 228.189C230.259 227.268 230.9 226.413 231.635 225.641C232.424 225.11 233.26 224.654 234.133 224.278C234.419 222.071 234.862 219.834 236.02 217.933C237.178 216.032 239.198 214.536 241.44 214.541C241.207 212.326 241.647 210.091 242.702 208.13C243.757 206.169 245.377 204.573 247.352 203.55C250.18 202.157 254.112 202.34 255.92 204.932C255.92 204.932 262.862 201.229 263.512 200.923C266.157 199.658 268.905 198.621 271.725 197.822C276.83 196.424 283.308 195.664 287.94 198.869C288.787 199.456 289.782 200.572 291.773 202.819C294.117 205.482 296.258 208.318 298.178 211.302C300.537 214.842 302.544 218.607 304.169 222.54C306.63 228.685 308.01 235.211 308.249 241.827C308.584 242.143 309.081 242.608 309.692 243.151C311.303 244.523 315.846 247.639 322.522 252.049Z" fill="#FFDBAB"/>
<path d="M244.366 252.552C244.919 252.397 245.427 252.11 245.846 251.715C246.264 251.32 246.581 250.83 246.77 250.286C246.903 249.8 246.925 249.291 246.834 248.796C246.743 248.301 246.54 247.833 246.243 247.427C245.686 246.673 244.917 246.102 244.036 245.788C243.635 245.6 243.179 245.565 242.755 245.689C242.455 245.804 242.191 245.994 241.986 246.242C241.003 247.293 240.202 248.502 239.616 249.817L240.848 250.35C241.371 249.173 242.088 248.091 242.966 247.15C243.031 247.074 243.105 247.008 243.188 246.953C243.188 246.953 243.272 246.928 243.543 247.032C244.172 247.258 244.722 247.661 245.129 248.192C245.305 248.431 245.426 248.706 245.484 248.997C245.542 249.288 245.535 249.588 245.464 249.876C245.339 250.208 245.137 250.505 244.874 250.742C244.61 250.979 244.294 251.15 243.952 251.239L244.366 252.552ZM236.335 256.927C236.938 256.82 237.49 256.519 237.906 256.068C238.128 255.819 238.292 255.524 238.385 255.203C238.479 254.883 238.501 254.546 238.448 254.216C238.309 253.652 238.014 253.139 237.596 252.735C237.292 252.349 236.878 252.065 236.409 251.92C236.066 251.863 235.715 251.888 235.384 251.993C235.054 252.099 234.753 252.282 234.507 252.528C233.747 253.162 233.148 253.967 232.758 254.878L234.019 255.397C234.322 254.684 234.79 254.055 235.384 253.56C235.684 253.313 235.95 253.184 236.113 253.229C236.276 253.273 236.488 253.505 236.606 253.629C236.847 253.858 237.027 254.145 237.128 254.463C237.144 254.59 237.132 254.718 237.093 254.839C237.054 254.96 236.988 255.072 236.901 255.164C236.688 255.392 236.406 255.543 236.098 255.594L236.335 256.927ZM261.275 218.175L261.314 216.822C260.174 216.787 259.057 216.496 258.043 215.972C257.03 215.447 256.147 214.701 255.459 213.789C254.771 212.878 254.295 211.823 254.067 210.703C253.839 209.583 253.864 208.426 254.141 207.317C254.255 206.658 254.584 206.055 255.077 205.604L254.239 204.532C253.503 205.171 253.006 206.042 252.83 207.001C252.503 208.307 252.472 209.669 252.74 210.988C253.008 212.307 253.568 213.549 254.378 214.623C255.189 215.696 256.229 216.574 257.422 217.192C258.616 217.809 259.932 218.15 261.275 218.19V218.175ZM286.092 253.17L286.757 251.984C282.024 249.3 278.237 245.212 275.918 240.282L274.691 240.86C277.132 246.044 281.115 250.344 286.092 253.17ZM281.613 280.55C282.773 280.295 283.875 279.823 284.86 279.157L284.101 278.031C283.261 278.602 282.319 279.006 281.327 279.221L281.613 280.55Z" fill="#E7A577"/>
<path d="M258.292 213.998C258.564 213.992 258.835 213.958 259.1 213.894C261.546 213.38 263.904 212.506 266.096 211.302C266.426 211.169 266.69 210.91 266.83 210.583C266.971 210.255 266.976 209.885 266.845 209.554C266.325 207.525 265.54 205.574 264.509 203.752L263.327 204.423C264.307 206.141 265.056 207.98 265.554 209.895C265.568 209.948 265.58 210.003 265.588 210.058C265.588 210.058 265.529 210.058 265.465 210.112C263.39 211.255 261.159 212.087 258.843 212.581C258.599 212.655 258.34 212.667 258.09 212.615C257.888 212.493 257.719 212.324 257.597 212.122C257.122 211.436 256.717 210.705 256.385 209.939C256.119 209.322 256.065 208.887 256.217 208.64L255.079 207.91C254.453 208.897 254.971 210.087 255.143 210.482C255.51 211.329 255.959 212.138 256.483 212.897C256.737 213.323 257.108 213.666 257.552 213.884C257.789 213.969 258.04 214.008 258.292 213.998ZM256.853 234.821L257.523 233.64C256.106 232.867 254.737 232.008 253.424 231.068C248.068 227.073 245.013 220.634 242.318 214.956L241.097 215.538C243.856 221.36 247.009 227.962 252.611 232.154C253.97 233.128 255.386 234.018 256.853 234.821ZM248.448 244.538L248.807 243.23C245.924 242.434 243.314 240.859 241.264 238.677C240.014 237.307 238.944 235.782 238.081 234.139C236.492 231.217 235.359 228.068 234.721 224.802L233.391 225.059C234.054 228.463 235.233 231.745 236.889 234.791C237.808 236.535 238.947 238.153 240.279 239.605C242.496 241.972 245.323 243.679 248.448 244.538ZM241.412 253.648L242.102 252.478C239.318 250.829 236.125 248.77 233.499 246.01C231.627 244.035 229.267 240.84 228.651 236.786L227.311 236.993C227.981 241.393 230.514 244.834 232.519 246.943C235.268 249.827 238.559 251.95 241.412 253.648Z" fill="#E7A577"/>
<path d="M260.079 233.739C260.84 233.348 261.438 232.698 261.766 231.906C262.095 231.114 262.132 230.231 261.872 229.414C261.379 227.997 260.157 227.157 258.837 226.347C258.62 226.181 258.364 226.071 258.094 226.029C257.824 225.987 257.547 226.013 257.29 226.105C257.043 226.229 256.834 226.417 256.684 226.649L254.142 230.026L255.206 230.846L257.748 227.463C257.778 227.429 257.822 227.37 257.852 227.34C257.881 227.31 257.935 227.394 258.118 227.508C259.216 228.179 260.236 228.866 260.581 229.858C260.734 230.362 260.707 230.903 260.505 231.389C260.303 231.875 259.938 232.275 259.473 232.52L260.079 233.739ZM252.151 243.294C252.698 242.882 253.124 242.329 253.382 241.694C253.64 241.059 253.722 240.366 253.618 239.688C253.513 239.01 253.227 238.374 252.79 237.846C252.353 237.318 251.782 236.92 251.136 236.692C250.811 236.57 250.462 236.522 250.116 236.554C249.131 236.662 248.53 237.541 248.21 238.011L246.18 240.973L247.298 241.743L249.328 238.781C249.624 238.346 249.944 237.941 250.269 237.907C250.412 237.901 250.555 237.926 250.688 237.981C251.102 238.126 251.47 238.381 251.75 238.719C252.031 239.058 252.215 239.466 252.282 239.901C252.349 240.336 252.296 240.781 252.13 241.188C251.964 241.595 251.69 241.949 251.338 242.213L252.151 243.294Z" fill="#E7A577"/>
</g>
</g>
<defs>
<linearGradient id="paint0_linear_342_2300" x1="210.35" y1="189.603" x2="210.382" y2="75.5917" gradientUnits="userSpaceOnUse">
<stop stop-color="#93FE9A"/>
<stop offset="0.793906" stop-color="#F49E4C"/>
</linearGradient>
<clipPath id="clip0_342_2300">
<rect width="450" height="259" fill="white"/>
</clipPath>
<clipPath id="clip1_342_2300">
<rect width="267.004" height="262.563" fill="white" transform="matrix(-1 0 0 1 336.004 40)"/>
</clipPath>
</defs>
</svg>
