<svg width="459" height="450" viewBox="0 0 459 450" fill="none" xmlns="http://www.w3.org/2000/svg">
<g clip-path="url(#clip0_102_22)">
<path d="M428.752 181.992C441.03 187.137 440.574 216.368 427.629 247.274C414.684 278.18 394.308 299.049 382.031 293.895L310.256 263.81L356.977 151.898L428.752 181.992Z" fill="#254336"/>
<path d="M311.885 198.74C298.983 229.646 298.476 258.826 310.762 264.022C323.048 269.218 343.458 248.298 356.361 217.392C369.263 186.486 369.761 157.306 357.484 152.11C345.206 146.914 324.788 167.842 311.885 198.74Z" fill="#2A46B2"/>
<path d="M288.664 113.579C307.92 130.746 329.062 145.663 351.682 158.042C362.398 162.536 361.959 188.051 350.703 215.022C339.447 241.993 321.621 260.214 310.906 255.72C250.902 237.592 187.065 236.447 126.452 252.411L219.852 28.7227C238.104 60.5209 261.338 89.1718 288.664 113.579Z" fill="url(#paint0_linear_102_22)"/>
<mask id="mask0_102_22" style="mask-type:luminance" maskUnits="userSpaceOnUse" x="126" y="28" width="234" height="229">
<path d="M288.664 113.579C307.92 130.746 329.062 145.663 351.682 158.042C362.398 162.536 361.959 188.051 350.703 215.022C339.447 241.993 321.621 260.214 310.906 255.72C250.902 237.592 187.065 236.447 126.452 252.411L219.852 28.7227C238.104 60.5209 261.338 89.1718 288.664 113.579Z" fill="white"/>
</mask>
<g mask="url(#mask0_102_22)">
<g style="mix-blend-mode:overlay">
<path d="M167.338 225.838C167.581 225.615 167.869 225.448 168.183 225.347C168.774 225.101 169.373 224.89 169.973 224.704C170.146 224.613 170.337 224.56 170.532 224.548C170.727 224.535 170.923 224.565 171.106 224.633C171.289 224.702 171.456 224.809 171.595 224.946C171.735 225.084 171.844 225.249 171.915 225.431C172.109 225.702 172.304 226.049 172.152 226.337C172.085 226.443 171.995 226.532 171.89 226.599C171.683 226.782 171.445 226.928 171.189 227.031C170.942 227.103 170.686 227.137 170.429 227.132L168.031 227.217C167.22 227.242 166.688 226.506 167.338 225.838ZM182.006 231.22C182.692 230.846 183.482 230.712 184.252 230.839C185.017 230.969 185.765 231.185 186.481 231.482C186.824 231.592 187.148 231.752 187.444 231.956C187.591 232.057 187.714 232.191 187.804 232.346C187.893 232.501 187.946 232.675 187.959 232.853C187.927 233.144 187.807 233.418 187.615 233.639C187.424 233.86 187.169 234.017 186.887 234.089C185.874 234.363 184.8 234.295 183.83 233.894C183.028 233.632 180.41 232.176 182.006 231.22ZM201.41 219.964C201.41 219.821 201.36 219.668 201.326 219.516C201.25 219.076 201.191 218.543 201.529 218.246C201.693 218.131 201.889 218.069 202.09 218.069C202.291 218.069 202.487 218.131 202.652 218.246C202.779 218.309 202.89 218.4 202.975 218.513C203.06 218.627 203.117 218.758 203.142 218.898C203.184 219.262 202.888 219.567 202.762 219.914C202.635 220.261 202.626 220.828 202.162 220.904C201.698 220.98 201.478 220.345 201.41 219.964ZM217.007 235.46C217.088 235.304 217.187 235.16 217.302 235.028C217.421 234.918 217.563 234.836 217.719 234.789C217.874 234.742 218.037 234.731 218.197 234.757C218.358 234.785 218.509 234.85 218.639 234.947C218.77 235.044 218.876 235.17 218.949 235.316C219.009 235.421 219.039 235.542 219.033 235.663C219.033 236.018 218.704 236.264 218.417 236.467C218.13 236.67 217.454 237.152 217.032 236.915C216.61 236.678 216.804 235.841 217.007 235.46ZM210.834 160.048C211.682 160.292 212.46 160.733 213.106 161.334C213.424 161.64 213.651 162.028 213.761 162.455C213.871 162.883 213.861 163.333 213.73 163.755C213.635 164.028 213.449 164.261 213.203 164.415C212.958 164.569 212.667 164.635 212.379 164.601C211.942 164.451 211.571 164.152 211.332 163.755C210.986 163.281 210.64 162.815 210.302 162.341C210 161.974 209.75 161.567 209.559 161.131C209.154 160.073 209.922 159.726 210.834 160.048ZM225.409 190.023C225.736 189.534 226.112 189.08 226.532 188.669C227.461 187.603 228.086 186.257 229.217 185.419C229.508 185.18 229.858 185.022 230.23 184.962C230.416 184.936 230.606 184.957 230.782 185.023C230.957 185.09 231.113 185.2 231.235 185.343C231.354 185.572 231.416 185.826 231.416 186.084C231.416 186.342 231.354 186.596 231.235 186.824C230.672 188.219 229.878 189.51 228.888 190.641C228.471 191.249 227.915 191.748 227.266 192.096C226.984 192.244 226.661 192.293 226.347 192.236C226.034 192.179 225.748 192.019 225.536 191.782C225.323 191.544 225.195 191.242 225.172 190.924C225.149 190.606 225.232 190.289 225.409 190.023ZM208.799 212.339C210.147 213.337 211.195 214.687 211.831 216.241C212.032 216.557 212.151 216.919 212.176 217.293C212.201 217.667 212.131 218.042 211.974 218.382C211.689 218.702 211.294 218.903 210.867 218.942C210.441 218.981 210.016 218.857 209.677 218.593C209.011 218.056 208.44 217.409 207.988 216.681C207.489 216.132 207.051 215.53 206.68 214.887C205.945 213.338 206.95 211.095 208.799 212.339ZM229.47 225.694C229.92 225.771 230.348 225.941 230.729 226.193C231.48 226.633 232.215 227.107 232.932 227.606C233.343 227.838 233.678 228.185 233.895 228.605C234.056 229.179 234.018 229.791 233.785 230.34C233.65 230.771 233.439 231.279 233 231.355C232.829 231.369 232.657 231.349 232.493 231.296C232.119 231.22 231.759 231.083 231.429 230.89C231.141 230.687 230.887 230.438 230.678 230.154L228.558 227.615C227.866 226.752 228.221 225.55 229.47 225.694ZM261.364 214.108C261.532 214.149 261.686 214.234 261.809 214.356C261.932 214.477 262.02 214.63 262.064 214.798C262.107 214.966 262.104 215.142 262.055 215.308C262.006 215.474 261.913 215.624 261.786 215.741C261.536 215.928 261.24 216.042 260.93 216.07C260.621 216.098 260.309 216.04 260.03 215.902C258.315 215.183 260.351 213.905 261.364 214.108ZM183.568 241.959C184.088 242.196 184.522 242.59 184.809 243.085C185.343 243.889 185.763 244.763 186.059 245.683C186.155 245.879 186.2 246.096 186.188 246.314C186.176 246.532 186.109 246.743 185.992 246.927C185.792 247.081 185.544 247.159 185.293 247.148C185.041 247.137 184.801 247.038 184.615 246.868C184.159 246.489 183.776 246.03 183.484 245.514C183.095 244.913 180.714 240.952 183.568 241.959ZM174.854 204.435C175.103 203.901 175.428 203.405 175.816 202.963C176.374 202.26 176.973 201.592 177.564 200.923C177.959 200.344 178.566 199.946 179.253 199.815C180.173 199.815 180.857 200.72 181.052 201.626C181.192 202.408 181.207 203.208 181.094 203.995C181.037 204.944 180.823 205.876 180.461 206.754C180.098 207.64 179.404 208.348 178.527 208.726C175.901 209.75 173.874 206.771 174.854 204.435ZM160.879 244.261C161.411 243.826 161.975 243.433 162.567 243.085C162.879 242.798 163.285 242.635 163.707 242.628C164.299 242.712 164.552 243.474 164.341 244.058C164.068 244.597 163.638 245.039 163.108 245.327L161.909 246.174C160.228 247.308 159.696 245.42 160.879 244.261ZM230.315 205.095C230.499 205.11 230.678 205.165 230.838 205.256C231.233 205.418 231.592 205.656 231.894 205.959C232.043 206.109 232.159 206.289 232.235 206.488C232.31 206.686 232.344 206.898 232.333 207.109C232.328 207.19 232.305 207.268 232.265 207.338C232.213 207.401 232.147 207.452 232.072 207.487C231.998 207.522 231.917 207.541 231.835 207.541C231.505 207.565 231.174 207.534 230.855 207.448C230.684 207.411 230.517 207.357 230.357 207.287C229.757 206.999 229.234 206.009 229.715 205.408C229.788 205.318 229.879 205.243 229.982 205.189C230.086 205.135 230.199 205.103 230.315 205.095ZM245.903 196.336C246.2 196.273 246.508 196.273 246.806 196.336C247.167 196.371 247.525 196.428 247.879 196.506C247.922 196.51 247.964 196.528 247.997 196.556C248.064 196.641 247.997 196.759 247.895 196.827C247.596 197.037 247.246 197.163 246.882 197.191C246.637 197.238 246.384 197.221 246.147 197.14C245.877 197.022 245.438 196.514 245.903 196.336ZM258.375 205.197C258.276 205.381 258.134 205.538 257.961 205.654C257.872 205.709 257.768 205.733 257.664 205.722C257.56 205.712 257.462 205.667 257.387 205.595C257.307 205.484 257.269 205.35 257.277 205.214C257.289 204.736 257.383 204.263 257.556 203.817L257.809 203.039C258.02 202.387 258.231 201.744 258.484 201.109C258.594 200.847 258.873 200.339 259.227 200.585C259.582 200.83 259.506 201.338 259.506 201.651C259.512 202.444 259.348 203.229 259.025 203.953C258.843 204.385 258.626 204.801 258.375 205.197ZM271.775 209.098C272.039 209.456 272.216 209.87 272.291 210.308C272.325 210.528 272.297 210.753 272.211 210.958C272.124 211.163 271.982 211.34 271.801 211.468C271.68 211.55 271.535 211.588 271.389 211.577C271.244 211.567 271.106 211.507 270.999 211.409C270.864 211.207 270.81 210.963 270.847 210.723V209.877C270.846 209.638 270.871 209.399 270.923 209.166C271.1 208.599 271.514 208.692 271.775 209.098ZM268.448 225.541C268.723 225.448 269.005 225.382 269.293 225.347C269.963 225.112 270.657 224.953 271.362 224.873C271.55 224.863 271.737 224.907 271.902 225C271.985 225.045 272.054 225.111 272.104 225.191C272.155 225.271 272.184 225.362 272.189 225.457C272.17 225.585 272.121 225.707 272.044 225.812C271.968 225.917 271.867 226.001 271.75 226.058C271.101 226.445 270.389 226.717 269.648 226.862C269.297 226.982 268.923 227.011 268.558 226.946C268.394 226.926 268.242 226.849 268.128 226.729C268.014 226.609 267.945 226.454 267.932 226.289C267.919 226.124 267.963 225.959 268.058 225.823C268.152 225.687 268.29 225.587 268.448 225.541ZM255.005 229.341C255.234 230.155 255.234 231.016 255.005 231.829C254.921 232.193 254.761 232.608 254.406 232.726C254.195 232.768 253.976 232.727 253.794 232.612C253.612 232.497 253.48 232.317 253.426 232.109C253.324 231.691 253.292 231.259 253.333 230.831C253.295 230.456 253.295 230.079 253.333 229.705C253.561 228.893 254.651 228.3 255.005 229.341ZM259.194 241.045C259.351 241.213 259.472 241.412 259.548 241.629C259.709 242.035 259.861 242.475 259.996 242.865C260.092 243.083 260.118 243.325 260.072 243.559C259.963 243.839 259.76 244.073 259.498 244.219C259.32 244.354 259.075 244.49 258.881 244.388C258.808 244.342 258.744 244.282 258.695 244.21C258.571 244.062 258.468 243.897 258.391 243.719C258.341 243.549 258.315 243.372 258.315 243.195C258.315 242.636 258.315 242.086 258.248 241.502C258.18 240.918 258.729 240.597 259.194 241.045ZM275.474 246.182C275.528 246.251 275.562 246.332 275.573 246.419C275.584 246.505 275.571 246.593 275.537 246.672C275.502 246.752 275.447 246.821 275.376 246.872C275.306 246.923 275.223 246.953 275.136 246.961C274.981 246.958 274.829 246.912 274.698 246.829C274.567 246.745 274.461 246.627 274.393 246.487C273.92 245.683 275.119 245.793 275.474 246.182ZM235.888 233.463C236.03 233.72 236.083 234.018 236.04 234.309C236.01 234.794 235.91 235.273 235.744 235.731C235.677 235.942 235.559 236.171 235.339 236.204C235.119 236.238 234.883 236.01 234.807 235.764C234.752 235.471 234.752 235.169 234.807 234.876C234.799 234.495 235.052 232.185 235.888 233.463ZM243.825 215.801C244.09 215.659 244.375 215.559 244.67 215.505C245.1 215.395 245.514 215.31 245.987 215.225C246.154 215.169 246.33 215.147 246.506 215.16C246.681 215.174 246.852 215.221 247.009 215.301C247.176 215.465 247.283 215.68 247.312 215.912C247.341 216.144 247.291 216.38 247.169 216.579C246.988 216.934 246.752 217.256 246.468 217.536C246.155 217.896 245.784 218.202 245.371 218.441C244.955 218.683 244.462 218.756 243.994 218.644C242.652 218.246 242.753 216.435 243.825 215.801ZM219.582 242.442C219.707 242.343 219.863 242.295 220.021 242.306C220.114 242.321 220.201 242.356 220.279 242.409C220.356 242.462 220.421 242.53 220.469 242.611C220.634 242.888 220.702 243.213 220.663 243.533C220.617 243.848 220.538 244.158 220.427 244.456C220.359 244.633 220.3 244.82 220.241 244.997C220.185 245.167 220.12 245.334 220.047 245.497C219.919 245.781 219.732 246.035 219.498 246.241C219.329 246.385 219.076 246.512 218.89 246.394C218.837 246.347 218.794 246.29 218.763 246.226C218.733 246.162 218.715 246.092 218.713 246.021C218.74 245.39 218.848 244.764 219.033 244.16C219.109 243.516 218.957 242.882 219.582 242.442ZM226.093 227.429C226.443 227.423 226.793 227.443 227.14 227.488C227.349 227.474 227.557 227.531 227.731 227.649C227.773 227.71 227.802 227.779 227.817 227.852C227.831 227.925 227.829 228.001 227.813 228.073C227.796 228.146 227.764 228.214 227.72 228.273C227.675 228.333 227.618 228.382 227.554 228.419C227.29 228.542 226.997 228.586 226.709 228.546H225.983C224.944 228.495 225.307 227.522 226.093 227.429ZM221.026 218.433C221.099 218.355 221.193 218.302 221.296 218.28C221.508 218.28 221.668 218.509 221.626 218.72C221.56 218.925 221.429 219.103 221.254 219.228C221.06 219.389 220.14 220.227 219.869 219.821C219.599 219.414 220.79 218.627 221.026 218.433ZM259.565 159.997C260.068 160.102 260.543 160.312 260.959 160.615C261.971 161.209 262.862 161.99 263.585 162.917C263.939 163.384 264.193 163.921 264.33 164.492C264.467 165.063 264.483 165.656 264.378 166.234C264.338 166.451 264.245 166.654 264.108 166.827C263.942 166.985 263.743 167.104 263.526 167.176C263.308 167.248 263.077 167.27 262.85 167.241C261.944 167.18 261.054 166.971 260.215 166.623C259.756 166.467 259.317 166.256 258.907 165.997C257.37 164.999 256.28 162.104 257.834 160.64C258.057 160.411 258.328 160.235 258.627 160.123C258.927 160.012 259.247 159.969 259.565 159.997ZM305.332 141.684C306.169 141.59 307.015 141.677 307.815 141.938C308.786 142.169 309.744 142.452 310.686 142.784C310.8 142.817 310.902 142.881 310.982 142.97C311.142 143.224 310.872 143.529 310.618 143.672C309.723 144.138 308.722 144.363 307.714 144.324C307.028 144.36 306.344 144.217 305.729 143.909C305.02 143.512 303.99 141.946 305.332 141.684ZM336.289 170.364C335.96 170.825 335.526 171.2 335.022 171.456C334.762 171.579 334.468 171.61 334.188 171.546C333.908 171.481 333.657 171.324 333.477 171.1C333.291 170.769 333.229 170.382 333.299 170.009C333.505 168.705 333.937 167.448 334.574 166.293C334.895 165.616 335.216 164.939 335.546 164.262C336.39 162.57 337.167 160.877 338.079 159.185C338.467 158.499 339.404 157.221 340.291 158.008C341.017 158.66 340.781 160.175 340.688 161.03C340.41 163.229 339.667 165.344 338.509 167.233C337.856 168.336 337.113 169.383 336.289 170.364ZM318.404 235.265C318.749 237.571 318.457 239.927 317.56 242.078C317.196 243.051 316.622 244.126 315.6 244.329C314.435 244.557 313.38 243.44 313.135 242.281C313.01 241.098 313.084 239.902 313.354 238.743C313.4 237.711 313.559 236.686 313.827 235.688C314.638 233.454 317.804 232.235 318.404 235.265ZM264.632 239.615C264.92 240.355 264.962 241.168 264.75 241.934C264.495 243.25 264.058 244.523 263.45 245.717C263.171 246.258 262.766 246.842 262.158 246.868C261.55 246.893 260.975 246.157 260.866 245.463C260.788 244.644 260.859 243.818 261.077 243.026C261.288 242.035 262.808 235.815 264.632 239.615ZM292.801 194.161C293.571 193.883 294.375 193.712 295.191 193.654C296.424 193.518 297.665 193.451 298.906 193.374C299.381 193.284 299.869 193.289 300.341 193.389C300.814 193.489 301.262 193.683 301.659 193.958C302.605 194.805 302.352 196.421 301.659 197.504C301.032 198.409 300.265 199.209 299.388 199.874C298.4 200.744 297.28 201.45 296.069 201.964C294.837 202.463 293.459 202.463 292.227 201.964C288.579 200.424 289.525 195.49 292.801 194.161ZM240.085 219.592C241.044 219.69 241.993 219.869 242.922 220.125C243.509 220.144 244.068 220.379 244.492 220.785C244.587 220.967 244.642 221.167 244.654 221.372C244.666 221.577 244.635 221.782 244.562 221.973C244.49 222.165 244.377 222.339 244.233 222.485C244.089 222.63 243.915 222.743 243.724 222.816C242.924 223.066 242.067 223.066 241.267 222.816L239.282 222.444C236.487 221.953 237.805 219.541 240.085 219.592ZM229.285 193.137C229.521 192.934 229.818 192.815 230.129 192.799C230.72 192.799 231.058 193.569 230.864 194.128C230.615 194.666 230.193 195.104 229.665 195.372C229.073 195.752 226.287 197.716 225.662 196.497C225.079 195.414 228.626 193.586 229.285 193.137Z" fill="white"/>
</g>
</g>
<path d="M106.471 253.266C80.1986 242.247 81.2829 179.715 108.893 113.598C136.503 47.4813 180.183 2.81615 206.455 13.8358C232.727 24.8554 231.643 87.3869 204.033 153.504C176.423 219.621 132.743 264.286 106.471 253.266Z" fill="#93FE9A"/>
<path d="M215.96 119.681L204.003 153.532C198.796 164.296 193.58 175.058 188.356 185.817L159.072 164.076C162.551 155.738 166.033 147.402 169.517 139.069L179.988 114.036L215.96 119.681Z" fill="#2A46B2"/>
<path d="M159.604 134.88C153.837 148.699 153.617 161.757 159.106 164.059C164.595 166.361 173.723 157.035 179.49 143.215C185.257 129.396 185.477 116.338 179.988 114.036C174.499 111.734 165.371 121.068 159.604 134.88Z" fill="#F83C17"/>
<path d="M115.01 259.596C127.736 259.596 142.631 251.361 158.076 235.578C176.897 216.325 194.74 187.814 208.318 155.309C237.349 85.7786 237.315 21.7577 208.242 9.56281C179.169 -2.63206 133.647 42.3138 104.616 111.819C91.046 144.324 83.3112 177.075 82.8467 204.063C82.357 232.472 90.1171 251.455 104.692 257.598C107.963 258.951 111.472 259.63 115.01 259.596ZM197.999 16.8577C200.283 16.8333 202.548 17.2678 204.662 18.1356C225.569 26.903 228.592 82.6728 199.764 151.721C186.634 183.168 169.475 210.639 151.447 229.07C134.685 246.216 118.954 253.469 108.272 248.992C97.5901 244.515 91.7046 228.19 92.1183 204.19C92.5575 178.387 100.039 146.855 113.17 115.407C139.194 53.07 175.749 16.8577 197.999 16.8577ZM260.385 432.101L269.302 436.781C276.56 440.596 285.033 441.365 292.858 438.92C300.682 436.474 307.216 431.014 311.024 423.74L391.007 270.851L349.242 248.907L257.775 423.731C257.017 425.189 256.866 426.888 257.355 428.456C257.844 430.025 258.933 431.336 260.385 432.101Z" fill="#254336"/>
<path d="M422.444 203.53C423.642 203.53 424.812 203.176 425.81 202.512C426.807 201.848 427.587 200.904 428.051 199.798C428.359 199.061 428.518 198.272 428.521 197.474C428.524 196.676 428.369 195.885 428.066 195.147C427.764 194.408 427.318 193.737 426.757 193.172C426.195 192.606 425.527 192.158 424.792 191.851L395.119 179.411C393.635 178.789 391.966 178.783 390.478 179.395C388.99 180.007 387.806 181.186 387.186 182.673C386.565 184.16 386.56 185.833 387.17 187.324C387.781 188.815 388.957 190.002 390.441 190.624L420.114 203.107C420.856 203.398 421.647 203.542 422.444 203.53ZM392.788 182.034C393.18 182.031 393.568 182.109 393.928 182.263L423.601 194.703C423.963 194.855 424.291 195.078 424.567 195.358C424.842 195.639 425.059 195.971 425.205 196.336C425.358 196.696 425.437 197.083 425.437 197.475C425.437 197.866 425.358 198.253 425.205 198.613C425.055 198.974 424.835 199.302 424.557 199.578C424.28 199.854 423.951 200.073 423.59 200.222C423.228 200.37 422.841 200.446 422.45 200.444C422.06 200.443 421.673 200.364 421.313 200.212L391.598 187.755C390.967 187.487 390.449 187.008 390.129 186.401C389.81 185.794 389.71 185.094 389.846 184.421C389.982 183.749 390.346 183.144 390.876 182.709C391.406 182.274 392.07 182.035 392.755 182.034H392.788ZM420.19 223.011C421.593 223.014 422.953 222.529 424.039 221.639C425.125 220.749 425.87 219.508 426.146 218.13C426.422 216.751 426.212 215.319 425.552 214.078C424.893 212.837 423.824 211.864 422.529 211.324L392.856 198.875C391.371 198.255 389.701 198.25 388.213 198.862C386.724 199.475 385.54 200.654 384.918 202.142C384.299 203.628 384.293 205.299 384.903 206.789C385.513 208.279 386.687 209.466 388.169 210.088L417.851 222.571C418.594 222.87 419.389 223.02 420.19 223.011ZM390.508 201.499C390.903 201.502 391.293 201.583 391.657 201.736L421.338 214.184C422.065 214.489 422.643 215.07 422.942 215.801C423.236 216.533 423.229 217.351 422.924 218.079C422.619 218.806 422.04 219.383 421.313 219.685C420.953 219.838 420.567 219.917 420.177 219.917C419.787 219.917 419.4 219.838 419.041 219.685L389.36 207.236C388.637 206.928 388.064 206.347 387.765 205.618C387.466 204.89 387.466 204.072 387.764 203.344C388.071 202.614 388.654 202.036 389.385 201.736C389.74 201.583 390.122 201.502 390.508 201.499ZM414.971 241.248C416.374 241.251 417.735 240.766 418.821 239.876C419.907 238.986 420.651 237.746 420.927 236.367C421.203 234.988 420.994 233.556 420.334 232.315C419.674 231.074 418.606 230.101 417.31 229.561L387.637 217.112C386.903 216.805 386.115 216.645 385.319 216.642C384.522 216.64 383.733 216.794 382.997 217.097C382.26 217.4 381.59 217.845 381.025 218.408C380.46 218.97 380.011 219.639 379.704 220.375C379.397 221.111 379.238 221.901 379.235 222.699C379.232 223.497 379.386 224.288 379.689 225.026C379.991 225.764 380.435 226.436 380.997 227.002C381.558 227.568 382.225 228.018 382.959 228.326L412.632 240.774C413.373 241.085 414.168 241.247 414.971 241.248ZM385.298 219.736C385.693 219.739 386.083 219.82 386.447 219.973L416.086 232.422C416.457 232.565 416.796 232.781 417.082 233.058C417.368 233.335 417.596 233.666 417.752 234.033C417.908 234.399 417.989 234.794 417.99 235.192C417.992 235.591 417.913 235.986 417.759 236.353C417.606 236.721 417.38 237.054 417.095 237.332C416.811 237.611 416.474 237.829 416.103 237.975C415.733 238.121 415.338 238.19 414.94 238.18C414.542 238.169 414.151 238.079 413.789 237.914L384.116 225.474C383.389 225.167 382.813 224.585 382.514 223.853C382.215 223.122 382.217 222.302 382.52 221.572C382.747 221.03 383.129 220.567 383.617 220.24C384.105 219.914 384.678 219.738 385.265 219.736H385.298Z" fill="#F59F4D"/>
<path d="M87.3398 100.968L24.7639 74.7086L22.2004 80.8442L84.7764 107.104L87.3398 100.968Z" fill="#5E3041"/>
<path d="M62.8203 163.317L62.5771 156.67L3.71885 158.833L3.96205 165.48L62.8203 163.317Z" fill="#5E3041"/>
<path d="M111.853 45.8513L72.0693 2.32442L67.1752 6.81742L106.958 50.3443L111.853 45.8513Z" fill="#5E3041"/>
<path d="M328.892 187.51L330.344 184.124C314.64 177.418 299.445 169.572 284.881 160.649C266.653 149.468 249.482 136.641 233.583 122.329L231.1 125.097C247.17 139.56 264.525 152.522 282.947 163.822C297.67 172.823 313.025 180.739 328.892 187.51ZM274.697 140.854L276.901 137.867C268.645 131.727 261.102 124.679 254.415 116.854C248.457 109.885 243.213 102.335 238.759 94.3174L235.517 96.12C245.233 113.659 258.58 128.912 274.664 140.854H274.697Z" fill="#2A46B2"/>
<path d="M435.195 363.426C441.182 367.386 447.219 371.245 453.24 375.07C454.108 375.491 454.802 376.204 455.199 377.085C455.351 377.812 455.298 378.568 455.047 379.268C448.112 405.607 433.116 429.106 412.168 446.463C411.555 447.068 410.786 447.49 409.947 447.681C408.823 447.688 407.735 447.288 406.882 446.556C393.717 437.712 381.49 427.531 369.094 417.63C367.667 416.487 365.201 414.541 362.009 412.197C356.157 412.033 350.325 411.425 344.564 410.377C336.671 408.941 328.946 406.695 321.511 403.675L353.928 341.719C351.997 336.752 350.475 331.634 349.377 326.418C347.537 317.611 346.912 308.593 347.519 299.616C342.393 302.425 336.695 304.023 330.859 304.288C332.246 306.215 333.501 308.234 334.617 310.33C335.607 312.098 336.454 313.944 337.15 315.848C338.881 321.069 338.501 328.204 333.89 331.868C332.469 332.961 330.804 333.691 329.039 333.994C327.273 334.298 325.461 334.167 323.757 333.611C324.197 338.384 323.133 343.572 319.367 346.898C318.102 348.025 316.604 348.858 314.981 349.336C313.358 349.814 311.649 349.927 309.977 349.665C311.944 354.125 309.977 359.77 306.329 362.85C305.088 363.885 303.65 364.656 302.103 365.116C300.555 365.576 298.93 365.715 297.327 365.524C296.39 369.688 291.982 372.464 287.726 372.396C279.493 372.261 272.763 364.416 269.546 357.519C266.464 350.901 265.51 341.439 272.079 336.616C272.455 336.385 272.78 336.08 273.034 335.719C273.268 335.187 273.347 334.6 273.262 334.026C273.081 329.994 274.085 325.998 276.149 322.534C277.067 320.954 278.167 319.489 279.426 318.167C280.778 317.257 282.211 316.475 283.707 315.831C284.197 312.048 284.957 308.214 286.941 304.956C288.925 301.698 292.388 299.134 296.23 299.142C295.831 295.345 296.585 291.516 298.393 288.155C300.201 284.794 302.978 282.058 306.363 280.304C311.21 277.918 317.948 278.231 321.047 282.674C321.047 282.674 332.945 276.327 334.059 275.802C338.593 273.635 343.302 271.857 348.136 270.487C356.884 268.092 367.988 266.789 375.925 272.282C377.378 273.289 379.083 275.201 382.495 279.052C386.512 283.616 390.181 288.476 393.472 293.591C397.516 299.659 400.955 306.11 403.74 312.852C407.958 323.383 410.323 334.567 410.732 345.908C411.306 346.449 412.159 347.245 413.206 348.176C415.967 350.528 423.753 355.868 435.195 363.426Z" fill="#FFDBAB"/>
<path d="M301.246 364.289C302.194 364.023 303.064 363.53 303.782 362.854C304.5 362.177 305.043 361.337 305.366 360.404C305.595 359.572 305.632 358.699 305.476 357.851C305.319 357.002 304.973 356.2 304.463 355.504C303.508 354.212 302.191 353.234 300.68 352.695C299.993 352.374 299.213 352.314 298.484 352.526C297.971 352.723 297.518 353.049 297.167 353.473C295.483 355.276 294.11 357.346 293.105 359.6L295.217 360.514C296.114 358.497 297.341 356.643 298.847 355.031C298.957 354.9 299.085 354.786 299.227 354.692C299.227 354.692 299.371 354.65 299.835 354.827C300.913 355.216 301.857 355.906 302.554 356.816C302.856 357.225 303.064 357.696 303.163 358.195C303.262 358.694 303.25 359.208 303.129 359.702C302.915 360.271 302.567 360.78 302.116 361.186C301.665 361.593 301.123 361.885 300.536 362.038L301.246 364.289ZM287.482 371.787C288.516 371.604 289.462 371.087 290.175 370.314C290.555 369.887 290.836 369.381 290.996 368.832C291.157 368.284 291.194 367.706 291.104 367.141C290.865 366.174 290.359 365.294 289.643 364.602C289.122 363.94 288.412 363.453 287.608 363.206C287.022 363.107 286.42 363.15 285.853 363.331C285.286 363.512 284.77 363.826 284.349 364.247C283.046 365.333 282.019 366.714 281.351 368.275L283.513 369.163C284.032 367.943 284.834 366.864 285.852 366.015C286.367 365.592 286.823 365.372 287.102 365.448C287.38 365.524 287.743 365.922 287.946 366.134C288.36 366.527 288.668 367.019 288.841 367.564C288.869 367.781 288.848 368.001 288.781 368.208C288.714 368.416 288.602 368.606 288.453 368.766C288.088 369.156 287.604 369.415 287.076 369.502L287.482 371.787ZM330.226 305.371L330.293 303.052C328.34 302.992 326.424 302.494 324.687 301.594C322.951 300.694 321.437 299.417 320.258 297.854C319.079 296.291 318.264 294.484 317.873 292.565C317.482 290.645 317.525 288.662 317.999 286.761C318.195 285.632 318.759 284.599 319.603 283.825L318.168 281.988C316.906 283.083 316.054 284.575 315.753 286.22C315.192 288.457 315.14 290.792 315.599 293.053C316.058 295.314 317.017 297.442 318.406 299.282C319.795 301.122 321.577 302.627 323.623 303.685C325.669 304.743 327.925 305.328 330.226 305.396V305.371ZM372.759 365.347L373.899 363.316C365.787 358.715 359.297 351.708 355.322 343.259L353.219 344.249C357.403 353.135 364.229 360.504 372.759 365.347ZM365.083 412.273C367.072 411.836 368.96 411.027 370.648 409.886L369.348 407.957C367.908 408.935 366.294 409.628 364.593 409.996L365.083 412.273Z" fill="#E7A577"/>
<path d="M325.109 298.211C325.575 298.202 326.04 298.142 326.494 298.034C330.687 297.152 334.727 295.655 338.484 293.591C339.05 293.363 339.503 292.92 339.743 292.358C339.984 291.797 339.993 291.163 339.768 290.595C338.877 287.118 337.531 283.774 335.765 280.651L333.739 281.802C335.419 284.745 336.702 287.898 337.555 291.179C337.58 291.271 337.6 291.364 337.614 291.458C337.614 291.458 337.513 291.458 337.403 291.551C333.847 293.511 330.024 294.936 326.054 295.783C325.635 295.909 325.191 295.93 324.762 295.842C324.417 295.633 324.127 295.342 323.918 294.996C323.105 293.82 322.409 292.567 321.841 291.255C321.385 290.197 321.292 289.452 321.554 289.029L319.603 287.777C318.531 289.469 319.417 291.509 319.713 292.186C320.341 293.637 321.111 295.024 322.01 296.324C322.444 297.054 323.081 297.642 323.842 298.017C324.248 298.162 324.678 298.228 325.109 298.211ZM322.643 333.899L323.791 331.876C321.363 330.55 319.017 329.078 316.766 327.467C307.587 320.621 302.352 309.585 297.733 299.853L295.639 300.852C300.367 310.829 305.772 322.144 315.373 329.329C317.702 330.998 320.13 332.524 322.643 333.899ZM308.237 350.554L308.854 348.311C303.912 346.948 299.439 344.249 295.926 340.508C293.783 338.16 291.95 335.546 290.471 332.731C287.747 327.723 285.805 322.326 284.712 316.728L282.432 317.168C283.568 323.003 285.59 328.628 288.427 333.848C290.002 336.838 291.954 339.611 294.237 342.099C298.038 346.156 302.883 349.082 308.237 350.554ZM296.179 366.168L297.361 364.162C292.59 361.335 287.119 357.806 282.618 353.076C279.409 349.69 275.364 344.215 274.309 337.267L272.012 337.623C273.16 345.163 277.501 351.061 280.937 354.675C285.649 359.617 291.29 363.256 296.179 366.168Z" fill="#E7A577"/>
<path d="M328.174 332.046C329.478 331.374 330.503 330.261 331.066 328.904C331.629 327.546 331.693 326.033 331.247 324.632C330.403 322.203 328.309 320.765 326.046 319.377C325.674 319.091 325.236 318.903 324.773 318.831C324.31 318.759 323.836 318.804 323.394 318.962C322.972 319.174 322.613 319.496 322.356 319.893L317.999 325.682L319.822 327.087L324.18 321.29C324.23 321.23 324.306 321.129 324.357 321.078C324.408 321.027 324.501 321.171 324.813 321.366C326.696 322.517 328.444 323.693 329.035 325.394C329.298 326.257 329.252 327.185 328.905 328.018C328.558 328.85 327.932 329.536 327.135 329.955L328.174 332.046ZM314.587 348.421C315.525 347.716 316.254 346.768 316.697 345.68C317.139 344.591 317.279 343.403 317.1 342.241C316.922 341.08 316.432 339.989 315.683 339.084C314.934 338.18 313.954 337.496 312.848 337.106C312.29 336.896 311.693 336.815 311.1 336.869C309.411 337.056 308.381 338.562 307.832 339.366L304.353 344.444L306.27 345.764L309.749 340.686C310.255 339.941 310.804 339.248 311.361 339.188C311.607 339.178 311.852 339.221 312.079 339.315C312.79 339.564 313.419 340.001 313.9 340.581C314.382 341.161 314.696 341.861 314.811 342.606C314.925 343.351 314.835 344.114 314.551 344.812C314.266 345.51 313.797 346.117 313.194 346.568L314.587 348.421Z" fill="#E7A577"/>
</g>
<defs>
<linearGradient id="paint0_linear_102_22" x1="242.946" y1="256.401" x2="243" y2="60.9999" gradientUnits="userSpaceOnUse">
<stop stop-color="#93FE9A"/>
<stop offset="0.793906" stop-color="#F49E4C"/>
</linearGradient>
<clipPath id="clip0_102_22">
<rect width="457.613" height="450" fill="white" transform="matrix(-1 0 0 1 458.307 0)"/>
</clipPath>
</defs>
</svg>
