<svg width="55" height="65" viewBox="0 0 55 65" fill="none" xmlns="http://www.w3.org/2000/svg">
<path d="M45.4026 51.3603L47.8658 45.5415L53.6846 43.0783C53.875 42.9978 54.0375 42.863 54.1517 42.6907C54.2659 42.5185 54.3268 42.3164 54.3268 42.1097C54.3268 41.903 54.2659 41.7009 54.1517 41.5286C54.0375 41.3563 53.875 41.2215 53.6846 41.141L47.8519 38.6571L45.4026 32.8521C45.3221 32.6617 45.1873 32.4993 45.0151 32.3851C44.8428 32.2709 44.6407 32.21 44.434 32.21C44.2273 32.21 44.0252 32.2709 43.8529 32.3851C43.6806 32.4993 43.5458 32.6617 43.4653 32.8521L40.9883 38.6571L35.1695 41.1203C34.9791 41.2007 34.8167 41.3356 34.7025 41.5078C34.5883 41.6801 34.5273 41.8822 34.5273 42.0889C34.5273 42.2956 34.5883 42.4977 34.7025 42.67C34.8167 42.8423 34.9791 42.9771 35.1695 43.0576L40.9883 45.5207L43.4515 51.3396C43.5277 51.535 43.6607 51.7032 43.8333 51.8225C44.0059 51.9418 44.2103 52.0067 44.4201 52.0089C44.6299 52.0112 44.8355 51.9506 45.0106 51.835C45.1857 51.7194 45.3222 51.5541 45.4026 51.3603Z" fill="#FFD700"/>
<path d="M11.2773 19.1504L13.7404 13.3315L19.5593 10.8684C19.7496 10.7879 19.9121 10.6531 20.0263 10.4808C20.1405 10.3085 20.2014 10.1064 20.2014 9.89971C20.2014 9.69302 20.1405 9.4909 20.0263 9.31862C19.9121 9.14635 19.7496 9.01155 19.5593 8.93105L13.7404 6.46789L11.2773 0.642119C11.1968 0.451745 11.062 0.289309 10.8897 0.175107C10.7174 0.0609051 10.5153 0 10.3086 0C10.1019 0 9.89984 0.0609051 9.72757 0.175107C9.55529 0.289309 9.42047 0.451745 9.33998 0.642119L6.8699 6.46789L1.0718 8.93105C0.881422 9.01155 0.718975 9.14635 0.604773 9.31862C0.490571 9.4909 0.429687 9.69302 0.429687 9.89971C0.429687 10.1064 0.490571 10.3085 0.604773 10.4808C0.718975 10.6531 0.881422 10.7879 1.0718 10.8684L6.89063 13.3315L9.37457 19.1504C9.45959 19.3308 9.59417 19.4834 9.76262 19.5902C9.93107 19.6971 10.1264 19.7538 10.3259 19.7538C10.5254 19.7538 10.7208 19.6971 10.8892 19.5902C11.0577 19.4834 11.1923 19.3308 11.2773 19.1504Z" fill="#FFD700"/>
<path d="M10.8614 64.0609L13.3246 58.2421L19.1435 55.7789C19.3339 55.6984 19.4963 55.5636 19.6105 55.3914C19.7247 55.2191 19.7856 55.017 19.7856 54.8103C19.7856 54.6036 19.7247 54.4015 19.6105 54.2292C19.4963 54.0569 19.3339 53.9221 19.1435 53.8416L13.3246 51.3785L10.8614 45.5596C10.781 45.3692 10.6461 45.2068 10.4739 45.0926C10.3016 44.9784 10.0995 44.9175 9.89277 44.9175C9.68608 44.9175 9.48401 44.9784 9.31173 45.0926C9.13945 45.2068 9.00464 45.3692 8.92414 45.5596L6.46099 51.3785L0.642108 53.8416C0.451734 53.9221 0.28933 54.0569 0.175128 54.2292C0.0609262 54.4015 0 54.6036 0 54.8103C0 55.017 0.0609262 55.2191 0.175128 55.3914C0.28933 55.5636 0.451734 55.6984 0.642108 55.7789L6.46099 58.2421L8.92414 64.0609C9.00464 64.2513 9.13945 64.4138 9.31173 64.528C9.48401 64.6422 9.68608 64.7031 9.89277 64.7031C10.0995 64.7031 10.3016 64.6422 10.4739 64.528C10.6461 64.4138 10.781 64.2513 10.8614 64.0609Z" fill="#FFD700"/>
</svg>
