<svg width="370" height="208" viewBox="0 0 370 208" fill="none" xmlns="http://www.w3.org/2000/svg">
<g filter="url(#filter0_d_322_281)">
<path d="M321.384 142.182C316.227 142.182 312.047 138.001 312.047 132.845V104.435C312.047 99.2785 307.867 95.0983 302.711 95.0983H270.308C265.152 95.0983 260.971 90.9182 260.971 85.7617V57.3517C260.971 52.1953 256.791 48.0151 251.635 48.0151H219.232C214.076 48.0151 209.896 43.835 209.896 38.6785V10.2685C209.896 5.11203 205.715 0.931885 200.559 0.931885H157.345C152.188 0.931885 148.008 5.11203 148.008 10.2685V38.6785C148.008 43.835 143.828 48.0151 138.671 48.0151H106.269C101.112 48.0151 96.9323 52.1953 96.9323 57.3517V85.7617C96.9323 90.9182 92.7521 95.0983 87.5956 95.0983H55.193C50.0366 95.0983 45.8564 99.2785 45.8564 104.435V132.845C45.8564 138.001 41.6763 142.182 36.5198 142.182H9.33661C4.18014 142.182 0 146.362 0 151.518V174.697C0 179.853 4.18015 184.033 9.33662 184.033H348.567C353.724 184.033 357.904 179.853 357.904 174.697V151.518C357.904 146.362 353.724 142.182 348.567 142.182H321.384Z" fill="#05969B"/>
<path d="M308.416 132.845C308.416 140.007 314.222 145.812 321.384 145.812H348.567C351.718 145.812 354.273 148.367 354.273 151.518V174.697C354.273 177.848 351.718 180.402 348.567 180.402H9.33662C6.18543 180.402 3.63091 177.848 3.63091 174.697V151.518C3.63091 148.367 6.18544 145.812 9.33661 145.812H36.5198C43.6816 145.812 49.4873 140.007 49.4873 132.845V104.435C49.4873 101.284 52.0419 98.7292 55.193 98.7292H87.5956C94.7574 98.7292 100.563 92.9235 100.563 85.7617V57.3517C100.563 54.2006 103.118 51.646 106.269 51.646H138.671C145.833 51.646 151.639 45.8403 151.639 38.6785V10.2685C151.639 7.11732 154.194 4.56279 157.345 4.56279H200.559C203.71 4.56279 206.265 7.11732 206.265 10.2685V38.6785C206.265 45.8403 212.07 51.646 219.232 51.646H251.635C254.786 51.646 257.341 54.2006 257.341 57.3517V85.7617C257.341 92.9235 263.146 98.7292 270.308 98.7292H302.711C305.862 98.7292 308.416 101.284 308.416 104.435V132.845Z" stroke="#26103D" stroke-width="7.26181"/>
</g>
<defs>
<filter id="filter0_d_322_281" x="0" y="0.931885" width="369.315" height="206.443" filterUnits="userSpaceOnUse" color-interpolation-filters="sRGB">
<feFlood flood-opacity="0" result="BackgroundImageFix"/>
<feColorMatrix in="SourceAlpha" type="matrix" values="0 0 0 0 0 0 0 0 0 0 0 0 0 0 0 0 0 0 127 0" result="hardAlpha"/>
<feOffset dx="11.4114" dy="23.3415"/>
<feComposite in2="hardAlpha" operator="out"/>
<feColorMatrix type="matrix" values="0 0 0 0 0.14902 0 0 0 0 0.0627451 0 0 0 0 0.239216 0 0 0 1 0"/>
<feBlend mode="normal" in2="BackgroundImageFix" result="effect1_dropShadow_322_281"/>
<feBlend mode="normal" in="SourceGraphic" in2="effect1_dropShadow_322_281" result="shape"/>
</filter>
</defs>
</svg>
