<svg width="42" height="42" viewBox="0 0 42 42" fill="none" xmlns="http://www.w3.org/2000/svg">
<path d="M23.0429 40.6801L28.2753 28.3194L40.6359 23.0871C41.0403 22.9161 41.3854 22.6297 41.628 22.2637C41.8706 21.8978 42 21.4685 42 21.0294C42 20.5903 41.8706 20.161 41.628 19.795C41.3854 19.4291 41.0403 19.1427 40.6359 18.9717L28.2753 13.7394L23.0429 1.36402C22.872 0.959616 22.5856 0.614563 22.2196 0.37197C21.8537 0.129377 21.4243 0 20.9852 0C20.5462 0 20.1169 0.129377 19.751 0.37197C19.385 0.614563 19.0986 0.959616 18.9276 1.36402L13.6806 13.7394L1.36399 18.9717C0.959593 19.1427 0.614518 19.4291 0.371925 19.795C0.129332 20.161 0 20.5903 0 21.0294C0 21.4685 0.129332 21.8978 0.371925 22.2637C0.614518 22.6297 0.959593 22.9161 1.36399 23.0871L13.7246 28.3194L19.0011 40.6801C19.1817 41.0634 19.4676 41.3874 19.8254 41.6144C20.1833 41.8414 20.5983 41.9619 21.022 41.9619C21.4458 41.9619 21.8608 41.8414 22.2186 41.6144C22.5765 41.3874 22.8623 41.0634 23.0429 40.6801Z" />
</svg>
