<svg width="233" height="163" viewBox="0 0 233 163" fill="none" xmlns="http://www.w3.org/2000/svg">
<rect width="233" height="163" fill="#1E1E1E"/>
<path d="M-297 -433C-297 -434.104 -296.105 -435 -295 -435H331C332.105 -435 333 -434.105 333 -433V10371C333 10372.1 332.105 10373 331 10373H-295C-296.105 10373 -297 10372.1 -297 10371V-433Z" fill="#444444"/>
<path d="M-295 -434H331V-436H-295V-434ZM332 -433V10371H334V-433H332ZM331 10372H-295V10374H331V10372ZM-296 10371V-433H-298V10371H-296ZM-295 10372C-295.552 10372 -296 10371.6 -296 10371H-298C-298 10372.7 -296.657 10374 -295 10374V10372ZM332 10371C332 10371.6 331.552 10372 331 10372V10374C332.657 10374 334 10372.7 334 10371H332ZM331 -434C331.552 -434 332 -433.552 332 -433H334C334 -434.657 332.657 -436 331 -436V-434ZM-295 -436C-296.657 -436 -298 -434.656 -298 -433H-296C-296 -433.552 -295.552 -434 -295 -434V-436Z" fill="white" fill-opacity="0.1"/>
<g clip-path="url(#clip0_54_2)">
<rect width="430" height="1142" transform="translate(-197 -335)" fill="#05969B"/>
<g opacity="0.14">
<g filter="url(#filter0_d_54_2)">
<path d="M228.533 151.618C222.314 155.68 219.451 146.072 212.022 146.072C204.593 146.072 204.592 152.11 197.163 152.11C189.735 152.11 189.733 146.072 182.305 146.072C174.876 146.072 174.875 152.11 167.445 152.11C160.014 152.11 160.016 146.072 152.586 146.072C145.156 146.072 145.156 152.11 137.727 152.11C130.298 152.11 130.297 146.072 122.868 146.072C115.44 146.072 115.438 152.11 108.01 152.11C100.581 152.11 100.58 146.072 93.1497 146.072C85.7197 146.072 85.721 152.11 78.291 152.11C70.861 152.11 70.861 146.072 63.4323 146.072C56.0036 146.072 56.0023 152.11 48.5736 152.11C41.1449 152.11 41.1435 146.072 33.7135 146.072C26.2835 146.072 26.2836 152.11 18.8536 152.11C11.4235 152.11 11.8662 150.626 5.64581 146.564C1.58209 143.91 0.972656 144.239 0.972656 139.387C0.972656 134.536 7.01438 134.531 7.01438 129.684C7.01438 124.836 0.972656 124.827 0.972656 119.98C0.972656 115.133 7.01438 115.123 7.01438 110.276C7.01438 105.429 0.972656 105.42 0.972656 100.572C0.972656 95.7251 7.01438 95.7159 7.01438 90.8686C7.01438 86.0213 0.972656 86.0122 0.972656 81.1649C0.972656 76.3176 7.01438 76.3084 7.01438 71.4598C7.01438 66.6112 0.972656 66.6033 0.972656 61.756C0.972656 56.9088 7.01438 56.8996 7.01438 52.051C7.01438 47.2024 0.972656 47.1945 0.972656 42.3472C0.972656 37.4999 7.01438 37.4907 7.01438 32.6434C7.01438 27.7961 0.972656 27.787 0.972656 22.9384C0.972656 18.0898 7.01438 18.0819 7.01438 13.2333C7.01438 8.38469 -1.7238 3.65161 2.34123 1.00155C8.56027 -3.06082 11.4235 6.54712 18.8522 6.54712C26.2809 6.54712 26.2822 0.50934 33.7109 0.50934C41.1396 0.50934 41.141 6.54712 48.5697 6.54712C55.9984 6.54712 55.9996 0.50934 63.4296 0.50934C70.8596 0.50934 70.8584 6.54712 78.2884 6.54712C85.7184 6.54712 85.7184 0.50934 93.1471 0.50934C100.576 0.50934 100.577 6.54712 108.006 6.54712C115.434 6.54712 115.436 0.50934 122.864 0.50934C130.293 0.50934 130.295 6.54712 137.725 6.54712C145.155 6.54712 145.153 0.50934 152.583 0.50934C160.013 0.50934 160.013 6.54712 167.442 6.54712C174.871 6.54712 174.872 0.50934 182.301 0.50934C189.729 0.50934 189.731 6.54712 197.161 6.54712C204.591 6.54712 204.591 0.50934 212.021 0.50934C219.451 0.50934 219.008 1.99385 225.228 6.05491C229.292 8.7089 229.902 8.38079 229.902 13.232C229.902 18.0832 223.86 18.0884 223.86 22.9357C223.86 27.783 229.902 27.7922 229.902 32.6395C229.902 37.4868 223.86 37.496 223.86 42.3433C223.86 47.1906 229.902 47.1997 229.902 52.047C229.902 56.8943 223.86 56.9035 223.86 61.7508C223.86 66.5981 229.902 66.6072 229.902 71.4545C229.902 76.3018 223.86 76.311 223.86 81.1596C223.86 86.0082 229.902 86.0161 229.902 90.8633C229.902 95.7106 223.86 95.7198 223.86 100.568C223.86 105.417 229.902 105.425 229.902 110.272C229.902 115.119 223.86 115.129 223.86 119.976C223.86 124.823 229.902 124.832 229.902 129.681C229.902 134.53 222.604 135.588 223.991 140.243C225.877 146.629 232.598 148.96 228.533 151.618Z" fill="#05969B"/>
</g>
<path d="M23.5246 120.068L25.5013 124.07L29.921 124.712L26.7228 127.828L27.478 132.227L23.5246 130.15L19.5699 132.227L20.3251 127.828L17.127 124.712L21.5479 124.07L23.5246 120.068Z" fill="#FFADE3"/>
<path d="M211.08 12.7004L213.058 16.7024L217.478 17.3443L214.279 20.4603L215.035 24.86L211.08 22.7822L207.127 24.86L207.882 20.4603L204.684 17.3443L209.103 16.7024L211.08 12.7004Z" fill="#FFADE3"/>
<path d="M198.214 63.289V62.1898C198.214 62.0081 198.122 61.8234 198.122 61.6417V61.0846C198.122 60.9029 198.029 60.7182 198.029 60.5365C197.98 60.3201 197.919 60.1063 197.848 59.8961V59.345C197.848 59.1633 197.664 58.9786 197.664 58.7969C197.572 58.6122 197.571 58.4305 197.482 58.2458C197.482 58.0641 197.39 57.9717 197.298 57.787L197.024 57.2389C196.909 57.1137 196.843 56.9505 196.84 56.7802C196.75 56.6878 196.84 56.5061 196.932 56.3214C197.038 56.21 197.161 56.1173 197.298 56.0474C197.423 55.9329 197.586 55.8683 197.756 55.8657H198.854C199.035 55.8657 199.219 55.7733 199.401 55.7733C199.582 55.7733 199.767 55.8657 199.951 55.8657H209.83C209.999 55.8688 210.162 55.9334 210.288 56.0474C210.425 56.1173 210.548 56.21 210.654 56.3214C210.719 56.4654 210.749 56.6224 210.743 56.7802C210.741 56.9501 210.676 57.1133 210.562 57.2389C210.469 57.4206 210.469 57.6053 210.377 57.787C210.285 57.9687 210.103 58.0641 210.103 58.2458C210.011 58.4305 210.011 58.6122 209.922 58.7969C209.903 58.9912 209.84 59.1786 209.738 59.345C209.752 59.5334 209.721 59.7227 209.645 59.8961C209.645 60.0778 209.556 60.2625 209.556 60.5365C209.556 60.6289 209.464 60.9029 209.464 61.0846C209.464 61.2663 209.372 61.451 209.372 61.6357C209.372 61.8204 209.464 62.0021 209.372 62.1838V63.9265C209.386 64.114 209.355 64.3022 209.28 64.4746C209.28 64.7486 209.372 64.7486 209.372 65.0257C209.372 65.3027 209.28 65.2997 209.28 65.5738V66.673C209.28 66.947 209.19 66.947 209.19 67.2211V69.4254C209.116 69.5989 209.084 69.7881 209.098 69.9765V70.5246C209.006 70.8017 209.098 70.8017 209.098 71.0757V71.6238C209.023 71.7973 208.992 71.9865 209.006 72.1749C209.021 72.3624 208.989 72.5507 208.914 72.723C208.914 73.0001 209.006 73.0001 208.914 73.2741V74.9214C208.914 75.1985 208.824 75.1985 208.824 75.4725C208.824 75.7466 208.914 75.7466 208.824 76.0206V76.5747C208.839 76.7622 208.808 76.9505 208.732 77.1228V79.3212C208.747 79.5097 208.715 79.699 208.64 79.8723V80.4204C208.64 80.6974 208.732 80.6974 208.732 80.9715C208.657 81.1439 208.625 81.3321 208.64 81.5196V82.6188C208.64 82.8958 208.548 82.8958 208.548 83.1699V83.724C208.459 84.001 208.548 84.001 208.548 84.275V84.8232C208.548 85.1002 208.459 85.1002 208.459 85.3743V85.9224C208.384 86.0958 208.352 86.285 208.366 86.4734C208.366 86.7475 208.459 86.7475 208.366 87.0216V88.6719C208.366 88.9459 208.274 88.9459 208.274 89.22V90.8732C208.289 91.0607 208.257 91.249 208.182 91.4214C208.182 91.6984 208.274 91.6984 208.274 91.9724C208.199 92.1448 208.167 92.333 208.182 92.5205V93.0716C208.109 93.2447 208.079 93.4325 208.093 93.6197V94.7189C208.093 94.996 208.001 94.996 208.001 95.27C208.024 95.429 207.992 95.5913 207.908 95.7288C207.908 95.9105 207.727 96.0028 207.635 96.1845C207.45 96.2769 207.361 96.3692 207.176 96.4616C207.035 96.5342 206.876 96.5651 206.718 96.5509H202.786C202.512 96.5509 202.512 96.6433 202.146 96.6433C201.873 96.6433 201.873 96.5509 201.596 96.5509H201.049C200.861 96.5652 200.672 96.5346 200.498 96.4616C200.42 96.4485 200.345 96.4164 200.281 96.3682C200.218 96.3199 200.167 96.2569 200.133 96.1845C199.951 96.0952 199.951 95.9105 199.859 95.7288C199.745 95.6028 199.681 95.4399 199.677 95.27V93.6197C199.602 93.4474 199.571 93.2591 199.585 93.0716V91.9724C199.585 91.6984 199.493 91.6984 199.493 91.4214V89.774C199.418 89.6007 199.386 89.4114 199.401 89.2229V88.1238C199.401 87.8497 199.312 87.8497 199.312 87.5756V85.9254C199.326 85.7378 199.294 85.5496 199.219 85.3772V83.724C199.219 83.4499 199.127 83.4499 199.127 83.1758C199.127 82.9018 199.035 82.9018 199.035 82.6248V81.5256C198.946 81.2515 199.035 81.2515 199.035 80.9775C198.946 80.7034 199.035 80.7034 199.035 80.4264C199.035 80.1493 198.946 80.1523 198.946 79.8783V78.7791C198.87 78.6057 198.839 78.4165 198.854 78.228V77.6799C198.868 77.4914 198.836 77.3022 198.761 77.1288C198.761 76.8547 198.854 76.8547 198.854 76.5807C198.854 76.3066 198.761 76.3066 198.761 76.0296V74.9304C198.761 74.6563 198.669 74.6563 198.669 74.3823V72.732C198.683 72.5448 198.652 72.357 198.58 72.1839V71.6328C198.488 71.3587 198.58 71.3587 198.58 71.0847V70.5336C198.58 70.2595 198.488 70.2595 198.488 69.9855V68.3352C198.412 68.1628 198.381 67.9746 198.395 67.7871V67.236C198.395 66.9619 198.303 66.9619 198.303 66.6879V66.1397C198.214 65.8627 198.303 65.8627 198.303 65.5887C198.303 65.3146 198.214 65.3146 198.214 65.0406V63.289ZM204.342 101.579C204.514 101.652 204.702 101.682 204.889 101.669C205.074 101.761 205.255 101.761 205.439 101.853C205.624 101.946 205.805 101.946 205.987 102.035C206.168 102.124 206.263 102.312 206.445 102.401C206.626 102.491 206.811 102.494 206.903 102.678C207.092 102.745 207.254 102.875 207.361 103.045C207.45 103.134 207.543 103.319 207.727 103.501C207.816 103.593 207.908 103.778 208.093 103.959C208.182 104.052 208.182 104.233 208.274 104.418C208.376 104.584 208.439 104.772 208.459 104.966C208.559 105.134 208.62 105.323 208.64 105.517C208.732 105.699 208.732 105.884 208.824 106.065V106.617C208.824 106.798 208.732 106.983 208.732 107.165V107.716C208.63 107.882 208.567 108.069 208.548 108.264C208.448 108.432 208.386 108.62 208.366 108.815C208.294 108.978 208.202 109.133 208.093 109.274C208.024 109.461 207.895 109.622 207.727 109.729C207.635 109.914 207.45 110.006 207.361 110.096C207.177 110.281 207.084 110.462 206.903 110.555C206.764 110.667 206.61 110.759 206.445 110.829C206.281 110.901 206.127 110.994 205.987 111.106L205.439 111.38C205.255 111.472 205.074 111.472 204.889 111.561H203.791C203.61 111.561 203.426 111.654 203.244 111.561C203.056 111.576 202.867 111.545 202.694 111.472C202.5 111.453 202.312 111.39 202.146 111.287C201.958 111.302 201.769 111.27 201.596 111.195C201.415 111.106 201.322 110.921 201.141 110.829C200.976 110.759 200.822 110.667 200.683 110.555C200.498 110.373 200.317 110.281 200.225 110.188C200.156 109.999 200.028 109.838 199.859 109.729C199.767 109.548 199.585 109.455 199.493 109.274C199.401 109.092 199.401 108.907 199.312 108.815C199.21 108.647 199.146 108.459 199.127 108.264C199.026 108.097 198.964 107.91 198.946 107.716C198.87 107.542 198.839 107.353 198.854 107.165C198.778 106.992 198.747 106.804 198.761 106.617V106.065C198.78 105.871 198.844 105.684 198.946 105.517C198.931 105.329 198.962 105.14 199.035 104.966C199.127 104.785 199.127 104.6 199.219 104.418C199.29 104.254 199.382 104.099 199.493 103.959C199.592 103.79 199.716 103.635 199.859 103.501C199.951 103.319 200.132 103.227 200.225 103.045C200.398 102.951 200.553 102.827 200.683 102.678C200.864 102.586 200.956 102.401 201.141 102.312C201.279 102.199 201.433 102.106 201.596 102.035C201.764 101.935 201.952 101.873 202.146 101.853C202.328 101.761 202.512 101.761 202.694 101.669H203.271C203.444 101.596 203.631 101.565 203.818 101.579H204.342Z" fill="#F8DCD8"/>
<path d="M152.615 76.7487C152.625 76.6111 152.602 76.4729 152.547 76.3463C152.558 76.2087 152.535 76.0705 152.48 75.9439C152.464 75.8311 152.442 75.7194 152.414 75.6091C152.425 75.4714 152.401 75.3333 152.346 75.2067C152.346 75.0715 152.279 74.9379 152.279 74.8043C152.279 74.6706 152.213 74.5354 152.213 74.4018C152.145 74.2666 152.145 74.1331 152.078 73.9995C152.052 73.8809 152.007 73.7672 151.944 73.6631C151.877 73.5295 151.877 73.3958 151.811 73.2607C151.784 73.1425 151.738 73.0295 151.676 72.9259C151.608 72.7986 151.518 72.6851 151.409 72.591C151.341 72.5234 151.274 72.3898 151.208 72.3222C151.14 72.1886 151.007 72.0534 151.007 71.9858C150.939 71.8522 151.007 71.7186 151.072 71.5834C151.082 71.5259 151.105 71.4716 151.14 71.425C151.175 71.3785 151.221 71.3411 151.274 71.3162C151.352 71.2625 151.447 71.2386 151.542 71.2486H154.759C154.894 71.2486 155.028 71.3162 155.161 71.3162C155.295 71.3162 155.43 71.2486 155.563 71.2486H159.586C159.723 71.2379 159.861 71.2611 159.988 71.3162L160.257 71.5834C160.323 71.7186 160.322 71.8522 160.39 71.9198V72.3222C160.322 72.4558 160.257 72.5234 160.189 72.6571C160.189 72.7922 160.121 72.9258 160.121 73.0594C160.068 73.1864 160.045 73.3243 160.055 73.4618C160.001 73.5885 159.977 73.7266 159.988 73.8642C159.988 73.9994 159.92 74.1331 159.92 74.2667C159.92 74.4003 159.988 74.5355 159.988 74.6691V75.0715C159.988 75.2067 160.055 75.3403 160.055 75.5431V75.9455C160.055 76.0807 160.189 76.2143 160.189 76.3479C160.178 76.4856 160.201 76.6238 160.257 76.7504C160.246 76.8878 160.269 77.0258 160.323 77.1527V77.5551C160.39 77.7563 160.322 77.7563 160.39 77.9575C160.39 78.1587 160.458 78.1588 160.458 78.36C160.524 78.5627 160.458 78.5627 160.524 78.7639C160.513 78.9016 160.536 79.0397 160.591 79.1663C160.58 79.304 160.604 79.4422 160.659 79.5688C160.648 79.6844 160.671 79.8005 160.725 79.9036C160.714 80.0638 160.737 80.2245 160.792 80.3751C160.792 80.5087 160.725 80.5763 160.792 80.7776C160.781 80.9152 160.805 81.0534 160.86 81.18C160.86 81.3812 160.926 81.3136 160.926 81.5148C160.993 81.716 160.926 81.716 160.993 81.9172C160.983 82.0548 161.006 82.193 161.061 82.3196V82.722C161.115 82.849 161.137 82.987 161.127 83.1245C161.182 83.251 161.205 83.3892 161.194 83.5269C161.262 83.7281 161.194 83.7281 161.262 83.9293C161.251 84.0668 161.274 84.2048 161.328 84.3317C161.328 84.5345 161.395 84.5345 161.395 84.7357C161.463 84.9369 161.395 84.9369 161.463 85.1381C161.452 85.2756 161.475 85.4136 161.529 85.5405V85.9429C161.584 86.0695 161.607 86.2076 161.596 86.3453C161.664 86.5465 161.596 86.5465 161.664 86.7477C161.664 86.9489 161.73 86.9489 161.73 87.1501C161.797 87.3513 161.73 87.3513 161.73 87.5525L161.865 87.955V88.3574C161.919 88.4843 161.941 88.6223 161.931 88.7598C161.986 88.8864 162.009 89.0246 161.998 89.1622C162.066 89.3634 161.998 89.3634 162.066 89.5646C162.056 89.7021 162.078 89.8401 162.132 89.967C162.132 90.1682 162.199 90.1682 162.199 90.3694C162.189 90.5071 162.212 90.6452 162.267 90.7718C162.256 90.9095 162.28 91.0477 162.335 91.1743C162.324 91.3117 162.347 91.4497 162.401 91.5767V91.9791C162.456 92.1057 162.479 92.2439 162.468 92.3815C162.468 92.5827 162.534 92.5827 162.534 92.7839C162.602 92.9851 162.534 92.9851 162.602 93.1863C162.591 93.3239 162.614 93.4621 162.669 93.5887V93.9911C162.724 94.1183 162.747 94.257 162.737 94.3952C162.737 94.5964 162.803 94.5963 162.803 94.7975V95.6023C162.803 95.8036 162.87 95.8036 162.87 96.0048V96.742C162.938 96.9432 162.87 96.9432 162.938 97.1444C162.927 97.2819 162.95 97.4199 163.004 97.5468V97.9493C163.071 98.1505 163.004 98.1505 163.004 98.3517C163.004 98.5529 163.071 98.5529 163.071 98.7541V99.1564C163.061 99.2941 163.084 99.4323 163.139 99.5589V99.9613C163.139 100.162 163.205 100.162 163.205 100.364C163.216 100.443 163.257 100.515 163.32 100.565C163.382 100.615 163.461 100.639 163.541 100.632C163.674 100.632 163.875 100.566 163.875 100.364V99.9613C163.93 99.8347 163.954 99.6965 163.943 99.5589C163.997 99.4319 164.019 99.2939 164.009 99.1564C164.064 99.0298 164.087 98.8917 164.077 98.7541C164.132 98.6275 164.155 98.4893 164.144 98.3517C164.21 98.1505 164.144 98.1505 164.21 97.9493C164.199 97.8116 164.222 97.6734 164.278 97.5468C164.267 97.431 164.291 97.3147 164.345 97.212C164.335 97.0745 164.357 96.9365 164.411 96.8096V96.4072L164.546 96.0048C164.536 95.8673 164.558 95.7293 164.612 95.6023V95.1999L164.747 94.7975C164.747 94.5963 164.68 94.5964 164.747 94.3952C164.737 94.2572 164.759 94.1186 164.813 93.9911C164.813 93.7899 164.881 93.7899 164.881 93.5887C164.948 93.3875 164.881 93.3875 164.948 93.1863V92.7839L165.082 92.3815V91.9791C165.149 91.7779 165.149 91.8455 165.215 91.6443V91.2419C165.27 91.1153 165.294 90.9771 165.283 90.8395C165.338 90.7129 165.361 90.5747 165.35 90.437C165.416 90.2358 165.35 90.2358 165.416 90.0346C165.406 89.897 165.429 89.7588 165.484 89.6322C165.484 89.431 165.551 89.431 165.551 89.2298C165.541 89.0923 165.564 88.9543 165.617 88.8274C165.607 88.6897 165.63 88.5515 165.685 88.4249V88.021C165.752 87.8198 165.685 87.8198 165.752 87.6186C165.742 87.4811 165.765 87.3431 165.818 87.2161C165.818 87.0149 165.886 87.0149 165.886 86.8137C165.935 86.7091 165.958 86.5943 165.954 86.4789C166.021 86.2777 165.954 86.2101 166.021 86.0073C166.021 85.8737 166.087 85.8737 166.087 85.6725C166.142 85.5459 166.165 85.4078 166.155 85.2701C166.144 85.1325 166.167 84.9943 166.222 84.8677C166.212 84.7302 166.234 84.5922 166.288 84.4653C166.277 84.3276 166.301 84.1894 166.356 84.0629V83.6605C166.411 83.5339 166.434 83.3957 166.423 83.2581C166.477 83.1312 166.5 82.9932 166.489 82.8557C166.489 82.6545 166.557 82.6545 166.557 82.4532C166.624 82.252 166.557 82.252 166.557 82.0508C166.612 81.9237 166.635 81.785 166.624 81.6469L166.758 81.2444V80.842C166.825 80.6408 166.825 80.7084 166.891 80.5072V80.1048C166.959 79.9036 166.891 79.9036 166.959 79.7024C166.959 79.5012 167.026 79.5012 167.026 79.3C167.08 79.173 167.103 79.035 167.092 78.8975C167.147 78.771 167.171 78.6328 167.16 78.4951C167.16 78.2939 167.227 78.2939 167.227 78.0927C167.293 77.8915 167.227 77.8916 167.293 77.6904V77.2879L167.428 76.8855V76.4831L167.562 76.0807C167.551 75.943 167.574 75.8048 167.63 75.6783C167.63 75.477 167.562 75.477 167.63 75.2758C167.63 75.0731 167.695 75.0731 167.695 74.8719C167.757 74.7718 167.781 74.6532 167.763 74.5371C167.818 74.4105 167.841 74.2723 167.831 74.1347C167.897 73.9334 167.831 73.9334 167.831 73.7322C167.884 73.6053 167.907 73.4673 167.897 73.3298L168.032 72.9274V72.525C168.085 72.398 168.108 72.26 168.098 72.1225C168.1 71.9977 168.148 71.8781 168.233 71.7862C168.285 71.6669 168.38 71.5715 168.5 71.519C168.567 71.4514 168.635 71.3178 168.768 71.3178C168.871 71.2631 168.988 71.2396 169.104 71.2502H173.528C173.643 71.2397 173.76 71.2632 173.862 71.3178C173.964 71.3673 174.055 71.4355 174.131 71.519C174.25 71.5715 174.346 71.6668 174.399 71.7862C174.483 71.8787 174.53 71.998 174.533 72.1225V72.525C174.588 72.6516 174.611 72.7897 174.6 72.9274C174.6 73.1286 174.668 73.1286 174.668 73.3298C174.722 73.4567 174.744 73.5947 174.734 73.7322C174.723 73.8699 174.746 74.0081 174.801 74.1347C174.791 74.2721 174.814 74.4101 174.867 74.5371C174.867 74.6707 174.935 74.6707 174.935 74.8719C175.002 75.0731 174.935 75.0731 175.003 75.2758C174.992 75.4135 175.015 75.5517 175.07 75.6783V76.0838L175.204 76.4862C175.204 76.6874 175.136 76.6875 175.204 76.8887C175.193 77.0261 175.216 77.1641 175.269 77.2911C175.269 77.4923 175.337 77.4923 175.337 77.6935C175.337 77.8947 175.405 77.8946 175.472 78.0958V78.4983C175.538 78.6995 175.472 78.6995 175.538 78.9007C175.527 79.0383 175.551 79.1765 175.606 79.3031C175.595 79.4408 175.618 79.5789 175.673 79.7055V80.108C175.733 80.2086 175.757 80.3269 175.739 80.4428L175.874 80.8452V81.2476C175.928 81.3745 175.951 81.5125 175.94 81.65C176.008 81.8528 175.94 81.8528 176.008 82.054C175.997 82.1916 176.02 82.3298 176.075 82.4564C176.065 82.5939 176.087 82.7319 176.141 82.8588C176.131 82.9965 176.154 83.1346 176.209 83.2612V83.6637C176.264 83.7902 176.287 83.9284 176.276 84.066C176.33 84.1929 176.353 84.3309 176.342 84.4684C176.397 84.595 176.421 84.7332 176.41 84.8708C176.41 85.072 176.477 85.072 176.543 85.2056V85.6081C176.598 85.7347 176.622 85.8728 176.611 86.0105C176.678 86.2117 176.611 86.2117 176.678 86.4129C176.668 86.5504 176.691 86.6884 176.744 86.8153C176.744 87.0165 176.812 87.0165 176.812 87.2177C176.88 87.419 176.812 87.419 176.879 87.6202C176.869 87.7577 176.892 87.8957 176.946 88.0226V88.4265C177.001 88.5531 177.024 88.6913 177.013 88.829C177.068 88.9556 177.091 89.0937 177.081 89.2314C177.147 89.4326 177.081 89.4326 177.147 89.6338C177.136 89.7715 177.159 89.9096 177.214 90.0361C177.203 90.1738 177.227 90.312 177.282 90.4386C177.271 90.5761 177.294 90.7141 177.348 90.841C177.337 90.9786 177.36 91.1168 177.415 91.2434V91.5782C177.47 91.7048 177.493 91.843 177.483 91.9806C177.536 92.1076 177.559 92.2456 177.549 92.3831L177.684 92.7855V93.1879C177.673 93.3254 177.696 93.4634 177.75 93.5903C177.75 93.7915 177.817 93.7915 177.817 93.9927C177.885 94.1955 177.817 94.1955 177.885 94.3967C177.874 94.5343 177.897 94.6725 177.952 94.7991V95.2015L178.086 95.604V96.0064L178.219 96.4087V96.8111C178.274 96.9138 178.297 97.0302 178.287 97.146C178.354 97.3472 178.287 97.3472 178.354 97.5484C178.354 97.7496 178.42 97.7496 178.42 97.9508C178.488 98.152 178.42 98.152 178.488 98.3532C178.477 98.4907 178.5 98.6287 178.554 98.7556C178.543 98.8933 178.566 99.0315 178.621 99.158C178.611 99.2957 178.634 99.4339 178.689 99.5605C178.678 99.6981 178.701 99.8363 178.757 99.9629C178.746 100.1 178.769 100.238 178.822 100.365C178.822 100.5 178.958 100.702 179.091 100.702C179.178 100.696 179.26 100.659 179.322 100.597C179.384 100.535 179.42 100.453 179.426 100.365C179.426 100.164 179.493 100.164 179.493 99.9629V99.5605C179.561 99.3593 179.493 99.3593 179.561 99.158V98.7556C179.627 98.5544 179.561 98.5544 179.627 98.3532V97.9508C179.694 97.7496 179.627 97.7496 179.627 97.5484C179.627 97.3472 179.694 97.3472 179.694 97.146V96.7436C179.684 96.6278 179.707 96.5114 179.762 96.4087V96.0064C179.828 95.8052 179.762 95.8052 179.762 95.604C179.762 95.4028 179.828 95.4027 179.828 95.2015V94.7897C179.828 94.5885 179.895 94.5885 179.895 94.3873C179.95 94.2601 179.974 94.1215 179.963 93.9833V93.5809C179.952 93.4434 179.975 93.3054 180.029 93.1785C180.018 93.0408 180.041 92.9026 180.096 92.776C180.086 92.6384 180.109 92.5002 180.164 92.3736C180.164 92.1724 180.23 92.1724 180.23 91.9712C180.219 91.8335 180.242 91.6954 180.297 91.5688C180.287 91.4311 180.31 91.293 180.365 91.1664V90.764C180.355 90.6265 180.377 90.4885 180.431 90.3616C180.42 90.2239 180.443 90.0858 180.498 89.9592C180.498 89.758 180.566 89.758 180.566 89.5567C180.566 89.3555 180.632 89.3555 180.632 89.1543C180.7 88.9531 180.632 88.9531 180.7 88.7519V88.3495L180.833 87.9471V87.5447C180.888 87.4181 180.911 87.2799 180.901 87.1423C180.956 87.0157 180.979 86.8775 180.968 86.7399C180.968 86.5387 181.034 86.5387 181.034 86.3375C181.023 86.1998 181.047 86.0616 181.102 85.935V85.5326C181.157 85.406 181.18 85.2678 181.169 85.1302C181.169 84.929 181.235 84.9291 181.303 84.7278C181.303 84.5266 181.235 84.5266 181.303 84.3238C181.292 84.1862 181.315 84.048 181.37 83.9214C181.37 83.7202 181.438 83.7202 181.438 83.519C181.427 83.3815 181.45 83.2436 181.504 83.1166C181.486 83.0005 181.51 82.8819 181.571 82.7818C181.571 82.5805 181.504 82.513 181.571 82.3102C181.561 82.1725 181.584 82.0343 181.639 81.9078C181.639 81.7065 181.705 81.7742 181.705 81.573C181.705 81.3717 181.772 81.3717 181.772 81.1705C181.762 81.0329 181.785 80.8947 181.84 80.7681C181.829 80.6306 181.852 80.4927 181.906 80.3658C181.895 80.2281 181.918 80.0899 181.973 79.9633V79.5609L182.107 79.1585C182.107 78.9573 182.041 78.9573 182.107 78.7561C182.107 78.5549 182.174 78.5549 182.174 78.3521C182.174 78.1494 182.242 78.1509 182.242 77.9497V77.5473L182.375 77.1449V76.7424C182.431 76.6159 182.454 76.4777 182.443 76.34C182.443 76.2064 182.509 76.0728 182.509 75.9376C182.509 75.7364 182.576 75.6704 182.576 75.5352C182.628 75.3835 182.651 75.2236 182.644 75.0636V73.454C182.577 73.3204 182.577 73.1868 182.509 73.0516C182.519 72.9141 182.497 72.7761 182.443 72.6492C182.376 72.5155 182.375 72.3819 182.308 72.2467C182.248 72.1461 182.225 72.0278 182.242 71.9119C182.268 71.7933 182.313 71.6797 182.375 71.5755C182.478 71.4946 182.59 71.427 182.71 71.3744C182.802 71.2909 182.922 71.2434 183.046 71.2407H190.284C190.419 71.2407 190.553 71.3083 190.688 71.3083C190.823 71.3083 190.887 71.2407 191.022 71.2407C191.146 71.2434 191.265 71.2909 191.357 71.3744L191.558 71.5755C191.613 71.7022 191.636 71.8403 191.625 71.9779C191.558 72.0455 191.492 72.1807 191.424 72.2467C191.357 72.3819 191.223 72.448 191.156 72.5831C191.088 72.7183 191.022 72.7843 190.955 72.9179C190.887 73.0516 190.887 73.1868 190.821 73.3204C190.74 73.4226 190.672 73.5352 190.62 73.6552C190.631 73.7928 190.608 73.931 190.553 74.0576C190.469 74.1497 190.421 74.2693 190.419 74.394C190.352 74.5276 190.352 74.6612 190.284 74.7964V75.1988C190.218 75.3325 190.218 75.4 190.151 75.5336V75.9361C190.096 76.0627 190.072 76.2008 190.083 76.3385C190.017 76.4737 190.017 76.6073 189.949 76.7409V77.1433L189.816 77.5457V77.9481C189.816 78.1493 189.748 78.1493 189.681 78.2845C189.691 78.422 189.669 78.56 189.615 78.6869C189.615 78.8881 189.681 78.8881 189.615 79.0894C189.615 79.2906 189.547 79.2906 189.547 79.4918C189.558 79.6294 189.535 79.7676 189.48 79.8942C189.49 80.0317 189.468 80.1696 189.414 80.2965C189.425 80.4342 189.401 80.5724 189.346 80.699V81.114C189.291 81.2406 189.268 81.3787 189.279 81.5164L189.145 81.9188C189.156 82.0565 189.133 82.1946 189.078 82.3212C189.088 82.4587 189.066 82.5967 189.012 82.7236V83.126C189.023 83.2636 188.999 83.4018 188.944 83.5284C188.955 83.6661 188.932 83.8042 188.877 83.9308C188.887 84.0683 188.864 84.2063 188.811 84.3333C188.766 84.6021 188.721 84.8709 188.676 85.1396C188.686 85.2771 188.663 85.4151 188.61 85.5421C188.61 85.7433 188.542 85.7433 188.542 85.9445C188.493 86.0491 188.47 86.1639 188.475 86.2793C188.409 86.4805 188.475 86.5481 188.475 86.7509C188.421 86.8778 188.398 87.0158 188.409 87.1533C188.352 87.2597 188.306 87.372 188.274 87.4881C188.284 87.6256 188.261 87.7636 188.208 87.8905C188.218 88.0281 188.195 88.1663 188.14 88.2929C188.151 88.4306 188.128 88.5687 188.073 88.6953V89.0978C188.073 89.299 188.007 89.299 188.007 89.5002C187.951 89.6268 187.928 89.765 187.939 89.9026C187.871 90.1038 187.939 90.1038 187.939 90.305C187.871 90.5062 187.805 90.5062 187.805 90.7074C187.816 90.8455 187.793 90.9843 187.738 91.1114C187.738 91.3126 187.67 91.3126 187.67 91.5138V91.9162C187.617 92.0432 187.594 92.1811 187.604 92.3186L187.469 92.721V93.1234L187.336 93.5258V93.9283C187.281 94.0549 187.258 94.193 187.268 94.3307C187.201 94.5319 187.268 94.5319 187.201 94.7331C187.211 94.8706 187.189 95.0086 187.135 95.1355V95.5379C187.067 95.6715 187 95.6715 187 95.8727C186.934 96.074 187 96.074 187 96.2752C186.956 96.5441 186.912 96.8129 186.866 97.0815L186.733 97.484C186.743 97.6216 186.72 97.7598 186.665 97.8864V98.2887L186.532 98.6912C186.532 98.8924 186.598 98.8924 186.532 99.0936C186.542 99.2312 186.519 99.3694 186.464 99.496C186.475 99.6336 186.452 99.7718 186.397 99.8984C186.397 100.1 186.331 100.1 186.331 100.301C186.263 100.502 186.331 100.502 186.263 100.703C186.274 100.841 186.251 100.979 186.195 101.106C186.206 101.243 186.183 101.381 186.129 101.508C186.14 101.646 186.117 101.784 186.062 101.91C186.073 102.048 186.049 102.186 185.994 102.313C186.005 102.45 185.982 102.588 185.928 102.715C185.939 102.853 185.916 102.991 185.861 103.118V103.52C185.8 103.621 185.776 103.74 185.793 103.857L185.66 104.259V104.661C185.605 104.788 185.582 104.926 185.592 105.064C185.526 105.265 185.592 105.265 185.526 105.466C185.537 105.604 185.514 105.742 185.459 105.869C185.47 106.006 185.446 106.144 185.391 106.271V106.673L185.258 107.076C185.258 107.277 185.19 107.277 185.19 107.478C185.201 107.616 185.178 107.754 185.124 107.881C185.135 108.018 185.112 108.156 185.057 108.283V108.685C185.057 108.887 184.989 108.887 184.989 109.088C184.934 109.214 184.911 109.353 184.922 109.49C184.868 109.617 184.845 109.755 184.856 109.893C184.788 110.094 184.856 110.094 184.788 110.295C184.788 110.496 184.722 110.496 184.722 110.698L184.52 111.1C184.441 111.224 184.323 111.319 184.185 111.369C184.042 111.453 183.88 111.499 183.714 111.502H180.363C180.162 111.502 180.162 111.57 179.961 111.57C179.76 111.57 179.76 111.502 179.559 111.502H175.672C175.529 111.489 175.391 111.443 175.268 111.369C175.134 111.301 174.933 111.235 174.866 111.1L174.666 110.698C174.677 110.56 174.654 110.422 174.599 110.295V109.88C174.544 109.754 174.521 109.615 174.531 109.478C174.476 109.351 174.453 109.213 174.464 109.075C174.41 108.948 174.387 108.81 174.398 108.673C174.343 108.546 174.319 108.408 174.33 108.27C174.275 108.144 174.252 108.006 174.263 107.868C174.203 107.767 174.179 107.649 174.197 107.533C174.142 107.407 174.118 107.268 174.129 107.131L173.996 106.728C174.006 106.59 173.983 106.452 173.928 106.324C173.939 106.187 173.916 106.049 173.861 105.922V105.52C173.807 105.393 173.784 105.255 173.795 105.117L173.659 104.715C173.677 104.599 173.654 104.481 173.594 104.38V103.978L173.458 103.575C173.469 103.438 173.446 103.3 173.393 103.173C173.403 103.035 173.38 102.897 173.325 102.77C173.336 102.633 173.313 102.494 173.257 102.368C173.257 102.167 173.191 102.167 173.191 101.965C173.124 101.764 173.191 101.764 173.124 101.563C173.135 101.425 173.111 101.287 173.056 101.161V100.763C172.99 100.628 172.923 100.628 172.923 100.427C172.855 100.225 172.923 100.225 172.855 100.024C172.866 99.8867 172.843 99.7487 172.789 99.6218C172.789 99.4206 172.722 99.4206 172.722 99.2194C172.667 99.0928 172.644 98.9546 172.654 98.817C172.588 98.6157 172.654 98.6157 172.588 98.4145V98.0121L172.453 97.6097C172.453 97.4085 172.387 97.4761 172.387 97.2749C172.32 97.0737 172.387 97.0737 172.32 96.8725C172.331 96.7343 172.307 96.5956 172.252 96.4685V96.0661L172.119 95.6637C172.129 95.526 172.106 95.3878 172.051 95.2613C172.062 95.1238 172.039 94.9858 171.985 94.8588C171.985 94.6576 171.918 94.6576 171.918 94.4564C171.863 94.3298 171.839 94.1916 171.85 94.054C171.782 93.9204 171.85 93.8528 171.783 93.6516C171.787 93.5363 171.764 93.4217 171.717 93.3168C171.717 93.1156 171.649 93.1156 171.649 92.9143C171.581 92.7131 171.649 92.7131 171.581 92.5119C171.581 92.3107 171.515 92.3108 171.515 92.1096C171.46 91.983 171.437 91.8448 171.448 91.7072C171.393 91.5806 171.37 91.4424 171.38 91.3047C171.314 91.1035 171.515 90.9023 171.314 90.9023C171.113 90.9023 171.247 91.1035 171.247 91.3047C171.179 91.5059 171.247 91.506 171.179 91.7072C171.179 91.9084 171.113 91.9084 171.113 92.1096L170.978 92.5119C170.978 92.7131 171.046 92.7131 170.978 92.9143C170.989 93.0518 170.966 93.1898 170.912 93.3168C170.912 93.518 170.845 93.4504 170.845 93.6516C170.79 93.7782 170.767 93.9163 170.777 94.054C170.723 94.1809 170.701 94.3189 170.711 94.4564C170.656 94.583 170.633 94.7212 170.644 94.8588L170.51 95.2613V95.6637C170.455 95.7903 170.432 95.9284 170.443 96.0661L170.309 96.4685V96.8725C170.252 96.9789 170.207 97.0912 170.174 97.2073V97.6191C170.12 97.7461 170.098 97.8841 170.108 98.0216C170.041 98.2228 170.108 98.2228 170.041 98.424C170.041 98.6252 169.973 98.6252 169.907 98.8264V99.2288L169.772 99.6312C169.782 99.7686 169.76 99.9066 169.706 100.034C169.724 100.15 169.7 100.268 169.638 100.368C169.638 100.571 169.706 100.637 169.638 100.772C169.638 100.974 169.571 100.974 169.571 101.175C169.517 101.302 169.495 101.44 169.505 101.577C169.437 101.778 169.505 101.778 169.437 101.98C169.448 102.117 169.425 102.255 169.37 102.382C169.37 102.583 169.304 102.583 169.236 102.784V103.187C169.181 103.313 169.158 103.452 169.169 103.589C169.115 103.716 169.092 103.854 169.103 103.992C169.046 104.098 169.001 104.21 168.968 104.327C168.979 104.464 168.955 104.602 168.9 104.729C168.9 104.93 168.968 104.93 168.9 105.131L168.767 105.534C168.777 105.671 168.755 105.809 168.701 105.936V106.339L168.566 106.743V107.145L168.432 107.547V107.95C168.375 108.056 168.33 108.168 168.299 108.285V108.687C168.244 108.814 168.22 108.952 168.231 109.089C168.176 109.216 168.153 109.354 168.164 109.492C168.096 109.693 168.03 109.693 168.03 109.894C167.962 110.095 168.03 110.095 168.03 110.297C167.975 110.423 167.952 110.561 167.962 110.699L167.761 111.101C167.644 111.214 167.508 111.305 167.359 111.37C167.237 111.445 167.1 111.491 166.957 111.504H158.914C158.748 111.5 158.585 111.454 158.442 111.37C158.304 111.32 158.187 111.225 158.108 111.101C157.974 110.968 157.974 110.834 157.907 110.699C157.917 110.561 157.894 110.423 157.839 110.297C157.839 110.095 157.773 110.095 157.773 109.894C157.706 109.693 157.773 109.693 157.706 109.492C157.716 109.354 157.693 109.216 157.638 109.089C157.649 108.952 157.626 108.814 157.572 108.687C157.583 108.549 157.56 108.411 157.505 108.285C157.515 108.147 157.492 108.009 157.437 107.882C157.448 107.745 157.425 107.607 157.371 107.48V107.077C157.316 106.951 157.293 106.813 157.304 106.675C157.248 106.548 157.225 106.41 157.236 106.273C157.17 106.071 157.236 106.071 157.17 105.87C157.17 105.669 157.103 105.669 157.103 105.468C157.047 105.341 157.024 105.203 157.035 105.065C156.982 104.962 156.959 104.845 156.969 104.729C156.901 104.528 156.969 104.462 156.969 104.257C156.92 104.152 156.897 104.037 156.901 103.921L156.768 103.519V103.116C156.713 102.99 156.69 102.851 156.7 102.714L156.565 102.311C156.576 102.174 156.553 102.036 156.499 101.909C156.51 101.771 156.487 101.633 156.432 101.506V101.104L156.298 100.702V100.291C156.231 100.09 156.298 100.09 156.231 99.889C156.231 99.6878 156.163 99.6878 156.163 99.4866C156.097 99.2854 156.163 99.2853 156.097 99.0841C156.108 98.9465 156.085 98.8083 156.03 98.6817C156.04 98.5441 156.017 98.406 155.962 98.2794C155.973 98.1419 155.95 98.0039 155.896 97.8769V97.4745C155.851 97.2058 155.806 96.937 155.761 96.6682C155.707 96.5412 155.685 96.4032 155.695 96.2657C155.628 96.1321 155.695 96.0645 155.628 95.8633C155.638 95.7475 155.615 95.6312 155.56 95.5285C155.57 95.391 155.548 95.253 155.494 95.1261C155.505 94.9884 155.482 94.8503 155.427 94.7237C155.427 94.5225 155.359 94.5225 155.359 94.3212C155.359 94.12 155.293 94.12 155.293 93.9188C155.293 93.7176 155.225 93.7176 155.225 93.5164C155.158 93.3152 155.225 93.3152 155.225 93.114C155.17 92.9874 155.147 92.8492 155.158 92.7116C155.104 92.5846 155.082 92.4467 155.092 92.3092C155.024 92.108 155.092 92.108 155.024 91.9068C155.024 91.7056 154.957 91.7056 154.957 91.5044L154.823 91.102C154.834 90.9638 154.811 90.8252 154.756 90.698C154.756 90.4968 154.823 90.4968 154.756 90.2956C154.756 90.0944 154.69 90.0944 154.69 89.8932C154.635 89.7666 154.612 89.6284 154.622 89.4907C154.555 89.2895 154.622 89.2895 154.555 89.0883C154.565 88.9508 154.543 88.8128 154.489 88.6859V88.2835C154.434 88.1569 154.411 88.0187 154.421 87.8811C154.354 87.6798 154.354 87.7475 154.288 87.5463V87.1438L154.153 86.7414V86.3391C154.099 86.2121 154.076 86.0741 154.087 85.9366C154.032 85.8101 154.008 85.6719 154.019 85.5342C153.952 85.333 154.019 85.333 153.952 85.1318C153.952 84.9306 153.886 84.9306 153.886 84.7294C153.818 84.5282 153.886 84.5282 153.818 84.3254C153.829 84.1878 153.806 84.0496 153.751 83.923V83.5206C153.685 83.3194 153.617 83.3194 153.617 83.1182C153.55 82.917 153.617 82.9169 153.55 82.7157C153.55 82.5145 153.484 82.5145 153.484 82.3133V81.9109C153.429 81.7843 153.405 81.6461 153.416 81.5085C153.361 81.3819 153.338 81.2438 153.349 81.1061C153.295 80.9792 153.272 80.8412 153.282 80.7037C153.293 80.5661 153.27 80.4279 153.215 80.3013C153.215 80.1001 153.147 80.1001 153.147 79.8989C153.081 79.6977 153.147 79.6977 153.081 79.4965C153.092 79.3588 153.069 79.2206 153.014 79.094C153.014 78.8928 152.946 78.9604 152.946 78.7592C152.879 78.558 152.946 78.5581 152.879 78.3553V77.9529C152.825 77.8259 152.802 77.6879 152.813 77.5504L152.678 77.148C152.689 77.0118 152.667 76.875 152.615 76.7487Z" fill="#F8DCD8"/>
<path d="M117.904 75.8441C118.783 77.9242 118.188 80.3291 117.041 82.4736C115.907 84.5503 114.232 86.3057 112.043 87.0837C109.983 87.865 107.875 87.6046 106.359 86.3701C104.089 84.4861 103.754 81.2965 104.329 78.2524H103.99C102.995 78.5543 102.053 79.0109 101.199 79.6053C99.855 80.4659 98.6072 81.4683 97.4772 82.5953C95.9965 84.0764 94.769 85.7904 93.8434 87.6688C93.4814 91.1764 93.1227 94.6873 92.8994 98.1306C92.5881 102.223 92.8317 106.509 95.2678 109.631C95.3677 109.797 95.4238 109.985 95.4309 110.178C95.438 110.372 95.3959 110.564 95.3085 110.737C95.2178 110.947 95.0677 111.127 94.8766 111.253C94.6856 111.38 94.4618 111.449 94.2325 111.45C93.2174 111.386 92.1718 111.322 91.1331 111.322C91.0688 111.322 90.9369 111.322 90.8828 111.257C86.0918 111.126 81.2635 111.257 76.4115 111.596C76.2759 111.61 76.1387 111.594 76.01 111.549C75.8813 111.504 75.7642 111.431 75.6671 111.335C75.1189 111.075 74.7704 110.297 75.5689 109.712C77.6701 108.152 79.0777 106.008 79.9981 103.603C80.7582 101.475 81.3044 99.2774 81.6289 97.0414C82.1702 94.119 82.5864 91.129 82.9823 88.2066C83.3815 85.3485 83.8552 82.4228 83.9331 79.5647C84.0007 77.2275 83.3342 75.0187 81.2601 74.0445C80.7695 73.8484 80.7457 73.067 81.0604 72.6916C81.0604 72.6273 81.145 72.5631 81.1552 72.4988C81.2632 72.3605 81.4005 72.2478 81.5573 72.1689C81.7141 72.0899 81.8864 72.0466 82.0619 72.0422C86.3683 71.8351 90.6828 71.8566 94.987 72.1064C95.1775 72.1036 95.3631 72.1668 95.5124 72.2851C95.6616 72.4035 95.7652 72.5699 95.8058 72.756C95.9442 72.9424 96.0048 73.1752 95.9749 73.4054C95.8958 73.6158 95.8425 73.8349 95.816 74.0581L95.5181 76.1991C95.2339 77.7584 95.0074 79.3853 94.7231 80.9345C96.7126 78.3334 98.9322 75.932 101.73 74.048C105.391 71.5789 109.973 70.4086 113.793 71.9036C115.62 72.6613 117.193 73.9567 117.904 75.8441Z" fill="#F8DCD8"/>
<path d="M74.8925 85.6452C74.1226 86.0307 73.4783 86.628 73.0351 87.3668C71.8673 90.5315 71.8674 94.0481 71.9363 97.3419C71.9468 101.664 72.1994 105.983 72.6927 110.277C72.7616 110.896 72.1432 111.377 71.5938 111.377H71.5249C70.9065 111.515 70.4928 110.963 70.1502 110.551C69.7653 110.153 69.2952 109.849 68.7755 109.66C68.6078 109.646 68.4446 109.599 68.2952 109.522C67.1168 109.108 65.8951 108.831 64.6539 108.695C63.4052 108.475 62.1403 108.361 60.8725 108.353C57.7117 110.134 54.0683 111.025 50.3581 111.103C47.5421 111.172 44.6549 110.76 41.9056 110.346C39.4321 109.934 37.0253 109.246 34.8277 108.007C33.7277 107.377 32.6922 106.64 31.7359 105.807C31.4739 105.734 31.2516 105.561 31.1176 105.324V105.255C28.4373 102.778 26.3753 99.5466 24.667 96.3819C22.0556 91.3576 20.2005 85.8545 20.1316 80.1442C20.0626 74.503 22.1335 68.8619 24.9406 63.9779C27.483 59.6418 30.9885 55.7912 35.2481 53.1076C39.1667 50.7254 43.5948 49.3101 48.1671 48.9786C52.8092 48.6561 57.4672 49.3122 61.8401 50.9049C62.2633 51.0356 62.6764 51.1964 63.0768 51.386C63.3305 51.3412 63.5917 51.3651 63.8331 51.4551C64.8558 51.9834 65.8425 52.5786 66.787 53.2368C67.7457 53.8313 68.6236 54.5476 69.3984 55.368C71.5745 57.0316 73.0267 59.4706 73.4534 62.1784C73.6012 63.0648 73.6474 63.9653 73.5912 64.8622C73.7958 68.7841 72.6281 72.9798 69.3984 75.4563C65.7572 78.209 60.1918 77.5898 56.4816 75.2514C54.7022 74.0131 53.2519 72.3562 52.6336 70.2294C52.0299 69.0591 51.6753 67.7763 51.5922 66.4618C51.5091 65.1473 51.6994 63.8298 52.1509 62.5927C52.6966 61.0112 53.562 59.5593 54.6933 58.3278C55.159 57.6314 55.664 56.9622 56.2059 56.3234C57.1668 55.3591 58.2678 54.6709 59.4356 53.9828C56.3438 53.3636 52.7625 54.328 49.9532 55.5663C46.6504 57.035 43.6989 59.1929 41.2961 61.8957C38.9583 64.5793 37.1032 67.744 36.2113 71.1826C35.3215 74.5544 35.2482 78.062 35.524 81.5718C36.1424 88.3823 38.7537 95.469 43.6316 100.422C47.7533 104.687 53.9393 106.063 59.4356 103.656C59.7092 103.518 60.054 103.313 60.3253 103.175V102.783C60.7481 100.188 61.0007 97.5687 61.0816 94.9411C61.174 93.0599 61.1287 91.1744 60.9459 89.2999C60.8345 88.6689 60.673 88.0478 60.4632 87.4425C60.3942 87.2354 60.1207 86.8901 60.1207 86.8233C59.9594 86.6584 59.7741 86.5189 59.5713 86.4092C58.8839 86.1353 57.9898 86.7543 57.1646 86.3401C56.9668 86.1973 56.7828 86.0362 56.6151 85.859C56.6151 85.7899 56.6151 85.79 56.5461 85.79C56.4468 85.6782 56.3713 85.5471 56.3243 85.4051C56.2772 85.263 56.2596 85.1129 56.2726 84.9638C56.2618 84.8229 56.2855 84.6814 56.3415 84.5517C56.4105 84.4136 56.4794 84.3445 56.5461 84.2087C56.6151 84.2087 56.6841 84.1398 56.753 84.0708C56.8421 83.9794 56.9492 83.9076 57.0676 83.86C57.1859 83.8125 57.3129 83.7902 57.4403 83.7946C57.6642 83.7255 57.9037 83.7255 58.1276 83.7946C63.3504 83.5897 68.6399 83.5205 73.9316 83.5205C74.0431 83.512 74.1551 83.5258 74.2612 83.561C74.3674 83.5962 74.4655 83.652 74.5499 83.7254C75.4419 83.9258 75.8534 85.2332 74.8925 85.6452Z" fill="#F8DCD8"/>
<path d="M134.62 72.9592C143.844 72.9592 151.322 81.6164 151.322 92.2039C151.322 102.853 143.844 111.507 134.62 111.507C125.46 111.507 117.981 102.849 117.981 92.2039C117.976 81.6164 125.46 72.9592 134.62 72.9592ZM134.62 77.2563C130.694 77.2563 129.075 83.0484 129.075 91.8305C129.075 100.674 130.694 106.591 134.62 106.591C138.61 106.591 140.229 100.177 140.229 91.3953C140.229 82.6132 138.61 77.2563 134.62 77.2563Z" fill="#F8DCD8"/>
</g>
</g>
<defs>
<filter id="filter0_d_54_2" x="0.972656" y="0" width="233.739" height="162.459" filterUnits="userSpaceOnUse" color-interpolation-filters="sRGB">
<feFlood flood-opacity="0" result="BackgroundImageFix"/>
<feColorMatrix in="SourceAlpha" type="matrix" values="0 0 0 0 0 0 0 0 0 0 0 0 0 0 0 0 0 0 127 0" result="hardAlpha"/>
<feOffset dx="4.81035" dy="9.83935"/>
<feComposite in2="hardAlpha" operator="out"/>
<feColorMatrix type="matrix" values="0 0 0 0 0.980392 0 0 0 0 0.796078 0 0 0 0 0.87451 0 0 0 1 0"/>
<feBlend mode="normal" in2="BackgroundImageFix" result="effect1_dropShadow_54_2"/>
<feBlend mode="normal" in="SourceGraphic" in2="effect1_dropShadow_54_2" result="shape"/>
</filter>
<clipPath id="clip0_54_2">
<rect width="430" height="1142" fill="white" transform="translate(-197 -335)"/>
</clipPath>
</defs>
</svg>
